M48
; DRILL file {KiCad 9.0.0} date 2025-03-09T21:56:19-0600
; FORMAT={-:-/ absolute / metric / decimal}
; #@! TF.CreationDate,2025-03-09T21:56:19-06:00
; #@! TF.GenerationSoftware,Kicad,Pcbnew,9.0.0
; #@! TF.FileFunction,Plated,1,2,PTH
FMAT,2
METRIC
; #@! TA.AperFunction,Plated,PTH,ComponentDrill
T1C1.000
; #@! TA.AperFunction,Plated,PTH,ComponentDrill
T2C1.100
; #@! TA.AperFunction,Plated,PTH,ComponentDrill
T3C3.441
%
G90
G05
T1
X105.0Y-55.48
X105.0Y-58.02
X105.0Y-60.56
X105.0Y-63.1
X105.0Y-65.64
X105.0Y-68.18
X105.0Y-70.72
X105.0Y-73.26
X105.0Y-75.8
X105.0Y-78.34
X105.0Y-80.88
X105.0Y-83.42
X105.0Y-85.96
X105.0Y-88.5
X107.42Y-55.48
X109.96Y-55.48
X112.5Y-55.48
X115.04Y-55.48
X117.58Y-55.48
X120.0Y-55.48
X120.0Y-58.02
X120.0Y-60.56
X120.0Y-63.1
X120.0Y-65.64
X120.0Y-68.18
X120.0Y-70.72
X120.0Y-73.26
X120.0Y-75.8
X120.0Y-78.34
X120.0Y-80.88
X120.0Y-83.42
X120.0Y-85.96
X120.0Y-88.5
T2
X58.8Y-67.5
X58.8Y-82.0
X61.3Y-82.0
X63.8Y-67.5
X63.8Y-82.0
X80.5Y-67.5
X80.5Y-82.0
X83.0Y-82.0
X85.5Y-67.5
X85.5Y-82.0
T3
X55.6Y-74.5
X67.0Y-74.5
X77.3Y-74.5
X88.7Y-74.5
M30
