%TF.GenerationSoftware,KiCad,Pcbnew,9.0.0*%
%TF.CreationDate,2025-03-14T14:13:33-06:00*%
%TF.ProjectId,scrollwheel_peripheral,7363726f-6c6c-4776-9865-656c5f706572,rev?*%
%TF.SameCoordinates,Original*%
%TF.FileFunction,Soldermask,Bot*%
%TF.FilePolarity,Negative*%
%FSLAX46Y46*%
G04 Gerber Fmt 4.6, Leading zero omitted, Abs format (unit mm)*
G04 Created by KiCad (PCBNEW 9.0.0) date 2025-03-14 14:13:33*
%MOMM*%
%LPD*%
G01*
G04 APERTURE LIST*
G04 Aperture macros list*
%AMRoundRect*
0 Rectangle with rounded corners*
0 $1 Rounding radius*
0 $2 $3 $4 $5 $6 $7 $8 $9 X,Y pos of 4 corners*
0 Add a 4 corners polygon primitive as box body*
4,1,4,$2,$3,$4,$5,$6,$7,$8,$9,$2,$3,0*
0 Add four circle primitives for the rounded corners*
1,1,$1+$1,$2,$3*
1,1,$1+$1,$4,$5*
1,1,$1+$1,$6,$7*
1,1,$1+$1,$8,$9*
0 Add four rect primitives between the rounded corners*
20,1,$1+$1,$2,$3,$4,$5,0*
20,1,$1+$1,$4,$5,$6,$7,0*
20,1,$1+$1,$6,$7,$8,$9,0*
20,1,$1+$1,$8,$9,$2,$3,0*%
G04 Aperture macros list end*
%ADD10C,3.200000*%
%ADD11C,1.650000*%
%ADD12C,5.161000*%
%ADD13C,2.000000*%
%ADD14R,1.700000X1.700000*%
%ADD15O,1.700000X1.700000*%
%ADD16C,1.875000*%
%ADD17C,2.430000*%
%ADD18RoundRect,0.250000X-0.475000X0.250000X-0.475000X-0.250000X0.475000X-0.250000X0.475000X0.250000X0*%
%ADD19RoundRect,0.250000X0.475000X-0.250000X0.475000X0.250000X-0.475000X0.250000X-0.475000X-0.250000X0*%
%ADD20RoundRect,0.250000X0.250000X0.475000X-0.250000X0.475000X-0.250000X-0.475000X0.250000X-0.475000X0*%
%ADD21RoundRect,0.250000X-0.250000X-0.475000X0.250000X-0.475000X0.250000X0.475000X-0.250000X0.475000X0*%
%TA.AperFunction,Profile*%
%ADD22C,0.050000*%
%TD*%
G04 APERTURE END LIST*
D10*
%TO.C,M3*%
X118500000Y-57000000D03*
%TD*%
%TO.C,M3*%
X45500000Y-57500000D03*
%TD*%
D11*
%TO.C,VR1*%
X49000000Y-63000000D03*
X54000000Y-63000000D03*
X49000000Y-77500000D03*
X54000000Y-77500000D03*
X51500000Y-77500000D03*
D12*
X45800000Y-70000000D03*
X57200000Y-70000000D03*
%TD*%
D13*
%TO.C,SW2*%
X65325000Y-56025000D03*
X71825000Y-56025000D03*
X65325000Y-60525000D03*
X71825000Y-60525000D03*
%TD*%
D14*
%TO.C,J2*%
X67815000Y-86325000D03*
D15*
X65275000Y-86325000D03*
X67815000Y-83785000D03*
X65275000Y-83785000D03*
X67815000Y-81245000D03*
X65275000Y-81245000D03*
X67815000Y-78705000D03*
X65275000Y-78705000D03*
X67815000Y-76165000D03*
X65275000Y-76165000D03*
%TD*%
D16*
%TO.C,J1*%
X77760000Y-83325000D03*
X89000000Y-83325000D03*
D17*
X77760000Y-87325000D03*
X89000000Y-87325000D03*
%TD*%
D10*
%TO.C,M3*%
X118500000Y-86500000D03*
%TD*%
D11*
%TO.C,VR2*%
X110100000Y-63500000D03*
X115100000Y-63500000D03*
X110100000Y-78000000D03*
X115100000Y-78000000D03*
X112600000Y-78000000D03*
D12*
X106900000Y-70500000D03*
X118300000Y-70500000D03*
%TD*%
D10*
%TO.C,M3*%
X46000000Y-86500000D03*
%TD*%
D18*
%TO.C,C11*%
X81300000Y-66350000D03*
X81300000Y-68250000D03*
%TD*%
D19*
%TO.C,C1*%
X49600000Y-74575000D03*
X49600000Y-72675000D03*
%TD*%
%TO.C,C4*%
X114750000Y-75400000D03*
X114750000Y-73500000D03*
%TD*%
%TO.C,C2*%
X53075000Y-74600000D03*
X53075000Y-72700000D03*
%TD*%
%TO.C,C3*%
X110525000Y-75325000D03*
X110525000Y-73425000D03*
%TD*%
D20*
%TO.C,C5*%
X85725000Y-69625000D03*
X83825000Y-69625000D03*
%TD*%
D21*
%TO.C,C8*%
X83850000Y-72050000D03*
X85750000Y-72050000D03*
%TD*%
D20*
%TO.C,C9*%
X85650000Y-67150000D03*
X83750000Y-67150000D03*
%TD*%
D22*
X42000000Y-53500000D02*
X122000000Y-53500000D01*
X122000000Y-90500000D01*
X42000000Y-90500000D01*
X42000000Y-53500000D01*
M02*
