%TF.GenerationSoftware,KiCad,Pcbnew,9.0.0*%
%TF.CreationDate,2025-03-14T14:13:33-06:00*%
%TF.ProjectId,scrollwheel_peripheral,7363726f-6c6c-4776-9865-656c5f706572,rev?*%
%TF.SameCoordinates,Original*%
%TF.FileFunction,Legend,Top*%
%TF.FilePolarity,Positive*%
%FSLAX46Y46*%
G04 Gerber Fmt 4.6, Leading zero omitted, Abs format (unit mm)*
G04 Created by KiCad (PCBNEW 9.0.0) date 2025-03-14 14:13:33*
%MOMM*%
%LPD*%
G01*
G04 APERTURE LIST*
%ADD10C,0.100000*%
%ADD11C,0.150000*%
%ADD12C,0.254000*%
%ADD13C,0.120000*%
%ADD14C,0.200000*%
%ADD15C,0.400000*%
%TA.AperFunction,Profile*%
%ADD16C,0.050000*%
%TD*%
G04 APERTURE END LIST*
D10*
G36*
X95486318Y-88249790D02*
G01*
X96248234Y-88249790D01*
X96379027Y-88236751D01*
X96468654Y-88202716D01*
X96528462Y-88151680D01*
X96564884Y-88082238D01*
X96578084Y-87987962D01*
X96564884Y-87893686D01*
X96528462Y-87824243D01*
X96468654Y-87773208D01*
X96379027Y-87739173D01*
X96248234Y-87726133D01*
X95486318Y-87726133D01*
X95486318Y-87421318D01*
X96256172Y-87421318D01*
X96409709Y-87431870D01*
X96531922Y-87460764D01*
X96629127Y-87511876D01*
X96719012Y-87592899D01*
X96777033Y-87673987D01*
X96818980Y-87765484D01*
X96844997Y-87869316D01*
X96854078Y-87987962D01*
X96845015Y-88105885D01*
X96819026Y-88209255D01*
X96777084Y-88300516D01*
X96719012Y-88381559D01*
X96629074Y-88464077D01*
X96531922Y-88516503D01*
X96427406Y-88543504D01*
X96256172Y-88554605D01*
X95486318Y-88554605D01*
X95486318Y-88249790D01*
G37*
G36*
X94509347Y-87030530D02*
G01*
X94509347Y-86725715D01*
X95594030Y-86725715D01*
X95528248Y-86639301D01*
X95482953Y-86551083D01*
X95456200Y-86459904D01*
X95447240Y-86364235D01*
X95457029Y-86253760D01*
X95485000Y-86158686D01*
X95530255Y-86076111D01*
X95593541Y-86003977D01*
X95659317Y-85957714D01*
X95745396Y-85921931D01*
X95856732Y-85898191D01*
X95999351Y-85889427D01*
X96815000Y-85889427D01*
X96815000Y-86194242D01*
X96026950Y-86194242D01*
X95921080Y-86201948D01*
X95846403Y-86221994D01*
X95795041Y-86251151D01*
X95756739Y-86294099D01*
X95732284Y-86353210D01*
X95723234Y-86433967D01*
X95735797Y-86536629D01*
X95769614Y-86609827D01*
X95823007Y-86661357D01*
X95894420Y-86693429D01*
X96005447Y-86716566D01*
X96170565Y-86725715D01*
X96815000Y-86725715D01*
X96815000Y-87030530D01*
X94509347Y-87030530D01*
G37*
G36*
X95710900Y-84723290D02*
G01*
X95846088Y-84977547D01*
X95772897Y-85025563D01*
X95735093Y-85074856D01*
X95723234Y-85127634D01*
X95730281Y-85167347D01*
X95751200Y-85200662D01*
X95782847Y-85223255D01*
X95823007Y-85230949D01*
X95865598Y-85217090D01*
X95914932Y-85166019D01*
X95974804Y-85052651D01*
X96052206Y-84889699D01*
X96116252Y-84784619D01*
X96168977Y-84722069D01*
X96232965Y-84675891D01*
X96311402Y-84647183D01*
X96408335Y-84636950D01*
X96501711Y-84646056D01*
X96585324Y-84672598D01*
X96661275Y-84716588D01*
X96730980Y-84779588D01*
X96799113Y-84877813D01*
X96840003Y-84988100D01*
X96854078Y-85114078D01*
X96840540Y-85242510D01*
X96801900Y-85350902D01*
X96738773Y-85443555D01*
X96648649Y-85523037D01*
X96526182Y-85589863D01*
X96404672Y-85326936D01*
X96490482Y-85273067D01*
X96526182Y-85243039D01*
X96565039Y-85181333D01*
X96578084Y-85108339D01*
X96567928Y-85035634D01*
X96541405Y-84989370D01*
X96499367Y-84961659D01*
X96436057Y-84951413D01*
X96387386Y-84962558D01*
X96337278Y-84999394D01*
X96283161Y-85072435D01*
X96238098Y-85165736D01*
X96192913Y-85260502D01*
X96122555Y-85382108D01*
X96061877Y-85450034D01*
X96002831Y-85488129D01*
X95932380Y-85511769D01*
X95847554Y-85520132D01*
X95737005Y-85506442D01*
X95642683Y-85466846D01*
X95560690Y-85400575D01*
X95497794Y-85313583D01*
X95460175Y-85215823D01*
X95447240Y-85103942D01*
X95457760Y-85006802D01*
X95488182Y-84922419D01*
X95538575Y-84847935D01*
X95611327Y-84781664D01*
X95710900Y-84723290D01*
G37*
G36*
X96570146Y-83942934D02*
G01*
X95486318Y-84541817D01*
X95486318Y-84184979D01*
X96251653Y-83777581D01*
X95486318Y-83397418D01*
X95486318Y-83050226D01*
X97541866Y-84111095D01*
X97541866Y-84462561D01*
X96570146Y-83942934D01*
G37*
G36*
X95486318Y-82841277D02*
G01*
X95486318Y-82528646D01*
X95608196Y-82528646D01*
X95535809Y-82442794D01*
X95486243Y-82354621D01*
X95457033Y-82262854D01*
X95447240Y-82165701D01*
X95457220Y-82051587D01*
X95485471Y-81955404D01*
X95530739Y-81873753D01*
X95593541Y-81804221D01*
X95657837Y-81759331D01*
X95743174Y-81724367D01*
X95854865Y-81701020D01*
X95999351Y-81692358D01*
X96815000Y-81692358D01*
X96815000Y-82004989D01*
X96071646Y-82004989D01*
X95939760Y-82012764D01*
X95853408Y-82032225D01*
X95799682Y-82058967D01*
X95759438Y-82100352D01*
X95733194Y-82161860D01*
X95723234Y-82251186D01*
X95735691Y-82346848D01*
X95769646Y-82416308D01*
X95824228Y-82466364D01*
X95894622Y-82497251D01*
X96005689Y-82519716D01*
X96172641Y-82528646D01*
X96815000Y-82528646D01*
X96815000Y-82841277D01*
X95486318Y-82841277D01*
G37*
G36*
X95775502Y-80994801D02*
G01*
X96815000Y-80994801D01*
X96815000Y-81299616D01*
X95775502Y-81299616D01*
X95775502Y-81432484D01*
X95486318Y-81432484D01*
X95486318Y-81299616D01*
X94993925Y-81299616D01*
X94993925Y-80994801D01*
X95486318Y-80994801D01*
X95486318Y-80752512D01*
X95775502Y-80752512D01*
X95775502Y-80994801D01*
G37*
G36*
X94509347Y-80486775D02*
G01*
X94509347Y-80181960D01*
X95594030Y-80181960D01*
X95528248Y-80095547D01*
X95482953Y-80007328D01*
X95456200Y-79916150D01*
X95447240Y-79820481D01*
X95457029Y-79710006D01*
X95485000Y-79614932D01*
X95530255Y-79532356D01*
X95593541Y-79460223D01*
X95659317Y-79413959D01*
X95745396Y-79378176D01*
X95856732Y-79354437D01*
X95999351Y-79345673D01*
X96815000Y-79345673D01*
X96815000Y-79650488D01*
X96026950Y-79650488D01*
X95921080Y-79658194D01*
X95846403Y-79678239D01*
X95795041Y-79707397D01*
X95756739Y-79750345D01*
X95732284Y-79809455D01*
X95723234Y-79890212D01*
X95735797Y-79992875D01*
X95769614Y-80066072D01*
X95823007Y-80117602D01*
X95894420Y-80149674D01*
X96005447Y-80172812D01*
X96170565Y-80181960D01*
X96815000Y-80181960D01*
X96815000Y-80486775D01*
X94509347Y-80486775D01*
G37*
G36*
X99070900Y-87781210D02*
G01*
X99206088Y-88035467D01*
X99132897Y-88083483D01*
X99095093Y-88132777D01*
X99083234Y-88185554D01*
X99090281Y-88225267D01*
X99111200Y-88258583D01*
X99142847Y-88281176D01*
X99183007Y-88288869D01*
X99225598Y-88275010D01*
X99274932Y-88223939D01*
X99334804Y-88110572D01*
X99412206Y-87947619D01*
X99476252Y-87842540D01*
X99528977Y-87779989D01*
X99592965Y-87733812D01*
X99671402Y-87705103D01*
X99768335Y-87694870D01*
X99861711Y-87703977D01*
X99945324Y-87730518D01*
X100021275Y-87774508D01*
X100090980Y-87837508D01*
X100159113Y-87935734D01*
X100200003Y-88046021D01*
X100214078Y-88171999D01*
X100200540Y-88300431D01*
X100161900Y-88408823D01*
X100098773Y-88501476D01*
X100008649Y-88580957D01*
X99886182Y-88647784D01*
X99764672Y-88384856D01*
X99850482Y-88330988D01*
X99886182Y-88300959D01*
X99925039Y-88239254D01*
X99938084Y-88166259D01*
X99927928Y-88093555D01*
X99901405Y-88047291D01*
X99859367Y-88019579D01*
X99796057Y-88009333D01*
X99747386Y-88020478D01*
X99697278Y-88057315D01*
X99643161Y-88130355D01*
X99598098Y-88223656D01*
X99552913Y-88318422D01*
X99482555Y-88440028D01*
X99421877Y-88507955D01*
X99362831Y-88546050D01*
X99292380Y-88569689D01*
X99207554Y-88578053D01*
X99097005Y-88564363D01*
X99002683Y-88524767D01*
X98920690Y-88458496D01*
X98857794Y-88371504D01*
X98820175Y-88273743D01*
X98807240Y-88161863D01*
X98817760Y-88064723D01*
X98848182Y-87980340D01*
X98898575Y-87905855D01*
X98971327Y-87839585D01*
X99070900Y-87781210D01*
G37*
G36*
X98901029Y-86383775D02*
G01*
X99308914Y-86383775D01*
X99194176Y-86490257D01*
X99132327Y-86572208D01*
X99095963Y-86659559D01*
X99083234Y-86764794D01*
X99097102Y-86875152D01*
X99137348Y-86969905D01*
X99204989Y-87052878D01*
X99291934Y-87115980D01*
X99392284Y-87154156D01*
X99509926Y-87167428D01*
X99630589Y-87154436D01*
X99731808Y-87117406D01*
X99817794Y-87056908D01*
X99884470Y-86975690D01*
X99924302Y-86881923D01*
X99938084Y-86771632D01*
X99925758Y-86665918D01*
X99890334Y-86576360D01*
X99828996Y-86494962D01*
X99709717Y-86383775D01*
X100116625Y-86383775D01*
X100171714Y-86511315D01*
X100203632Y-86635554D01*
X100214078Y-86758077D01*
X100201042Y-86909242D01*
X100163303Y-87043747D01*
X100101531Y-87164707D01*
X100014532Y-87274406D01*
X99907502Y-87365501D01*
X99790279Y-87429603D01*
X99660668Y-87468503D01*
X99515544Y-87481891D01*
X99370545Y-87468407D01*
X99240227Y-87429115D01*
X99121556Y-87364163D01*
X99012404Y-87271598D01*
X98922517Y-87160227D01*
X98859062Y-87038640D01*
X98820503Y-86904659D01*
X98807240Y-86755268D01*
X98817675Y-86626522D01*
X98848770Y-86503223D01*
X98901029Y-86383775D01*
G37*
G36*
X98846318Y-86086775D02*
G01*
X98846318Y-85781960D01*
X98963799Y-85781960D01*
X98884554Y-85696889D01*
X98841556Y-85631629D01*
X98816246Y-85560398D01*
X98807240Y-85472993D01*
X98815553Y-85393916D01*
X98841642Y-85309753D01*
X98888206Y-85218736D01*
X99167131Y-85359542D01*
X99118946Y-85448778D01*
X99104239Y-85530390D01*
X99113969Y-85604444D01*
X99141430Y-85663149D01*
X99186881Y-85710289D01*
X99254224Y-85747168D01*
X99350353Y-85772356D01*
X99484403Y-85781960D01*
X100175000Y-85781960D01*
X100175000Y-86086775D01*
X98846318Y-86086775D01*
G37*
G36*
X99657269Y-83718276D02*
G01*
X99787662Y-83757074D01*
X99905568Y-83820966D01*
X100013189Y-83911671D01*
X100101120Y-84021691D01*
X100163270Y-84141913D01*
X100201070Y-84274488D01*
X100214078Y-84422383D01*
X100200817Y-84568540D01*
X100162305Y-84699080D01*
X100098926Y-84817097D01*
X100009036Y-84924790D01*
X99901734Y-85013181D01*
X99782909Y-85075855D01*
X99650217Y-85114147D01*
X99500401Y-85127390D01*
X99360304Y-85114224D01*
X99233567Y-85075741D01*
X99117331Y-85011906D01*
X99009595Y-84920638D01*
X98920734Y-84811122D01*
X98858171Y-84692176D01*
X98820254Y-84561725D01*
X98807240Y-84416887D01*
X99083234Y-84416887D01*
X99096903Y-84529653D01*
X99136033Y-84623702D01*
X99200837Y-84703384D01*
X99284994Y-84763269D01*
X99384787Y-84800004D01*
X99504553Y-84812927D01*
X99633624Y-84799942D01*
X99737084Y-84763745D01*
X99820481Y-84706071D01*
X99885148Y-84626327D01*
X99924345Y-84531445D01*
X99938084Y-84416887D01*
X99924406Y-84301293D01*
X99885567Y-84206486D01*
X99821824Y-84127704D01*
X99738423Y-84068942D01*
X99636638Y-84032396D01*
X99511392Y-84019382D01*
X99386063Y-84032399D01*
X99284240Y-84068947D01*
X99200837Y-84127704D01*
X99136181Y-84207375D01*
X99096979Y-84302251D01*
X99083234Y-84416887D01*
X98807240Y-84416887D01*
X98820339Y-84271363D01*
X98858515Y-84140221D01*
X98921527Y-84020569D01*
X99011060Y-83910327D01*
X99119282Y-83820074D01*
X99237165Y-83756599D01*
X99366831Y-83718133D01*
X99511270Y-83704919D01*
X99657269Y-83718276D01*
G37*
G36*
X97869347Y-83077704D02*
G01*
X100175000Y-83077704D01*
X100175000Y-83382519D01*
X97869347Y-83382519D01*
X97869347Y-83077704D01*
G37*
G36*
X97869347Y-82382100D02*
G01*
X100175000Y-82382100D01*
X100175000Y-82686915D01*
X97869347Y-82686915D01*
X97869347Y-82382100D01*
G37*
G36*
X98846318Y-81825715D02*
G01*
X99605914Y-81477180D01*
X98724685Y-81101168D01*
X99605914Y-80722470D01*
X98846318Y-80377965D01*
X98846318Y-80033339D01*
X100276849Y-80730652D01*
X99420167Y-81101168D01*
X100276849Y-81475715D01*
X98846318Y-82171685D01*
X98846318Y-81825715D01*
G37*
G36*
X97869347Y-79824389D02*
G01*
X97869347Y-79519574D01*
X98954030Y-79519574D01*
X98888248Y-79433160D01*
X98842953Y-79344942D01*
X98816200Y-79253763D01*
X98807240Y-79158094D01*
X98817029Y-79047619D01*
X98845000Y-78952545D01*
X98890255Y-78869970D01*
X98953541Y-78797836D01*
X99019317Y-78751573D01*
X99105396Y-78715790D01*
X99216732Y-78692050D01*
X99359351Y-78683286D01*
X100175000Y-78683286D01*
X100175000Y-78988101D01*
X99386950Y-78988101D01*
X99281080Y-78995807D01*
X99206403Y-79015853D01*
X99155041Y-79045010D01*
X99116739Y-79087958D01*
X99092284Y-79147069D01*
X99083234Y-79227826D01*
X99095797Y-79330488D01*
X99129614Y-79403686D01*
X99183007Y-79455216D01*
X99254420Y-79487288D01*
X99365447Y-79510425D01*
X99530565Y-79519574D01*
X100175000Y-79519574D01*
X100175000Y-79824389D01*
X97869347Y-79824389D01*
G37*
G36*
X99923393Y-77130054D02*
G01*
X100002076Y-77193771D01*
X100069694Y-77263970D01*
X100122854Y-77337264D01*
X100163787Y-77416632D01*
X100192096Y-77502494D01*
X100208406Y-77593401D01*
X100214078Y-77694958D01*
X100201272Y-77841127D01*
X100164669Y-77967167D01*
X100105453Y-78076835D01*
X100022714Y-78172819D01*
X99921496Y-78249823D01*
X99804648Y-78305785D01*
X99669200Y-78340761D01*
X99511270Y-78353070D01*
X99354648Y-78341171D01*
X99219522Y-78307295D01*
X99102266Y-78253043D01*
X99000069Y-78178436D01*
X98916429Y-78084354D01*
X98856813Y-77977159D01*
X98820073Y-77854253D01*
X98807240Y-77711933D01*
X98807893Y-77704483D01*
X99083234Y-77704483D01*
X99087612Y-77759184D01*
X99100453Y-77809630D01*
X99121390Y-77856659D01*
X99149912Y-77899145D01*
X99185359Y-77936382D01*
X99227704Y-77968143D01*
X99275543Y-77993046D01*
X99330896Y-78011741D01*
X99330896Y-77394539D01*
X99237985Y-77429384D01*
X99170396Y-77476761D01*
X99123069Y-77536530D01*
X99093726Y-77610984D01*
X99083234Y-77704483D01*
X98807893Y-77704483D01*
X98819872Y-77567793D01*
X98855804Y-77444938D01*
X98913656Y-77339368D01*
X98994207Y-77248237D01*
X99091161Y-77177026D01*
X99206641Y-77124410D01*
X99344284Y-77091005D01*
X99508705Y-77079099D01*
X99581001Y-77079099D01*
X99581001Y-78032135D01*
X99686635Y-78013856D01*
X99772456Y-77978077D01*
X99842341Y-77925645D01*
X99895099Y-77857715D01*
X99926974Y-77778333D01*
X99938084Y-77684089D01*
X99931514Y-77609292D01*
X99912980Y-77546781D01*
X99883374Y-77494190D01*
X99813853Y-77422505D01*
X99680896Y-77326273D01*
X99825854Y-77066765D01*
X99923393Y-77130054D01*
G37*
G36*
X99923393Y-75582532D02*
G01*
X100002076Y-75646249D01*
X100069694Y-75716447D01*
X100122854Y-75789741D01*
X100163787Y-75869109D01*
X100192096Y-75954972D01*
X100208406Y-76045879D01*
X100214078Y-76147435D01*
X100201272Y-76293605D01*
X100164669Y-76419644D01*
X100105453Y-76529312D01*
X100022714Y-76625296D01*
X99921496Y-76702300D01*
X99804648Y-76758263D01*
X99669200Y-76793238D01*
X99511270Y-76805547D01*
X99354648Y-76793648D01*
X99219522Y-76759772D01*
X99102266Y-76705521D01*
X99000069Y-76630914D01*
X98916429Y-76536832D01*
X98856813Y-76429636D01*
X98820073Y-76306730D01*
X98807240Y-76164410D01*
X98807893Y-76156960D01*
X99083234Y-76156960D01*
X99087612Y-76211661D01*
X99100453Y-76262107D01*
X99121390Y-76309136D01*
X99149912Y-76351622D01*
X99185359Y-76388860D01*
X99227704Y-76420621D01*
X99275543Y-76445523D01*
X99330896Y-76464218D01*
X99330896Y-75847016D01*
X99237985Y-75881861D01*
X99170396Y-75929238D01*
X99123069Y-75989007D01*
X99093726Y-76063461D01*
X99083234Y-76156960D01*
X98807893Y-76156960D01*
X98819872Y-76020270D01*
X98855804Y-75897415D01*
X98913656Y-75791846D01*
X98994207Y-75700715D01*
X99091161Y-75629503D01*
X99206641Y-75576888D01*
X99344284Y-75543482D01*
X99508705Y-75531577D01*
X99581001Y-75531577D01*
X99581001Y-76484612D01*
X99686635Y-76466333D01*
X99772456Y-76430555D01*
X99842341Y-76378122D01*
X99895099Y-76310192D01*
X99926974Y-76230811D01*
X99938084Y-76136566D01*
X99931514Y-76061770D01*
X99912980Y-75999258D01*
X99883374Y-75946667D01*
X99813853Y-75874982D01*
X99680896Y-75778750D01*
X99825854Y-75519242D01*
X99923393Y-75582532D01*
G37*
G36*
X97869347Y-74890683D02*
G01*
X100175000Y-74890683D01*
X100175000Y-75195498D01*
X97869347Y-75195498D01*
X97869347Y-74890683D01*
G37*
G36*
X99667838Y-72294182D02*
G01*
X99798034Y-72328454D01*
X99914232Y-72384163D01*
X100018684Y-72461933D01*
X100105776Y-72557645D01*
X100166808Y-72662980D01*
X100203785Y-72780014D01*
X100216521Y-72911828D01*
X100205068Y-73024547D01*
X100170935Y-73130747D01*
X100113032Y-73232546D01*
X100028454Y-73331437D01*
X100901866Y-73331437D01*
X100901866Y-73636252D01*
X98846318Y-73636252D01*
X98846318Y-73331437D01*
X98992254Y-73331437D01*
X98911739Y-73234335D01*
X98856376Y-73133989D01*
X98823625Y-73028953D01*
X98817571Y-72967515D01*
X99088607Y-72967515D01*
X99102151Y-73075788D01*
X99141051Y-73166390D01*
X99205844Y-73243510D01*
X99289581Y-73300897D01*
X99390677Y-73336508D01*
X99513834Y-73349145D01*
X99634436Y-73336671D01*
X99735785Y-73301165D01*
X99821946Y-73243387D01*
X99887493Y-73167060D01*
X99926822Y-73076984D01*
X99940526Y-72968859D01*
X99926965Y-72867152D01*
X99887490Y-72780057D01*
X99820603Y-72703855D01*
X99735310Y-72645037D01*
X99636576Y-72609237D01*
X99520673Y-72596755D01*
X99397296Y-72609208D01*
X99295183Y-72644395D01*
X99209874Y-72701168D01*
X99142128Y-72778289D01*
X99102264Y-72865854D01*
X99088607Y-72967515D01*
X98817571Y-72967515D01*
X98812613Y-72917201D01*
X98825641Y-72783486D01*
X98863415Y-72665252D01*
X98925710Y-72559274D01*
X99014602Y-72463398D01*
X99119724Y-72385188D01*
X99237398Y-72329008D01*
X99370003Y-72294347D01*
X99520673Y-72282292D01*
X99667838Y-72294182D01*
G37*
G36*
X99923393Y-70797326D02*
G01*
X100002076Y-70861043D01*
X100069694Y-70931241D01*
X100122854Y-71004535D01*
X100163787Y-71083904D01*
X100192096Y-71169766D01*
X100208406Y-71260673D01*
X100214078Y-71362229D01*
X100201272Y-71508399D01*
X100164669Y-71634438D01*
X100105453Y-71744106D01*
X100022714Y-71840090D01*
X99921496Y-71917095D01*
X99804648Y-71973057D01*
X99669200Y-72008032D01*
X99511270Y-72020341D01*
X99354648Y-72008442D01*
X99219522Y-71974566D01*
X99102266Y-71920315D01*
X99000069Y-71845708D01*
X98916429Y-71751626D01*
X98856813Y-71644430D01*
X98820073Y-71521524D01*
X98807240Y-71379204D01*
X98807893Y-71371755D01*
X99083234Y-71371755D01*
X99087612Y-71426455D01*
X99100453Y-71476901D01*
X99121390Y-71523930D01*
X99149912Y-71566416D01*
X99185359Y-71603654D01*
X99227704Y-71635415D01*
X99275543Y-71660317D01*
X99330896Y-71679012D01*
X99330896Y-71061810D01*
X99237985Y-71096655D01*
X99170396Y-71144033D01*
X99123069Y-71203801D01*
X99093726Y-71278255D01*
X99083234Y-71371755D01*
X98807893Y-71371755D01*
X98819872Y-71235064D01*
X98855804Y-71112209D01*
X98913656Y-71006640D01*
X98994207Y-70915509D01*
X99091161Y-70844297D01*
X99206641Y-70791682D01*
X99344284Y-70758276D01*
X99508705Y-70746371D01*
X99581001Y-70746371D01*
X99581001Y-71699406D01*
X99686635Y-71681128D01*
X99772456Y-71645349D01*
X99842341Y-71592916D01*
X99895099Y-71524986D01*
X99926974Y-71445605D01*
X99938084Y-71351360D01*
X99931514Y-71276564D01*
X99912980Y-71214052D01*
X99883374Y-71161461D01*
X99813853Y-71089776D01*
X99680896Y-70993545D01*
X99825854Y-70734036D01*
X99923393Y-70797326D01*
G37*
G36*
X98846318Y-70410293D02*
G01*
X98846318Y-70105478D01*
X98963799Y-70105478D01*
X98884554Y-70020406D01*
X98841556Y-69955146D01*
X98816246Y-69883915D01*
X98807240Y-69796510D01*
X98815553Y-69717433D01*
X98841642Y-69633270D01*
X98888206Y-69542254D01*
X99167131Y-69683060D01*
X99118946Y-69772296D01*
X99104239Y-69853907D01*
X99113969Y-69927961D01*
X99141430Y-69986666D01*
X99186881Y-70033807D01*
X99254224Y-70070685D01*
X99350353Y-70095873D01*
X99484403Y-70105478D01*
X100175000Y-70105478D01*
X100175000Y-70410293D01*
X98846318Y-70410293D01*
G37*
G36*
X98846318Y-69017131D02*
G01*
X100175000Y-69017131D01*
X100175000Y-69321946D01*
X98846318Y-69321946D01*
X98846318Y-69017131D01*
G37*
G36*
X98293230Y-69368841D02*
G01*
X98218705Y-69354332D01*
X98154501Y-69310345D01*
X98110581Y-69245935D01*
X98096004Y-69170150D01*
X98110647Y-69093230D01*
X98154501Y-69028733D01*
X98195621Y-68996143D01*
X98241745Y-68976845D01*
X98294574Y-68970237D01*
X98371515Y-68984875D01*
X98436113Y-69028733D01*
X98468692Y-69069781D01*
X98487995Y-69115901D01*
X98494609Y-69168806D01*
X98479970Y-69245747D01*
X98436113Y-69310345D01*
X98394134Y-69342904D01*
X98347073Y-69362222D01*
X98293230Y-69368841D01*
G37*
G36*
X99667838Y-67284273D02*
G01*
X99798034Y-67318545D01*
X99914232Y-67374254D01*
X100018684Y-67452023D01*
X100105776Y-67547736D01*
X100166808Y-67653071D01*
X100203785Y-67770105D01*
X100216521Y-67901919D01*
X100205068Y-68014638D01*
X100170935Y-68120837D01*
X100113032Y-68222637D01*
X100028454Y-68321528D01*
X100901866Y-68321528D01*
X100901866Y-68626343D01*
X98846318Y-68626343D01*
X98846318Y-68321528D01*
X98992254Y-68321528D01*
X98911739Y-68224425D01*
X98856376Y-68124080D01*
X98823625Y-68019044D01*
X98817571Y-67957606D01*
X99088607Y-67957606D01*
X99102151Y-68065879D01*
X99141051Y-68156481D01*
X99205844Y-68233600D01*
X99289581Y-68290988D01*
X99390677Y-68326599D01*
X99513834Y-68339235D01*
X99634436Y-68326762D01*
X99735785Y-68291255D01*
X99821946Y-68233478D01*
X99887493Y-68157151D01*
X99926822Y-68067074D01*
X99940526Y-67958949D01*
X99926965Y-67857243D01*
X99887490Y-67770148D01*
X99820603Y-67693946D01*
X99735310Y-67635128D01*
X99636576Y-67599328D01*
X99520673Y-67586845D01*
X99397296Y-67599299D01*
X99295183Y-67634485D01*
X99209874Y-67691259D01*
X99142128Y-67768380D01*
X99102264Y-67855945D01*
X99088607Y-67957606D01*
X98817571Y-67957606D01*
X98812613Y-67907292D01*
X98825641Y-67773577D01*
X98863415Y-67655343D01*
X98925710Y-67549365D01*
X99014602Y-67453489D01*
X99119724Y-67375279D01*
X99237398Y-67319098D01*
X99370003Y-67284437D01*
X99520673Y-67272383D01*
X99667838Y-67284273D01*
G37*
G36*
X97869347Y-66947906D02*
G01*
X97869347Y-66643091D01*
X98954030Y-66643091D01*
X98888248Y-66556677D01*
X98842953Y-66468459D01*
X98816200Y-66377280D01*
X98807240Y-66281612D01*
X98817029Y-66171136D01*
X98845000Y-66076062D01*
X98890255Y-65993487D01*
X98953541Y-65921353D01*
X99019317Y-65875090D01*
X99105396Y-65839307D01*
X99216732Y-65815567D01*
X99359351Y-65806803D01*
X100175000Y-65806803D01*
X100175000Y-66111618D01*
X99386950Y-66111618D01*
X99281080Y-66119324D01*
X99206403Y-66139370D01*
X99155041Y-66168527D01*
X99116739Y-66211475D01*
X99092284Y-66270586D01*
X99083234Y-66351343D01*
X99095797Y-66454005D01*
X99129614Y-66527203D01*
X99183007Y-66578733D01*
X99254420Y-66610805D01*
X99365447Y-66633942D01*
X99530565Y-66643091D01*
X100175000Y-66643091D01*
X100175000Y-66947906D01*
X97869347Y-66947906D01*
G37*
G36*
X99923393Y-64253572D02*
G01*
X100002076Y-64317288D01*
X100069694Y-64387487D01*
X100122854Y-64460781D01*
X100163787Y-64540149D01*
X100192096Y-64626011D01*
X100208406Y-64716918D01*
X100214078Y-64818475D01*
X100201272Y-64964645D01*
X100164669Y-65090684D01*
X100105453Y-65200352D01*
X100022714Y-65296336D01*
X99921496Y-65373340D01*
X99804648Y-65429302D01*
X99669200Y-65464278D01*
X99511270Y-65476587D01*
X99354648Y-65464688D01*
X99219522Y-65430812D01*
X99102266Y-65376561D01*
X99000069Y-65301953D01*
X98916429Y-65207871D01*
X98856813Y-65100676D01*
X98820073Y-64977770D01*
X98807240Y-64835450D01*
X98807893Y-64828000D01*
X99083234Y-64828000D01*
X99087612Y-64882701D01*
X99100453Y-64933147D01*
X99121390Y-64980176D01*
X99149912Y-65022662D01*
X99185359Y-65059899D01*
X99227704Y-65091660D01*
X99275543Y-65116563D01*
X99330896Y-65135258D01*
X99330896Y-64518056D01*
X99237985Y-64552901D01*
X99170396Y-64600278D01*
X99123069Y-64660047D01*
X99093726Y-64734501D01*
X99083234Y-64828000D01*
X98807893Y-64828000D01*
X98819872Y-64691310D01*
X98855804Y-64568455D01*
X98913656Y-64462885D01*
X98994207Y-64371755D01*
X99091161Y-64300543D01*
X99206641Y-64247928D01*
X99344284Y-64214522D01*
X99508705Y-64202616D01*
X99581001Y-64202616D01*
X99581001Y-65155652D01*
X99686635Y-65137373D01*
X99772456Y-65101594D01*
X99842341Y-65049162D01*
X99895099Y-64981232D01*
X99926974Y-64901850D01*
X99938084Y-64807606D01*
X99931514Y-64732810D01*
X99912980Y-64670298D01*
X99883374Y-64617707D01*
X99813853Y-64546022D01*
X99680896Y-64449790D01*
X99825854Y-64190282D01*
X99923393Y-64253572D01*
G37*
G36*
X98846318Y-63866538D02*
G01*
X98846318Y-63561723D01*
X98963799Y-63561723D01*
X98884554Y-63476652D01*
X98841556Y-63411392D01*
X98816246Y-63340161D01*
X98807240Y-63252756D01*
X98815553Y-63173679D01*
X98841642Y-63089515D01*
X98888206Y-62998499D01*
X99167131Y-63139305D01*
X99118946Y-63228541D01*
X99104239Y-63310153D01*
X99113969Y-63384207D01*
X99141430Y-63442912D01*
X99186881Y-63490052D01*
X99254224Y-63526931D01*
X99350353Y-63552118D01*
X99484403Y-63561723D01*
X100175000Y-63561723D01*
X100175000Y-63866538D01*
X98846318Y-63866538D01*
G37*
G36*
X100175000Y-61857519D02*
G01*
X100035293Y-61857519D01*
X100116380Y-61958511D01*
X100171401Y-62059262D01*
X100203456Y-62161154D01*
X100214078Y-62266015D01*
X100201204Y-62400054D01*
X100163856Y-62518869D01*
X100102285Y-62625602D01*
X100014532Y-62722383D01*
X99907990Y-62799694D01*
X99789342Y-62855208D01*
X99656305Y-62889415D01*
X99505896Y-62901290D01*
X99358369Y-62889438D01*
X99227889Y-62855284D01*
X99111488Y-62799794D01*
X99006908Y-62722383D01*
X98918766Y-62626181D01*
X98857198Y-62520945D01*
X98820014Y-62404660D01*
X98807240Y-62274319D01*
X98813228Y-62216678D01*
X99083234Y-62216678D01*
X99096717Y-62316987D01*
X99136213Y-62404159D01*
X99203524Y-62481681D01*
X99289801Y-62539455D01*
X99388967Y-62574599D01*
X99504553Y-62586828D01*
X99628496Y-62574588D01*
X99730978Y-62540055D01*
X99816451Y-62484490D01*
X99884453Y-62407660D01*
X99924408Y-62320538D01*
X99938084Y-62219487D01*
X99924475Y-62110854D01*
X99885439Y-62020281D01*
X99820481Y-61943492D01*
X99734051Y-61886074D01*
X99632373Y-61850757D01*
X99511392Y-61838346D01*
X99390329Y-61850759D01*
X99288612Y-61886079D01*
X99202180Y-61943492D01*
X99136264Y-62020315D01*
X99096893Y-62110012D01*
X99083234Y-62216678D01*
X98813228Y-62216678D01*
X98818820Y-62162850D01*
X98853400Y-62057551D01*
X98912237Y-61956273D01*
X98998482Y-61857519D01*
X98846318Y-61857519D01*
X98846318Y-61549162D01*
X100175000Y-61549162D01*
X100175000Y-61857519D01*
G37*
G36*
X97869347Y-60855512D02*
G01*
X100175000Y-60855512D01*
X100175000Y-61160327D01*
X97869347Y-61160327D01*
X97869347Y-60855512D01*
G37*
G36*
X102206318Y-88554605D02*
G01*
X102206318Y-88249790D01*
X102323799Y-88249790D01*
X102244554Y-88164719D01*
X102201556Y-88099459D01*
X102176246Y-88028228D01*
X102167240Y-87940823D01*
X102175553Y-87861746D01*
X102201642Y-87777582D01*
X102248206Y-87686566D01*
X102527131Y-87827372D01*
X102478946Y-87916608D01*
X102464239Y-87998220D01*
X102473969Y-88072274D01*
X102501430Y-88130979D01*
X102546881Y-88178119D01*
X102614224Y-88214998D01*
X102710353Y-88240185D01*
X102844403Y-88249790D01*
X103535000Y-88249790D01*
X103535000Y-88554605D01*
X102206318Y-88554605D01*
G37*
G36*
X103283393Y-86366342D02*
G01*
X103362076Y-86430059D01*
X103429694Y-86500257D01*
X103482854Y-86573551D01*
X103523787Y-86652920D01*
X103552096Y-86738782D01*
X103568406Y-86829689D01*
X103574078Y-86931245D01*
X103561272Y-87077415D01*
X103524669Y-87203454D01*
X103465453Y-87313122D01*
X103382714Y-87409106D01*
X103281496Y-87486111D01*
X103164648Y-87542073D01*
X103029200Y-87577049D01*
X102871270Y-87589357D01*
X102714648Y-87577458D01*
X102579522Y-87543582D01*
X102462266Y-87489331D01*
X102360069Y-87414724D01*
X102276429Y-87320642D01*
X102216813Y-87213446D01*
X102180073Y-87090541D01*
X102167240Y-86948220D01*
X102167893Y-86940771D01*
X102443234Y-86940771D01*
X102447612Y-86995471D01*
X102460453Y-87045917D01*
X102481390Y-87092946D01*
X102509912Y-87135432D01*
X102545359Y-87172670D01*
X102587704Y-87204431D01*
X102635543Y-87229333D01*
X102690896Y-87248028D01*
X102690896Y-86630826D01*
X102597985Y-86665671D01*
X102530396Y-86713049D01*
X102483069Y-86772817D01*
X102453726Y-86847272D01*
X102443234Y-86940771D01*
X102167893Y-86940771D01*
X102179872Y-86804080D01*
X102215804Y-86681225D01*
X102273656Y-86575656D01*
X102354207Y-86484525D01*
X102451161Y-86413313D01*
X102566641Y-86360698D01*
X102704284Y-86327292D01*
X102868705Y-86315387D01*
X102941001Y-86315387D01*
X102941001Y-87268422D01*
X103046635Y-87250144D01*
X103132456Y-87214365D01*
X103202341Y-87161933D01*
X103255099Y-87094002D01*
X103286974Y-87014621D01*
X103298084Y-86920376D01*
X103291514Y-86845580D01*
X103272980Y-86783068D01*
X103243374Y-86730478D01*
X103173853Y-86658792D01*
X103040896Y-86562561D01*
X103185854Y-86303053D01*
X103283393Y-86366342D01*
G37*
G36*
X102206318Y-85862072D02*
G01*
X102953702Y-85517445D01*
X102206318Y-85174284D01*
X102206318Y-84828436D01*
X103628667Y-85520254D01*
X102206318Y-86206577D01*
X102206318Y-85862072D01*
G37*
G36*
X101721741Y-83192986D02*
G01*
X101721741Y-83558007D01*
X101424741Y-83383007D01*
X101424741Y-82878524D01*
X103535000Y-82878524D01*
X103535000Y-83192986D01*
X101721741Y-83192986D01*
G37*
D11*
X114454819Y-57109523D02*
X113454819Y-57109523D01*
X113454819Y-57109523D02*
X114169104Y-56776190D01*
X114169104Y-56776190D02*
X113454819Y-56442857D01*
X113454819Y-56442857D02*
X114454819Y-56442857D01*
X113454819Y-56061904D02*
X113454819Y-55442857D01*
X113454819Y-55442857D02*
X113835771Y-55776190D01*
X113835771Y-55776190D02*
X113835771Y-55633333D01*
X113835771Y-55633333D02*
X113883390Y-55538095D01*
X113883390Y-55538095D02*
X113931009Y-55490476D01*
X113931009Y-55490476D02*
X114026247Y-55442857D01*
X114026247Y-55442857D02*
X114264342Y-55442857D01*
X114264342Y-55442857D02*
X114359580Y-55490476D01*
X114359580Y-55490476D02*
X114407200Y-55538095D01*
X114407200Y-55538095D02*
X114454819Y-55633333D01*
X114454819Y-55633333D02*
X114454819Y-55919047D01*
X114454819Y-55919047D02*
X114407200Y-56014285D01*
X114407200Y-56014285D02*
X114359580Y-56061904D01*
X73579819Y-63454166D02*
X73103628Y-63787499D01*
X73579819Y-64025594D02*
X72579819Y-64025594D01*
X72579819Y-64025594D02*
X72579819Y-63644642D01*
X72579819Y-63644642D02*
X72627438Y-63549404D01*
X72627438Y-63549404D02*
X72675057Y-63501785D01*
X72675057Y-63501785D02*
X72770295Y-63454166D01*
X72770295Y-63454166D02*
X72913152Y-63454166D01*
X72913152Y-63454166D02*
X73008390Y-63501785D01*
X73008390Y-63501785D02*
X73056009Y-63549404D01*
X73056009Y-63549404D02*
X73103628Y-63644642D01*
X73103628Y-63644642D02*
X73103628Y-64025594D01*
X72579819Y-62549404D02*
X72579819Y-63025594D01*
X72579819Y-63025594D02*
X73056009Y-63073213D01*
X73056009Y-63073213D02*
X73008390Y-63025594D01*
X73008390Y-63025594D02*
X72960771Y-62930356D01*
X72960771Y-62930356D02*
X72960771Y-62692261D01*
X72960771Y-62692261D02*
X73008390Y-62597023D01*
X73008390Y-62597023D02*
X73056009Y-62549404D01*
X73056009Y-62549404D02*
X73151247Y-62501785D01*
X73151247Y-62501785D02*
X73389342Y-62501785D01*
X73389342Y-62501785D02*
X73484580Y-62549404D01*
X73484580Y-62549404D02*
X73532200Y-62597023D01*
X73532200Y-62597023D02*
X73579819Y-62692261D01*
X73579819Y-62692261D02*
X73579819Y-62930356D01*
X73579819Y-62930356D02*
X73532200Y-63025594D01*
X73532200Y-63025594D02*
X73484580Y-63073213D01*
X50154819Y-58309523D02*
X49154819Y-58309523D01*
X49154819Y-58309523D02*
X49869104Y-57976190D01*
X49869104Y-57976190D02*
X49154819Y-57642857D01*
X49154819Y-57642857D02*
X50154819Y-57642857D01*
X49154819Y-57261904D02*
X49154819Y-56642857D01*
X49154819Y-56642857D02*
X49535771Y-56976190D01*
X49535771Y-56976190D02*
X49535771Y-56833333D01*
X49535771Y-56833333D02*
X49583390Y-56738095D01*
X49583390Y-56738095D02*
X49631009Y-56690476D01*
X49631009Y-56690476D02*
X49726247Y-56642857D01*
X49726247Y-56642857D02*
X49964342Y-56642857D01*
X49964342Y-56642857D02*
X50059580Y-56690476D01*
X50059580Y-56690476D02*
X50107200Y-56738095D01*
X50107200Y-56738095D02*
X50154819Y-56833333D01*
X50154819Y-56833333D02*
X50154819Y-57119047D01*
X50154819Y-57119047D02*
X50107200Y-57214285D01*
X50107200Y-57214285D02*
X50059580Y-57261904D01*
D12*
X49836905Y-69554318D02*
X50260238Y-70824318D01*
X50260238Y-70824318D02*
X50683572Y-69554318D01*
X51832619Y-70824318D02*
X51409285Y-70219556D01*
X51106904Y-70824318D02*
X51106904Y-69554318D01*
X51106904Y-69554318D02*
X51590714Y-69554318D01*
X51590714Y-69554318D02*
X51711666Y-69614794D01*
X51711666Y-69614794D02*
X51772143Y-69675270D01*
X51772143Y-69675270D02*
X51832619Y-69796222D01*
X51832619Y-69796222D02*
X51832619Y-69977651D01*
X51832619Y-69977651D02*
X51772143Y-70098603D01*
X51772143Y-70098603D02*
X51711666Y-70159080D01*
X51711666Y-70159080D02*
X51590714Y-70219556D01*
X51590714Y-70219556D02*
X51106904Y-70219556D01*
X53042143Y-70824318D02*
X52316428Y-70824318D01*
X52679285Y-70824318D02*
X52679285Y-69554318D01*
X52679285Y-69554318D02*
X52558333Y-69735746D01*
X52558333Y-69735746D02*
X52437381Y-69856699D01*
X52437381Y-69856699D02*
X52316428Y-69917175D01*
D11*
X67216667Y-58657200D02*
X67359524Y-58704819D01*
X67359524Y-58704819D02*
X67597619Y-58704819D01*
X67597619Y-58704819D02*
X67692857Y-58657200D01*
X67692857Y-58657200D02*
X67740476Y-58609580D01*
X67740476Y-58609580D02*
X67788095Y-58514342D01*
X67788095Y-58514342D02*
X67788095Y-58419104D01*
X67788095Y-58419104D02*
X67740476Y-58323866D01*
X67740476Y-58323866D02*
X67692857Y-58276247D01*
X67692857Y-58276247D02*
X67597619Y-58228628D01*
X67597619Y-58228628D02*
X67407143Y-58181009D01*
X67407143Y-58181009D02*
X67311905Y-58133390D01*
X67311905Y-58133390D02*
X67264286Y-58085771D01*
X67264286Y-58085771D02*
X67216667Y-57990533D01*
X67216667Y-57990533D02*
X67216667Y-57895295D01*
X67216667Y-57895295D02*
X67264286Y-57800057D01*
X67264286Y-57800057D02*
X67311905Y-57752438D01*
X67311905Y-57752438D02*
X67407143Y-57704819D01*
X67407143Y-57704819D02*
X67645238Y-57704819D01*
X67645238Y-57704819D02*
X67788095Y-57752438D01*
X68121429Y-57704819D02*
X68359524Y-58704819D01*
X68359524Y-58704819D02*
X68550000Y-57990533D01*
X68550000Y-57990533D02*
X68740476Y-58704819D01*
X68740476Y-58704819D02*
X68978572Y-57704819D01*
X69311905Y-57800057D02*
X69359524Y-57752438D01*
X69359524Y-57752438D02*
X69454762Y-57704819D01*
X69454762Y-57704819D02*
X69692857Y-57704819D01*
X69692857Y-57704819D02*
X69788095Y-57752438D01*
X69788095Y-57752438D02*
X69835714Y-57800057D01*
X69835714Y-57800057D02*
X69883333Y-57895295D01*
X69883333Y-57895295D02*
X69883333Y-57990533D01*
X69883333Y-57990533D02*
X69835714Y-58133390D01*
X69835714Y-58133390D02*
X69264286Y-58704819D01*
X69264286Y-58704819D02*
X69883333Y-58704819D01*
X66211666Y-88109819D02*
X66211666Y-88824104D01*
X66211666Y-88824104D02*
X66164047Y-88966961D01*
X66164047Y-88966961D02*
X66068809Y-89062200D01*
X66068809Y-89062200D02*
X65925952Y-89109819D01*
X65925952Y-89109819D02*
X65830714Y-89109819D01*
X66640238Y-88205057D02*
X66687857Y-88157438D01*
X66687857Y-88157438D02*
X66783095Y-88109819D01*
X66783095Y-88109819D02*
X67021190Y-88109819D01*
X67021190Y-88109819D02*
X67116428Y-88157438D01*
X67116428Y-88157438D02*
X67164047Y-88205057D01*
X67164047Y-88205057D02*
X67211666Y-88300295D01*
X67211666Y-88300295D02*
X67211666Y-88395533D01*
X67211666Y-88395533D02*
X67164047Y-88538390D01*
X67164047Y-88538390D02*
X66592619Y-89109819D01*
X66592619Y-89109819D02*
X67211666Y-89109819D01*
D12*
X82956667Y-84829318D02*
X82956667Y-85736461D01*
X82956667Y-85736461D02*
X82896190Y-85917889D01*
X82896190Y-85917889D02*
X82775238Y-86038842D01*
X82775238Y-86038842D02*
X82593809Y-86099318D01*
X82593809Y-86099318D02*
X82472857Y-86099318D01*
X84226667Y-86099318D02*
X83500952Y-86099318D01*
X83863809Y-86099318D02*
X83863809Y-84829318D01*
X83863809Y-84829318D02*
X83742857Y-85010746D01*
X83742857Y-85010746D02*
X83621905Y-85131699D01*
X83621905Y-85131699D02*
X83500952Y-85192175D01*
D11*
X114754819Y-87309523D02*
X113754819Y-87309523D01*
X113754819Y-87309523D02*
X114469104Y-86976190D01*
X114469104Y-86976190D02*
X113754819Y-86642857D01*
X113754819Y-86642857D02*
X114754819Y-86642857D01*
X113754819Y-86261904D02*
X113754819Y-85642857D01*
X113754819Y-85642857D02*
X114135771Y-85976190D01*
X114135771Y-85976190D02*
X114135771Y-85833333D01*
X114135771Y-85833333D02*
X114183390Y-85738095D01*
X114183390Y-85738095D02*
X114231009Y-85690476D01*
X114231009Y-85690476D02*
X114326247Y-85642857D01*
X114326247Y-85642857D02*
X114564342Y-85642857D01*
X114564342Y-85642857D02*
X114659580Y-85690476D01*
X114659580Y-85690476D02*
X114707200Y-85738095D01*
X114707200Y-85738095D02*
X114754819Y-85833333D01*
X114754819Y-85833333D02*
X114754819Y-86119047D01*
X114754819Y-86119047D02*
X114707200Y-86214285D01*
X114707200Y-86214285D02*
X114659580Y-86261904D01*
X93608333Y-78604819D02*
X93275000Y-78128628D01*
X93036905Y-78604819D02*
X93036905Y-77604819D01*
X93036905Y-77604819D02*
X93417857Y-77604819D01*
X93417857Y-77604819D02*
X93513095Y-77652438D01*
X93513095Y-77652438D02*
X93560714Y-77700057D01*
X93560714Y-77700057D02*
X93608333Y-77795295D01*
X93608333Y-77795295D02*
X93608333Y-77938152D01*
X93608333Y-77938152D02*
X93560714Y-78033390D01*
X93560714Y-78033390D02*
X93513095Y-78081009D01*
X93513095Y-78081009D02*
X93417857Y-78128628D01*
X93417857Y-78128628D02*
X93036905Y-78128628D01*
X94560714Y-78604819D02*
X93989286Y-78604819D01*
X94275000Y-78604819D02*
X94275000Y-77604819D01*
X94275000Y-77604819D02*
X94179762Y-77747676D01*
X94179762Y-77747676D02*
X94084524Y-77842914D01*
X94084524Y-77842914D02*
X93989286Y-77890533D01*
X78033333Y-59539580D02*
X77985714Y-59587200D01*
X77985714Y-59587200D02*
X77842857Y-59634819D01*
X77842857Y-59634819D02*
X77747619Y-59634819D01*
X77747619Y-59634819D02*
X77604762Y-59587200D01*
X77604762Y-59587200D02*
X77509524Y-59491961D01*
X77509524Y-59491961D02*
X77461905Y-59396723D01*
X77461905Y-59396723D02*
X77414286Y-59206247D01*
X77414286Y-59206247D02*
X77414286Y-59063390D01*
X77414286Y-59063390D02*
X77461905Y-58872914D01*
X77461905Y-58872914D02*
X77509524Y-58777676D01*
X77509524Y-58777676D02*
X77604762Y-58682438D01*
X77604762Y-58682438D02*
X77747619Y-58634819D01*
X77747619Y-58634819D02*
X77842857Y-58634819D01*
X77842857Y-58634819D02*
X77985714Y-58682438D01*
X77985714Y-58682438D02*
X78033333Y-58730057D01*
X78366667Y-58634819D02*
X79033333Y-58634819D01*
X79033333Y-58634819D02*
X78604762Y-59634819D01*
D12*
X110936905Y-70054318D02*
X111360238Y-71324318D01*
X111360238Y-71324318D02*
X111783572Y-70054318D01*
X112932619Y-71324318D02*
X112509285Y-70719556D01*
X112206904Y-71324318D02*
X112206904Y-70054318D01*
X112206904Y-70054318D02*
X112690714Y-70054318D01*
X112690714Y-70054318D02*
X112811666Y-70114794D01*
X112811666Y-70114794D02*
X112872143Y-70175270D01*
X112872143Y-70175270D02*
X112932619Y-70296222D01*
X112932619Y-70296222D02*
X112932619Y-70477651D01*
X112932619Y-70477651D02*
X112872143Y-70598603D01*
X112872143Y-70598603D02*
X112811666Y-70659080D01*
X112811666Y-70659080D02*
X112690714Y-70719556D01*
X112690714Y-70719556D02*
X112206904Y-70719556D01*
X113416428Y-70175270D02*
X113476904Y-70114794D01*
X113476904Y-70114794D02*
X113597857Y-70054318D01*
X113597857Y-70054318D02*
X113900238Y-70054318D01*
X113900238Y-70054318D02*
X114021190Y-70114794D01*
X114021190Y-70114794D02*
X114081666Y-70175270D01*
X114081666Y-70175270D02*
X114142143Y-70296222D01*
X114142143Y-70296222D02*
X114142143Y-70417175D01*
X114142143Y-70417175D02*
X114081666Y-70598603D01*
X114081666Y-70598603D02*
X113355952Y-71324318D01*
X113355952Y-71324318D02*
X114142143Y-71324318D01*
D11*
X72595833Y-83029819D02*
X72262500Y-82553628D01*
X72024405Y-83029819D02*
X72024405Y-82029819D01*
X72024405Y-82029819D02*
X72405357Y-82029819D01*
X72405357Y-82029819D02*
X72500595Y-82077438D01*
X72500595Y-82077438D02*
X72548214Y-82125057D01*
X72548214Y-82125057D02*
X72595833Y-82220295D01*
X72595833Y-82220295D02*
X72595833Y-82363152D01*
X72595833Y-82363152D02*
X72548214Y-82458390D01*
X72548214Y-82458390D02*
X72500595Y-82506009D01*
X72500595Y-82506009D02*
X72405357Y-82553628D01*
X72405357Y-82553628D02*
X72024405Y-82553628D01*
X73452976Y-82363152D02*
X73452976Y-83029819D01*
X73214881Y-81982200D02*
X72976786Y-82696485D01*
X72976786Y-82696485D02*
X73595833Y-82696485D01*
X72620833Y-89179819D02*
X72287500Y-88703628D01*
X72049405Y-89179819D02*
X72049405Y-88179819D01*
X72049405Y-88179819D02*
X72430357Y-88179819D01*
X72430357Y-88179819D02*
X72525595Y-88227438D01*
X72525595Y-88227438D02*
X72573214Y-88275057D01*
X72573214Y-88275057D02*
X72620833Y-88370295D01*
X72620833Y-88370295D02*
X72620833Y-88513152D01*
X72620833Y-88513152D02*
X72573214Y-88608390D01*
X72573214Y-88608390D02*
X72525595Y-88656009D01*
X72525595Y-88656009D02*
X72430357Y-88703628D01*
X72430357Y-88703628D02*
X72049405Y-88703628D01*
X72954167Y-88179819D02*
X73573214Y-88179819D01*
X73573214Y-88179819D02*
X73239881Y-88560771D01*
X73239881Y-88560771D02*
X73382738Y-88560771D01*
X73382738Y-88560771D02*
X73477976Y-88608390D01*
X73477976Y-88608390D02*
X73525595Y-88656009D01*
X73525595Y-88656009D02*
X73573214Y-88751247D01*
X73573214Y-88751247D02*
X73573214Y-88989342D01*
X73573214Y-88989342D02*
X73525595Y-89084580D01*
X73525595Y-89084580D02*
X73477976Y-89132200D01*
X73477976Y-89132200D02*
X73382738Y-89179819D01*
X73382738Y-89179819D02*
X73097024Y-89179819D01*
X73097024Y-89179819D02*
X73001786Y-89132200D01*
X73001786Y-89132200D02*
X72954167Y-89084580D01*
X83123809Y-60178628D02*
X83123809Y-60654819D01*
X82790476Y-59654819D02*
X83123809Y-60178628D01*
X83123809Y-60178628D02*
X83457142Y-59654819D01*
X84314285Y-60654819D02*
X83742857Y-60654819D01*
X84028571Y-60654819D02*
X84028571Y-59654819D01*
X84028571Y-59654819D02*
X83933333Y-59797676D01*
X83933333Y-59797676D02*
X83838095Y-59892914D01*
X83838095Y-59892914D02*
X83742857Y-59940533D01*
X95833333Y-72729819D02*
X95500000Y-72253628D01*
X95261905Y-72729819D02*
X95261905Y-71729819D01*
X95261905Y-71729819D02*
X95642857Y-71729819D01*
X95642857Y-71729819D02*
X95738095Y-71777438D01*
X95738095Y-71777438D02*
X95785714Y-71825057D01*
X95785714Y-71825057D02*
X95833333Y-71920295D01*
X95833333Y-71920295D02*
X95833333Y-72063152D01*
X95833333Y-72063152D02*
X95785714Y-72158390D01*
X95785714Y-72158390D02*
X95738095Y-72206009D01*
X95738095Y-72206009D02*
X95642857Y-72253628D01*
X95642857Y-72253628D02*
X95261905Y-72253628D01*
X96214286Y-71825057D02*
X96261905Y-71777438D01*
X96261905Y-71777438D02*
X96357143Y-71729819D01*
X96357143Y-71729819D02*
X96595238Y-71729819D01*
X96595238Y-71729819D02*
X96690476Y-71777438D01*
X96690476Y-71777438D02*
X96738095Y-71825057D01*
X96738095Y-71825057D02*
X96785714Y-71920295D01*
X96785714Y-71920295D02*
X96785714Y-72015533D01*
X96785714Y-72015533D02*
X96738095Y-72158390D01*
X96738095Y-72158390D02*
X96166667Y-72729819D01*
X96166667Y-72729819D02*
X96785714Y-72729819D01*
X50654819Y-87309523D02*
X49654819Y-87309523D01*
X49654819Y-87309523D02*
X50369104Y-86976190D01*
X50369104Y-86976190D02*
X49654819Y-86642857D01*
X49654819Y-86642857D02*
X50654819Y-86642857D01*
X49654819Y-86261904D02*
X49654819Y-85642857D01*
X49654819Y-85642857D02*
X50035771Y-85976190D01*
X50035771Y-85976190D02*
X50035771Y-85833333D01*
X50035771Y-85833333D02*
X50083390Y-85738095D01*
X50083390Y-85738095D02*
X50131009Y-85690476D01*
X50131009Y-85690476D02*
X50226247Y-85642857D01*
X50226247Y-85642857D02*
X50464342Y-85642857D01*
X50464342Y-85642857D02*
X50559580Y-85690476D01*
X50559580Y-85690476D02*
X50607200Y-85738095D01*
X50607200Y-85738095D02*
X50654819Y-85833333D01*
X50654819Y-85833333D02*
X50654819Y-86119047D01*
X50654819Y-86119047D02*
X50607200Y-86214285D01*
X50607200Y-86214285D02*
X50559580Y-86261904D01*
X89008333Y-55904580D02*
X88960714Y-55952200D01*
X88960714Y-55952200D02*
X88817857Y-55999819D01*
X88817857Y-55999819D02*
X88722619Y-55999819D01*
X88722619Y-55999819D02*
X88579762Y-55952200D01*
X88579762Y-55952200D02*
X88484524Y-55856961D01*
X88484524Y-55856961D02*
X88436905Y-55761723D01*
X88436905Y-55761723D02*
X88389286Y-55571247D01*
X88389286Y-55571247D02*
X88389286Y-55428390D01*
X88389286Y-55428390D02*
X88436905Y-55237914D01*
X88436905Y-55237914D02*
X88484524Y-55142676D01*
X88484524Y-55142676D02*
X88579762Y-55047438D01*
X88579762Y-55047438D02*
X88722619Y-54999819D01*
X88722619Y-54999819D02*
X88817857Y-54999819D01*
X88817857Y-54999819D02*
X88960714Y-55047438D01*
X88960714Y-55047438D02*
X89008333Y-55095057D01*
X89865476Y-54999819D02*
X89675000Y-54999819D01*
X89675000Y-54999819D02*
X89579762Y-55047438D01*
X89579762Y-55047438D02*
X89532143Y-55095057D01*
X89532143Y-55095057D02*
X89436905Y-55237914D01*
X89436905Y-55237914D02*
X89389286Y-55428390D01*
X89389286Y-55428390D02*
X89389286Y-55809342D01*
X89389286Y-55809342D02*
X89436905Y-55904580D01*
X89436905Y-55904580D02*
X89484524Y-55952200D01*
X89484524Y-55952200D02*
X89579762Y-55999819D01*
X89579762Y-55999819D02*
X89770238Y-55999819D01*
X89770238Y-55999819D02*
X89865476Y-55952200D01*
X89865476Y-55952200D02*
X89913095Y-55904580D01*
X89913095Y-55904580D02*
X89960714Y-55809342D01*
X89960714Y-55809342D02*
X89960714Y-55571247D01*
X89960714Y-55571247D02*
X89913095Y-55476009D01*
X89913095Y-55476009D02*
X89865476Y-55428390D01*
X89865476Y-55428390D02*
X89770238Y-55380771D01*
X89770238Y-55380771D02*
X89579762Y-55380771D01*
X89579762Y-55380771D02*
X89484524Y-55428390D01*
X89484524Y-55428390D02*
X89436905Y-55476009D01*
X89436905Y-55476009D02*
X89389286Y-55571247D01*
D12*
X80110237Y-71199318D02*
X80110237Y-69929318D01*
X81440714Y-71078365D02*
X81380238Y-71138842D01*
X81380238Y-71138842D02*
X81198809Y-71199318D01*
X81198809Y-71199318D02*
X81077857Y-71199318D01*
X81077857Y-71199318D02*
X80896428Y-71138842D01*
X80896428Y-71138842D02*
X80775476Y-71017889D01*
X80775476Y-71017889D02*
X80714999Y-70896937D01*
X80714999Y-70896937D02*
X80654523Y-70655032D01*
X80654523Y-70655032D02*
X80654523Y-70473603D01*
X80654523Y-70473603D02*
X80714999Y-70231699D01*
X80714999Y-70231699D02*
X80775476Y-70110746D01*
X80775476Y-70110746D02*
X80896428Y-69989794D01*
X80896428Y-69989794D02*
X81077857Y-69929318D01*
X81077857Y-69929318D02*
X81198809Y-69929318D01*
X81198809Y-69929318D02*
X81380238Y-69989794D01*
X81380238Y-69989794D02*
X81440714Y-70050270D01*
X82650238Y-71199318D02*
X81924523Y-71199318D01*
X82287380Y-71199318D02*
X82287380Y-69929318D01*
X82287380Y-69929318D02*
X82166428Y-70110746D01*
X82166428Y-70110746D02*
X82045476Y-70231699D01*
X82045476Y-70231699D02*
X81924523Y-70292175D01*
D11*
X73732142Y-77314580D02*
X73684523Y-77362200D01*
X73684523Y-77362200D02*
X73541666Y-77409819D01*
X73541666Y-77409819D02*
X73446428Y-77409819D01*
X73446428Y-77409819D02*
X73303571Y-77362200D01*
X73303571Y-77362200D02*
X73208333Y-77266961D01*
X73208333Y-77266961D02*
X73160714Y-77171723D01*
X73160714Y-77171723D02*
X73113095Y-76981247D01*
X73113095Y-76981247D02*
X73113095Y-76838390D01*
X73113095Y-76838390D02*
X73160714Y-76647914D01*
X73160714Y-76647914D02*
X73208333Y-76552676D01*
X73208333Y-76552676D02*
X73303571Y-76457438D01*
X73303571Y-76457438D02*
X73446428Y-76409819D01*
X73446428Y-76409819D02*
X73541666Y-76409819D01*
X73541666Y-76409819D02*
X73684523Y-76457438D01*
X73684523Y-76457438D02*
X73732142Y-76505057D01*
X74684523Y-77409819D02*
X74113095Y-77409819D01*
X74398809Y-77409819D02*
X74398809Y-76409819D01*
X74398809Y-76409819D02*
X74303571Y-76552676D01*
X74303571Y-76552676D02*
X74208333Y-76647914D01*
X74208333Y-76647914D02*
X74113095Y-76695533D01*
X75303571Y-76409819D02*
X75398809Y-76409819D01*
X75398809Y-76409819D02*
X75494047Y-76457438D01*
X75494047Y-76457438D02*
X75541666Y-76505057D01*
X75541666Y-76505057D02*
X75589285Y-76600295D01*
X75589285Y-76600295D02*
X75636904Y-76790771D01*
X75636904Y-76790771D02*
X75636904Y-77028866D01*
X75636904Y-77028866D02*
X75589285Y-77219342D01*
X75589285Y-77219342D02*
X75541666Y-77314580D01*
X75541666Y-77314580D02*
X75494047Y-77362200D01*
X75494047Y-77362200D02*
X75398809Y-77409819D01*
X75398809Y-77409819D02*
X75303571Y-77409819D01*
X75303571Y-77409819D02*
X75208333Y-77362200D01*
X75208333Y-77362200D02*
X75160714Y-77314580D01*
X75160714Y-77314580D02*
X75113095Y-77219342D01*
X75113095Y-77219342D02*
X75065476Y-77028866D01*
X75065476Y-77028866D02*
X75065476Y-76790771D01*
X75065476Y-76790771D02*
X75113095Y-76600295D01*
X75113095Y-76600295D02*
X75160714Y-76505057D01*
X75160714Y-76505057D02*
X75208333Y-76457438D01*
X75208333Y-76457438D02*
X75303571Y-76409819D01*
D13*
%TO.C,R5*%
X75510000Y-63514564D02*
X75510000Y-63060436D01*
X74040000Y-63514564D02*
X74040000Y-63060436D01*
D10*
%TO.C,VR1*%
X45250000Y-63300000D02*
X47500000Y-63300000D01*
X45250000Y-67000000D02*
X45250000Y-63300000D01*
X45250000Y-73000000D02*
X45250000Y-76700000D01*
X45250000Y-76700000D02*
X47500000Y-76700000D01*
X55500000Y-63300000D02*
X57750000Y-63300000D01*
X55500000Y-76700000D02*
X57750000Y-76700000D01*
X57750000Y-63300000D02*
X57750000Y-67000000D01*
X57750000Y-76700000D02*
X57750000Y-73000000D01*
D13*
%TO.C,SW2*%
X65075000Y-57525000D02*
X65075000Y-59025000D01*
X66325000Y-61525000D02*
X70825000Y-61525000D01*
X70825000Y-55025000D02*
X66325000Y-55025000D01*
X72075000Y-59025000D02*
X72075000Y-57525000D01*
%TO.C,J2*%
X63945000Y-87655000D02*
X63945000Y-74835000D01*
X66545000Y-85055000D02*
X66545000Y-87655000D01*
X66545000Y-87655000D02*
X63945000Y-87655000D01*
X69145000Y-74835000D02*
X63945000Y-74835000D01*
X69145000Y-85055000D02*
X66545000Y-85055000D01*
X69145000Y-85055000D02*
X69145000Y-74835000D01*
X69145000Y-86325000D02*
X69145000Y-87655000D01*
X69145000Y-87655000D02*
X67815000Y-87655000D01*
D14*
%TO.C,J1*%
X78910000Y-84300000D02*
X78910000Y-86200000D01*
X78910000Y-88700000D02*
X78910000Y-89425000D01*
X78910000Y-89425000D02*
X87850000Y-89425000D01*
D10*
X80180000Y-81100000D02*
X80180000Y-81100000D01*
X80180000Y-81200000D02*
X80180000Y-81200000D01*
D14*
X87850000Y-84300000D02*
X87850000Y-86200000D01*
X87850000Y-89425000D02*
X87850000Y-88700000D01*
D10*
X80180000Y-81100000D02*
G75*
G02*
X80180000Y-81200000I0J-50000D01*
G01*
X80180000Y-81200000D02*
G75*
G02*
X80180000Y-81100000I0J50000D01*
G01*
D13*
%TO.C,R1*%
X94002064Y-75765000D02*
X93547936Y-75765000D01*
X94002064Y-77235000D02*
X93547936Y-77235000D01*
%TO.C,C7*%
X78461252Y-56765000D02*
X77938748Y-56765000D01*
X78461252Y-58235000D02*
X77938748Y-58235000D01*
D10*
%TO.C,VR2*%
X106350000Y-63800000D02*
X108600000Y-63800000D01*
X106350000Y-67500000D02*
X106350000Y-63800000D01*
X106350000Y-73500000D02*
X106350000Y-77200000D01*
X106350000Y-77200000D02*
X108600000Y-77200000D01*
X116600000Y-63800000D02*
X118850000Y-63800000D01*
X116600000Y-77200000D02*
X118850000Y-77200000D01*
X118850000Y-63800000D02*
X118850000Y-67500000D01*
X118850000Y-77200000D02*
X118850000Y-73500000D01*
D13*
%TO.C,R4*%
X72535436Y-83490000D02*
X72989564Y-83490000D01*
X72535436Y-84960000D02*
X72989564Y-84960000D01*
%TO.C,R3*%
X73014564Y-86340000D02*
X72560436Y-86340000D01*
X73014564Y-87810000D02*
X72560436Y-87810000D01*
%TO.C,Y1*%
X80900000Y-59200000D02*
X86800000Y-59200000D01*
X86800000Y-55600000D02*
X80900000Y-55600000D01*
X86800000Y-59200000D02*
X86800000Y-55600000D01*
%TO.C,R2*%
X94039564Y-73340000D02*
X93585436Y-73340000D01*
X94039564Y-74810000D02*
X93585436Y-74810000D01*
%TO.C,C6*%
X88913748Y-56490000D02*
X89436252Y-56490000D01*
X88913748Y-57960000D02*
X89436252Y-57960000D01*
D14*
%TO.C,IC1*%
X78600000Y-64850000D02*
X87900000Y-64850000D01*
X78600000Y-74150000D02*
X78600000Y-64850000D01*
X87900000Y-64850000D02*
X87900000Y-74150000D01*
X87900000Y-74150000D02*
X78600000Y-74150000D01*
D15*
X89550000Y-74700000D02*
G75*
G02*
X89150000Y-74700000I-200000J0D01*
G01*
X89150000Y-74700000D02*
G75*
G02*
X89550000Y-74700000I200000J0D01*
G01*
D13*
%TO.C,C10*%
X74636252Y-74540000D02*
X74113748Y-74540000D01*
X74636252Y-76010000D02*
X74113748Y-76010000D01*
%TD*%
D16*
X42000000Y-53500000D02*
X122000000Y-53500000D01*
X122000000Y-90500000D01*
X42000000Y-90500000D01*
X42000000Y-53500000D01*
M02*
