%TF.GenerationSoftware,KiCad,Pcbnew,9.0.0*%
%TF.CreationDate,2025-03-14T14:13:33-06:00*%
%TF.ProjectId,scrollwheel_peripheral,7363726f-6c6c-4776-9865-656c5f706572,rev?*%
%TF.SameCoordinates,Original*%
%TF.FileFunction,Copper,L2,Bot*%
%TF.FilePolarity,Positive*%
%FSLAX46Y46*%
G04 Gerber Fmt 4.6, Leading zero omitted, Abs format (unit mm)*
G04 Created by KiCad (PCBNEW 9.0.0) date 2025-03-14 14:13:33*
%MOMM*%
%LPD*%
G01*
G04 APERTURE LIST*
G04 Aperture macros list*
%AMRoundRect*
0 Rectangle with rounded corners*
0 $1 Rounding radius*
0 $2 $3 $4 $5 $6 $7 $8 $9 X,Y pos of 4 corners*
0 Add a 4 corners polygon primitive as box body*
4,1,4,$2,$3,$4,$5,$6,$7,$8,$9,$2,$3,0*
0 Add four circle primitives for the rounded corners*
1,1,$1+$1,$2,$3*
1,1,$1+$1,$4,$5*
1,1,$1+$1,$6,$7*
1,1,$1+$1,$8,$9*
0 Add four rect primitives between the rounded corners*
20,1,$1+$1,$2,$3,$4,$5,0*
20,1,$1+$1,$4,$5,$6,$7,0*
20,1,$1+$1,$6,$7,$8,$9,0*
20,1,$1+$1,$8,$9,$2,$3,0*%
G04 Aperture macros list end*
%TA.AperFunction,ComponentPad*%
%ADD10C,1.650000*%
%TD*%
%TA.AperFunction,ComponentPad*%
%ADD11C,5.161000*%
%TD*%
%TA.AperFunction,ComponentPad*%
%ADD12C,2.000000*%
%TD*%
%TA.AperFunction,ComponentPad*%
%ADD13R,1.700000X1.700000*%
%TD*%
%TA.AperFunction,ComponentPad*%
%ADD14O,1.700000X1.700000*%
%TD*%
%TA.AperFunction,ComponentPad*%
%ADD15C,1.875000*%
%TD*%
%TA.AperFunction,ComponentPad*%
%ADD16C,2.430000*%
%TD*%
%TA.AperFunction,SMDPad,CuDef*%
%ADD17RoundRect,0.250000X-0.475000X0.250000X-0.475000X-0.250000X0.475000X-0.250000X0.475000X0.250000X0*%
%TD*%
%TA.AperFunction,SMDPad,CuDef*%
%ADD18RoundRect,0.250000X0.475000X-0.250000X0.475000X0.250000X-0.475000X0.250000X-0.475000X-0.250000X0*%
%TD*%
%TA.AperFunction,SMDPad,CuDef*%
%ADD19RoundRect,0.250000X0.250000X0.475000X-0.250000X0.475000X-0.250000X-0.475000X0.250000X-0.475000X0*%
%TD*%
%TA.AperFunction,SMDPad,CuDef*%
%ADD20RoundRect,0.250000X-0.250000X-0.475000X0.250000X-0.475000X0.250000X0.475000X-0.250000X0.475000X0*%
%TD*%
%TA.AperFunction,ViaPad*%
%ADD21C,0.600000*%
%TD*%
%TA.AperFunction,Conductor*%
%ADD22C,0.200000*%
%TD*%
%TA.AperFunction,Conductor*%
%ADD23C,0.400000*%
%TD*%
%TA.AperFunction,Profile*%
%ADD24C,0.050000*%
%TD*%
G04 APERTURE END LIST*
D10*
%TO.P,VR1,1,1*%
%TO.N,Net-(IC1-PB4_(PCINT4{slash}ADC11))*%
X49000000Y-63000000D03*
%TO.P,VR1,2,2*%
%TO.N,GND*%
X54000000Y-63000000D03*
%TO.P,VR1,A1,A*%
%TO.N,Net-(IC1-PB5_(PCINT5{slash}OC1A{slash}~{OC4B}{slash}ADC))*%
X49000000Y-77500000D03*
%TO.P,VR1,B1,B*%
%TO.N,Net-(IC1-PB6_(PCINT6{slash}OC1B{slash}OC4B{slash}ADC))*%
X54000000Y-77500000D03*
%TO.P,VR1,C1,C*%
%TO.N,GND*%
X51500000Y-77500000D03*
D11*
%TO.P,VR1,MH1,MH1*%
%TO.N,unconnected-(VR1-PadMH1)*%
X45800000Y-70000000D03*
%TO.P,VR1,MH2,MH2*%
%TO.N,unconnected-(VR1-PadMH2)*%
X57200000Y-70000000D03*
%TD*%
D12*
%TO.P,SW2,1,1*%
%TO.N,GND*%
X65325000Y-56025000D03*
X71825000Y-56025000D03*
%TO.P,SW2,2,2*%
%TO.N,Net-(IC1-~{RESET})*%
X65325000Y-60525000D03*
X71825000Y-60525000D03*
%TD*%
D13*
%TO.P,J2,1,TCK*%
%TO.N,Net-(IC1-PF4_(ADC4{slash}TCK))*%
X67815000Y-86325000D03*
D14*
%TO.P,J2,2,GND*%
%TO.N,GND*%
X65275000Y-86325000D03*
%TO.P,J2,3,TDO*%
%TO.N,Net-(IC1-PF6_(ADC6{slash}TDO))*%
X67815000Y-83785000D03*
%TO.P,J2,4,VREF*%
%TO.N,/5V*%
X65275000Y-83785000D03*
%TO.P,J2,5,TMS*%
%TO.N,Net-(IC1-PF5_(ADC5{slash}TMS))*%
X67815000Y-81245000D03*
%TO.P,J2,6,~{SRST}*%
%TO.N,Net-(IC1-~{RESET})*%
X65275000Y-81245000D03*
%TO.P,J2,7,VCC*%
%TO.N,/5V*%
X67815000Y-78705000D03*
%TO.P,J2,8,~{TRST}*%
%TO.N,unconnected-(J2-~{TRST}-Pad8)*%
X65275000Y-78705000D03*
%TO.P,J2,9,TDI*%
%TO.N,Net-(IC1-PF7_(ADC7{slash}TDI))*%
X67815000Y-76165000D03*
%TO.P,J2,10,GND*%
%TO.N,GND*%
X65275000Y-76165000D03*
%TD*%
D15*
%TO.P,J1,1,MH1*%
%TO.N,unconnected-(J1-MH1-Pad1)*%
X77760000Y-83325000D03*
%TO.P,J1,2,MH2*%
%TO.N,unconnected-(J1-MH2-Pad2)*%
X89000000Y-83325000D03*
D16*
%TO.P,J1,3,MH3*%
%TO.N,unconnected-(J1-MH3-Pad3)*%
X77760000Y-87325000D03*
%TO.P,J1,4,MH4*%
%TO.N,unconnected-(J1-MH4-Pad4)*%
X89000000Y-87325000D03*
%TD*%
D10*
%TO.P,VR2,1,1*%
%TO.N,Net-(IC1-(PDI{slash}PCINT2{slash}MOSI)_PB2)*%
X110100000Y-63500000D03*
%TO.P,VR2,2,2*%
%TO.N,GND*%
X115100000Y-63500000D03*
%TO.P,VR2,A1,A*%
%TO.N,Net-(IC1-(SS{slash}PCINT0)_PB0)*%
X110100000Y-78000000D03*
%TO.P,VR2,B1,B*%
%TO.N,Net-(IC1-(PCINT1{slash}SCLK)_PB1)*%
X115100000Y-78000000D03*
%TO.P,VR2,C1,C*%
%TO.N,GND*%
X112600000Y-78000000D03*
D11*
%TO.P,VR2,MH1,MH1*%
%TO.N,unconnected-(VR2-PadMH1)*%
X106900000Y-70500000D03*
%TO.P,VR2,MH2,MH2*%
%TO.N,unconnected-(VR2-PadMH2)*%
X118300000Y-70500000D03*
%TD*%
D17*
%TO.P,C11,1*%
%TO.N,/5V*%
X81300000Y-66350000D03*
%TO.P,C11,2*%
%TO.N,GND*%
X81300000Y-68250000D03*
%TD*%
D18*
%TO.P,C1,1*%
%TO.N,Net-(IC1-PB5_(PCINT5{slash}OC1A{slash}~{OC4B}{slash}ADC))*%
X49600000Y-74575000D03*
%TO.P,C1,2*%
%TO.N,GND*%
X49600000Y-72675000D03*
%TD*%
%TO.P,C4,1*%
%TO.N,Net-(IC1-(PCINT1{slash}SCLK)_PB1)*%
X114750000Y-75400000D03*
%TO.P,C4,2*%
%TO.N,GND*%
X114750000Y-73500000D03*
%TD*%
%TO.P,C2,1*%
%TO.N,Net-(IC1-PB6_(PCINT6{slash}OC1B{slash}OC4B{slash}ADC))*%
X53075000Y-74600000D03*
%TO.P,C2,2*%
%TO.N,GND*%
X53075000Y-72700000D03*
%TD*%
%TO.P,C3,1*%
%TO.N,Net-(IC1-(SS{slash}PCINT0)_PB0)*%
X110525000Y-75325000D03*
%TO.P,C3,2*%
%TO.N,GND*%
X110525000Y-73425000D03*
%TD*%
D19*
%TO.P,C5,1*%
%TO.N,Net-(IC1-UCAP)*%
X85725000Y-69625000D03*
%TO.P,C5,2*%
%TO.N,GND*%
X83825000Y-69625000D03*
%TD*%
D20*
%TO.P,C8,1*%
%TO.N,GND*%
X83850000Y-72050000D03*
%TO.P,C8,2*%
%TO.N,/5V*%
X85750000Y-72050000D03*
%TD*%
D19*
%TO.P,C9,1*%
%TO.N,/5V*%
X85650000Y-67150000D03*
%TO.P,C9,2*%
%TO.N,GND*%
X83750000Y-67150000D03*
%TD*%
D21*
%TO.N,GND*%
X81650000Y-69725000D03*
X84050000Y-65025000D03*
X81550000Y-73500000D03*
%TO.N,Net-(IC1-UCAP)*%
X87025000Y-69450000D03*
%TO.N,/5V*%
X85650000Y-65625000D03*
X87075000Y-72575000D03*
X79700000Y-66300000D03*
X85750000Y-83650000D03*
X80150000Y-83750000D03*
%TO.N,Net-(IC1-~{RESET})*%
X85700000Y-61450000D03*
%TD*%
D22*
%TO.N,GND*%
X81650000Y-68600000D02*
X81300000Y-68250000D01*
X81650000Y-69725000D02*
X81650000Y-68600000D01*
X84050000Y-65025000D02*
X84050000Y-65175000D01*
X84050000Y-65175000D02*
X83750000Y-65475000D01*
X83750000Y-65475000D02*
X83750000Y-67150000D01*
X81550000Y-73500000D02*
X81700000Y-73500000D01*
%TO.N,Net-(IC1-PB5_(PCINT5{slash}OC1A{slash}~{OC4B}{slash}ADC))*%
X49600000Y-74575000D02*
X49000000Y-75175000D01*
X49000000Y-75175000D02*
X49000000Y-77500000D01*
%TO.N,Net-(IC1-UCAP)*%
X85900000Y-69450000D02*
X85725000Y-69625000D01*
X87025000Y-69450000D02*
X85900000Y-69450000D01*
D23*
%TO.N,/5V*%
X85750000Y-72050000D02*
X86550000Y-72050000D01*
D22*
X66426000Y-82634000D02*
X66426000Y-80768240D01*
X85650000Y-65625000D02*
X85650000Y-67150000D01*
X81250000Y-66300000D02*
X81300000Y-66350000D01*
X65275000Y-83785000D02*
X66426000Y-82634000D01*
D23*
X85750000Y-83650000D02*
X85174000Y-84226000D01*
D22*
X79700000Y-66300000D02*
X81250000Y-66300000D01*
X67815000Y-79379240D02*
X67815000Y-78705000D01*
X66426000Y-80768240D02*
X67815000Y-79379240D01*
D23*
X86550000Y-72050000D02*
X87075000Y-72575000D01*
X80626000Y-84226000D02*
X80150000Y-83750000D01*
X85174000Y-84226000D02*
X80626000Y-84226000D01*
D22*
%TO.N,Net-(IC1-~{RESET})*%
X63825000Y-61775000D02*
X63825000Y-79795000D01*
X71375000Y-60725000D02*
X64875000Y-60725000D01*
X63825000Y-79795000D02*
X65275000Y-81245000D01*
X84975000Y-60725000D02*
X85700000Y-61450000D01*
X71375000Y-60725000D02*
X84975000Y-60725000D01*
X64875000Y-60725000D02*
X63825000Y-61775000D01*
%TO.N,Net-(IC1-(PCINT1{slash}SCLK)_PB1)*%
X114750000Y-77650000D02*
X115100000Y-78000000D01*
X114750000Y-75400000D02*
X114750000Y-77650000D01*
%TO.N,Net-(IC1-(SS{slash}PCINT0)_PB0)*%
X110525000Y-75325000D02*
X110525000Y-77575000D01*
X110525000Y-77575000D02*
X110100000Y-78000000D01*
%TO.N,Net-(IC1-PB6_(PCINT6{slash}OC1B{slash}OC4B{slash}ADC))*%
X54000000Y-75525000D02*
X54000000Y-77500000D01*
X53075000Y-74600000D02*
X54000000Y-75525000D01*
%TD*%
%TA.AperFunction,Conductor*%
%TO.N,GND*%
G36*
X121442539Y-54020185D02*
G01*
X121488294Y-54072989D01*
X121499500Y-54124500D01*
X121499500Y-69585355D01*
X121479815Y-69652394D01*
X121427011Y-69698149D01*
X121357853Y-69708093D01*
X121294297Y-69679068D01*
X121258459Y-69626310D01*
X121150960Y-69319100D01*
X121150951Y-69319078D01*
X121000816Y-69007319D01*
X120889818Y-68830666D01*
X120816703Y-68714304D01*
X120600944Y-68443751D01*
X120356249Y-68199056D01*
X120085696Y-67983297D01*
X119792686Y-67799187D01*
X119792687Y-67799187D01*
X119792680Y-67799183D01*
X119480921Y-67649048D01*
X119480899Y-67649039D01*
X119154285Y-67534751D01*
X119154273Y-67534747D01*
X118816903Y-67457745D01*
X118816885Y-67457742D01*
X118473031Y-67419000D01*
X118473025Y-67419000D01*
X118126975Y-67419000D01*
X118126968Y-67419000D01*
X117783114Y-67457742D01*
X117783096Y-67457745D01*
X117445726Y-67534747D01*
X117445714Y-67534751D01*
X117119100Y-67649039D01*
X117119078Y-67649048D01*
X116807319Y-67799183D01*
X116514305Y-67983296D01*
X116243751Y-68199055D01*
X115999055Y-68443751D01*
X115783296Y-68714305D01*
X115599183Y-69007319D01*
X115449048Y-69319078D01*
X115449039Y-69319100D01*
X115334751Y-69645714D01*
X115334747Y-69645726D01*
X115257745Y-69983096D01*
X115257742Y-69983114D01*
X115219000Y-70326968D01*
X115219000Y-70673031D01*
X115257742Y-71016885D01*
X115257745Y-71016903D01*
X115334747Y-71354273D01*
X115334751Y-71354285D01*
X115449039Y-71680899D01*
X115449048Y-71680921D01*
X115599183Y-71992680D01*
X115639126Y-72056249D01*
X115783297Y-72285696D01*
X115999056Y-72556249D01*
X116243751Y-72800944D01*
X116514304Y-73016703D01*
X116686679Y-73125013D01*
X116807319Y-73200816D01*
X117119078Y-73350951D01*
X117119087Y-73350954D01*
X117119094Y-73350958D01*
X117119100Y-73350960D01*
X117445714Y-73465248D01*
X117445726Y-73465252D01*
X117783100Y-73542255D01*
X117783106Y-73542255D01*
X117783114Y-73542257D01*
X118012350Y-73568085D01*
X118126969Y-73580999D01*
X118126972Y-73581000D01*
X118126975Y-73581000D01*
X118473028Y-73581000D01*
X118473029Y-73580999D01*
X118648767Y-73561198D01*
X118816885Y-73542257D01*
X118816890Y-73542256D01*
X118816900Y-73542255D01*
X119154274Y-73465252D01*
X119480906Y-73350958D01*
X119493825Y-73344737D01*
X119792680Y-73200816D01*
X119792680Y-73200815D01*
X119792686Y-73200813D01*
X120085696Y-73016703D01*
X120356249Y-72800944D01*
X120600944Y-72556249D01*
X120816703Y-72285696D01*
X121000813Y-71992686D01*
X121062010Y-71865609D01*
X121150951Y-71680921D01*
X121150952Y-71680917D01*
X121150958Y-71680906D01*
X121212200Y-71505887D01*
X121258459Y-71373689D01*
X121299180Y-71316913D01*
X121364133Y-71291166D01*
X121432695Y-71304622D01*
X121483098Y-71353010D01*
X121499500Y-71414644D01*
X121499500Y-89875500D01*
X121479815Y-89942539D01*
X121427011Y-89988294D01*
X121375500Y-89999500D01*
X42624500Y-89999500D01*
X42557461Y-89979815D01*
X42511706Y-89927011D01*
X42500500Y-89875500D01*
X42500500Y-86378711D01*
X44149500Y-86378711D01*
X44149500Y-86621288D01*
X44181161Y-86861785D01*
X44243947Y-87096104D01*
X44296457Y-87222873D01*
X44336776Y-87320212D01*
X44458064Y-87530289D01*
X44458066Y-87530292D01*
X44458067Y-87530293D01*
X44605733Y-87722736D01*
X44605739Y-87722743D01*
X44777256Y-87894260D01*
X44777262Y-87894265D01*
X44969711Y-88041936D01*
X45179788Y-88163224D01*
X45403900Y-88256054D01*
X45638211Y-88318838D01*
X45818586Y-88342584D01*
X45878711Y-88350500D01*
X45878712Y-88350500D01*
X46121289Y-88350500D01*
X46169388Y-88344167D01*
X46361789Y-88318838D01*
X46596100Y-88256054D01*
X46820212Y-88163224D01*
X47030289Y-88041936D01*
X47222738Y-87894265D01*
X47394265Y-87722738D01*
X47541936Y-87530289D01*
X47663224Y-87320212D01*
X47756054Y-87096100D01*
X47818838Y-86861789D01*
X47850500Y-86621288D01*
X47850500Y-86378712D01*
X47849336Y-86369874D01*
X47818838Y-86138214D01*
X47818838Y-86138211D01*
X47756054Y-85903900D01*
X47663224Y-85679788D01*
X47541936Y-85469711D01*
X47394265Y-85277262D01*
X47394260Y-85277256D01*
X47222743Y-85105739D01*
X47222736Y-85105733D01*
X47030293Y-84958067D01*
X47030292Y-84958066D01*
X47030289Y-84958064D01*
X46820212Y-84836776D01*
X46820205Y-84836773D01*
X46596104Y-84743947D01*
X46361785Y-84681161D01*
X46121289Y-84649500D01*
X46121288Y-84649500D01*
X45878712Y-84649500D01*
X45878711Y-84649500D01*
X45638214Y-84681161D01*
X45403895Y-84743947D01*
X45179794Y-84836773D01*
X45179785Y-84836777D01*
X44969706Y-84958067D01*
X44777263Y-85105733D01*
X44777256Y-85105739D01*
X44605739Y-85277256D01*
X44605733Y-85277263D01*
X44458067Y-85469706D01*
X44336777Y-85679785D01*
X44336773Y-85679794D01*
X44243947Y-85903895D01*
X44181161Y-86138214D01*
X44149500Y-86378711D01*
X42500500Y-86378711D01*
X42500500Y-79874054D01*
X63224498Y-79874054D01*
X63257178Y-79996018D01*
X63265423Y-80026785D01*
X63282002Y-80055500D01*
X63344479Y-80163714D01*
X63344481Y-80163717D01*
X63463349Y-80282585D01*
X63463355Y-80282590D01*
X63941241Y-80760476D01*
X63974726Y-80821799D01*
X63971492Y-80886473D01*
X63957753Y-80928757D01*
X63924500Y-81138713D01*
X63924500Y-81351286D01*
X63957753Y-81561239D01*
X64023444Y-81763414D01*
X64119951Y-81952820D01*
X64244890Y-82124786D01*
X64395213Y-82275109D01*
X64567182Y-82400050D01*
X64575946Y-82404516D01*
X64626742Y-82452491D01*
X64643536Y-82520312D01*
X64620998Y-82586447D01*
X64575946Y-82625484D01*
X64567182Y-82629949D01*
X64395213Y-82754890D01*
X64244890Y-82905213D01*
X64119951Y-83077179D01*
X64023444Y-83266585D01*
X63957753Y-83468760D01*
X63924500Y-83678713D01*
X63924500Y-83891286D01*
X63954179Y-84078676D01*
X63957754Y-84101243D01*
X64009920Y-84261794D01*
X64023444Y-84303414D01*
X64119951Y-84492820D01*
X64244890Y-84664786D01*
X64395213Y-84815109D01*
X64567179Y-84940048D01*
X64567181Y-84940049D01*
X64567184Y-84940051D01*
X64576493Y-84944794D01*
X64627290Y-84992766D01*
X64644087Y-85060587D01*
X64621552Y-85126722D01*
X64576502Y-85165762D01*
X64567443Y-85170378D01*
X64395540Y-85295272D01*
X64395535Y-85295276D01*
X64245276Y-85445535D01*
X64245272Y-85445540D01*
X64120379Y-85617442D01*
X64023904Y-85806782D01*
X63958242Y-86008870D01*
X63958242Y-86008873D01*
X63947769Y-86075000D01*
X64841988Y-86075000D01*
X64809075Y-86132007D01*
X64775000Y-86259174D01*
X64775000Y-86390826D01*
X64809075Y-86517993D01*
X64841988Y-86575000D01*
X63947769Y-86575000D01*
X63958242Y-86641126D01*
X63958242Y-86641129D01*
X64023904Y-86843217D01*
X64120379Y-87032557D01*
X64245272Y-87204459D01*
X64245276Y-87204464D01*
X64395535Y-87354723D01*
X64395540Y-87354727D01*
X64567442Y-87479620D01*
X64756782Y-87576095D01*
X64958871Y-87641757D01*
X65025000Y-87652231D01*
X65025000Y-86758012D01*
X65082007Y-86790925D01*
X65209174Y-86825000D01*
X65340826Y-86825000D01*
X65467993Y-86790925D01*
X65525000Y-86758012D01*
X65525000Y-87652230D01*
X65591126Y-87641757D01*
X65591129Y-87641757D01*
X65793217Y-87576095D01*
X65982557Y-87479620D01*
X66154458Y-87354728D01*
X66268133Y-87241053D01*
X66329456Y-87207568D01*
X66399148Y-87212552D01*
X66455082Y-87254423D01*
X66471997Y-87285401D01*
X66521202Y-87417328D01*
X66521206Y-87417335D01*
X66607452Y-87532544D01*
X66607455Y-87532547D01*
X66722664Y-87618793D01*
X66722671Y-87618797D01*
X66857517Y-87669091D01*
X66857516Y-87669091D01*
X66864444Y-87669835D01*
X66917127Y-87675500D01*
X68712872Y-87675499D01*
X68772483Y-87669091D01*
X68907331Y-87618796D01*
X69022546Y-87532546D01*
X69108796Y-87417331D01*
X69159091Y-87282483D01*
X69165500Y-87222873D01*
X69165500Y-87212552D01*
X76044500Y-87212552D01*
X76044500Y-87437447D01*
X76073852Y-87660393D01*
X76132057Y-87877615D01*
X76132059Y-87877622D01*
X76218110Y-88085367D01*
X76218114Y-88085377D01*
X76330552Y-88280125D01*
X76467449Y-88458533D01*
X76467455Y-88458540D01*
X76626459Y-88617544D01*
X76626466Y-88617550D01*
X76804874Y-88754447D01*
X76999622Y-88866885D01*
X76999623Y-88866885D01*
X76999626Y-88866887D01*
X77207387Y-88952944D01*
X77424604Y-89011147D01*
X77647560Y-89040500D01*
X77647567Y-89040500D01*
X77872433Y-89040500D01*
X77872440Y-89040500D01*
X78095396Y-89011147D01*
X78312613Y-88952944D01*
X78520374Y-88866887D01*
X78715126Y-88754447D01*
X78893535Y-88617549D01*
X79052549Y-88458535D01*
X79189447Y-88280126D01*
X79301887Y-88085374D01*
X79387944Y-87877613D01*
X79446147Y-87660396D01*
X79475500Y-87437440D01*
X79475500Y-87212560D01*
X79475499Y-87212552D01*
X87284500Y-87212552D01*
X87284500Y-87437447D01*
X87313852Y-87660393D01*
X87372057Y-87877615D01*
X87372059Y-87877622D01*
X87458110Y-88085367D01*
X87458114Y-88085377D01*
X87570552Y-88280125D01*
X87707449Y-88458533D01*
X87707455Y-88458540D01*
X87866459Y-88617544D01*
X87866466Y-88617550D01*
X88044874Y-88754447D01*
X88239622Y-88866885D01*
X88239623Y-88866885D01*
X88239626Y-88866887D01*
X88447387Y-88952944D01*
X88664604Y-89011147D01*
X88887560Y-89040500D01*
X88887567Y-89040500D01*
X89112433Y-89040500D01*
X89112440Y-89040500D01*
X89335396Y-89011147D01*
X89552613Y-88952944D01*
X89760374Y-88866887D01*
X89955126Y-88754447D01*
X90133535Y-88617549D01*
X90292549Y-88458535D01*
X90429447Y-88280126D01*
X90541887Y-88085374D01*
X90627944Y-87877613D01*
X90686147Y-87660396D01*
X90715500Y-87437440D01*
X90715500Y-87212560D01*
X90714433Y-87204459D01*
X90700168Y-87096104D01*
X90686147Y-86989604D01*
X90627944Y-86772387D01*
X90541887Y-86564626D01*
X90514963Y-86517993D01*
X90468002Y-86436653D01*
X90434549Y-86378711D01*
X116649500Y-86378711D01*
X116649500Y-86621288D01*
X116681161Y-86861785D01*
X116743947Y-87096104D01*
X116796457Y-87222873D01*
X116836776Y-87320212D01*
X116958064Y-87530289D01*
X116958066Y-87530292D01*
X116958067Y-87530293D01*
X117105733Y-87722736D01*
X117105739Y-87722743D01*
X117277256Y-87894260D01*
X117277262Y-87894265D01*
X117469711Y-88041936D01*
X117679788Y-88163224D01*
X117903900Y-88256054D01*
X118138211Y-88318838D01*
X118318586Y-88342584D01*
X118378711Y-88350500D01*
X118378712Y-88350500D01*
X118621289Y-88350500D01*
X118669388Y-88344167D01*
X118861789Y-88318838D01*
X119096100Y-88256054D01*
X119320212Y-88163224D01*
X119530289Y-88041936D01*
X119722738Y-87894265D01*
X119894265Y-87722738D01*
X120041936Y-87530289D01*
X120163224Y-87320212D01*
X120256054Y-87096100D01*
X120318838Y-86861789D01*
X120350500Y-86621288D01*
X120350500Y-86378712D01*
X120349336Y-86369874D01*
X120318838Y-86138214D01*
X120318838Y-86138211D01*
X120256054Y-85903900D01*
X120163224Y-85679788D01*
X120041936Y-85469711D01*
X119894265Y-85277262D01*
X119894260Y-85277256D01*
X119722743Y-85105739D01*
X119722736Y-85105733D01*
X119530293Y-84958067D01*
X119530292Y-84958066D01*
X119530289Y-84958064D01*
X119320212Y-84836776D01*
X119320205Y-84836773D01*
X119096104Y-84743947D01*
X118861785Y-84681161D01*
X118621289Y-84649500D01*
X118621288Y-84649500D01*
X118378712Y-84649500D01*
X118378711Y-84649500D01*
X118138214Y-84681161D01*
X117903895Y-84743947D01*
X117679794Y-84836773D01*
X117679785Y-84836777D01*
X117469706Y-84958067D01*
X117277263Y-85105733D01*
X117277256Y-85105739D01*
X117105739Y-85277256D01*
X117105733Y-85277263D01*
X116958067Y-85469706D01*
X116836777Y-85679785D01*
X116836773Y-85679794D01*
X116743947Y-85903895D01*
X116681161Y-86138214D01*
X116649500Y-86378711D01*
X90434549Y-86378711D01*
X90429447Y-86369874D01*
X90292550Y-86191466D01*
X90292544Y-86191459D01*
X90133540Y-86032455D01*
X90133533Y-86032449D01*
X89955125Y-85895552D01*
X89760377Y-85783114D01*
X89760367Y-85783110D01*
X89552622Y-85697059D01*
X89552615Y-85697057D01*
X89552616Y-85697057D01*
X89552613Y-85697056D01*
X89399926Y-85656143D01*
X89335393Y-85638852D01*
X89112447Y-85609500D01*
X89112440Y-85609500D01*
X88887560Y-85609500D01*
X88887552Y-85609500D01*
X88664606Y-85638852D01*
X88511917Y-85679765D01*
X88447387Y-85697056D01*
X88447385Y-85697056D01*
X88447384Y-85697057D01*
X88447377Y-85697059D01*
X88239632Y-85783110D01*
X88239622Y-85783114D01*
X88044874Y-85895552D01*
X87866466Y-86032449D01*
X87866459Y-86032455D01*
X87707455Y-86191459D01*
X87707449Y-86191466D01*
X87570552Y-86369874D01*
X87458114Y-86564622D01*
X87458110Y-86564632D01*
X87372059Y-86772377D01*
X87372057Y-86772384D01*
X87313852Y-86989606D01*
X87284500Y-87212552D01*
X79475499Y-87212552D01*
X79474433Y-87204459D01*
X79460168Y-87096104D01*
X79446147Y-86989604D01*
X79387944Y-86772387D01*
X79301887Y-86564626D01*
X79274963Y-86517993D01*
X79189447Y-86369874D01*
X79052550Y-86191466D01*
X79052544Y-86191459D01*
X78893540Y-86032455D01*
X78893533Y-86032449D01*
X78715125Y-85895552D01*
X78520377Y-85783114D01*
X78520367Y-85783110D01*
X78312622Y-85697059D01*
X78312615Y-85697057D01*
X78312616Y-85697057D01*
X78312613Y-85697056D01*
X78159926Y-85656143D01*
X78095393Y-85638852D01*
X77872447Y-85609500D01*
X77872440Y-85609500D01*
X77647560Y-85609500D01*
X77647552Y-85609500D01*
X77424606Y-85638852D01*
X77271917Y-85679765D01*
X77207387Y-85697056D01*
X77207385Y-85697056D01*
X77207384Y-85697057D01*
X77207377Y-85697059D01*
X76999632Y-85783110D01*
X76999622Y-85783114D01*
X76804874Y-85895552D01*
X76626466Y-86032449D01*
X76626459Y-86032455D01*
X76467455Y-86191459D01*
X76467449Y-86191466D01*
X76330552Y-86369874D01*
X76218114Y-86564622D01*
X76218110Y-86564632D01*
X76132059Y-86772377D01*
X76132057Y-86772384D01*
X76073852Y-86989606D01*
X76044500Y-87212552D01*
X69165500Y-87212552D01*
X69165499Y-86325000D01*
X69165499Y-85427129D01*
X69165498Y-85427123D01*
X69159091Y-85367516D01*
X69108797Y-85232671D01*
X69108793Y-85232664D01*
X69022547Y-85117455D01*
X69022544Y-85117452D01*
X68907335Y-85031206D01*
X68907328Y-85031202D01*
X68775917Y-84982189D01*
X68719983Y-84940318D01*
X68695566Y-84874853D01*
X68710418Y-84806580D01*
X68731563Y-84778332D01*
X68845104Y-84664792D01*
X68970051Y-84492816D01*
X69066557Y-84303412D01*
X69132246Y-84101243D01*
X69165500Y-83891287D01*
X69165500Y-83678713D01*
X69132246Y-83468757D01*
X69066557Y-83266588D01*
X69038652Y-83211821D01*
X76322000Y-83211821D01*
X76322000Y-83438178D01*
X76357407Y-83661733D01*
X76427354Y-83877005D01*
X76504888Y-84029172D01*
X76530112Y-84078676D01*
X76663155Y-84261794D01*
X76823206Y-84421845D01*
X77006324Y-84554888D01*
X77101605Y-84603436D01*
X77207994Y-84657645D01*
X77207996Y-84657645D01*
X77207999Y-84657647D01*
X77280371Y-84681162D01*
X77423266Y-84727592D01*
X77646822Y-84763000D01*
X77646827Y-84763000D01*
X77873178Y-84763000D01*
X78096733Y-84727592D01*
X78312001Y-84657647D01*
X78513676Y-84554888D01*
X78696794Y-84421845D01*
X78856845Y-84261794D01*
X78989888Y-84078676D01*
X79092647Y-83877001D01*
X79111065Y-83820313D01*
X79150502Y-83762640D01*
X79214861Y-83735441D01*
X79283707Y-83747356D01*
X79335183Y-83794600D01*
X79350613Y-83834441D01*
X79380261Y-83983491D01*
X79380264Y-83983501D01*
X79440602Y-84129172D01*
X79440609Y-84129185D01*
X79528210Y-84260288D01*
X79528213Y-84260292D01*
X79639707Y-84371786D01*
X79639711Y-84371789D01*
X79770814Y-84459390D01*
X79770827Y-84459397D01*
X79915185Y-84519191D01*
X79955414Y-84546071D01*
X80179453Y-84770111D01*
X80179454Y-84770112D01*
X80294192Y-84846777D01*
X80421667Y-84899578D01*
X80421672Y-84899580D01*
X80421676Y-84899580D01*
X80421677Y-84899581D01*
X80557003Y-84926500D01*
X80557006Y-84926500D01*
X85242996Y-84926500D01*
X85334040Y-84908389D01*
X85378328Y-84899580D01*
X85442069Y-84873177D01*
X85505807Y-84846777D01*
X85505808Y-84846776D01*
X85505811Y-84846775D01*
X85620543Y-84770114D01*
X85944588Y-84446067D01*
X85984810Y-84419192D01*
X86099255Y-84371789D01*
X86129173Y-84359397D01*
X86129176Y-84359395D01*
X86129179Y-84359394D01*
X86260289Y-84271789D01*
X86371789Y-84160289D01*
X86459394Y-84029179D01*
X86519737Y-83883497D01*
X86550500Y-83728842D01*
X86550500Y-83571158D01*
X86550500Y-83571155D01*
X86550499Y-83571153D01*
X86534193Y-83489179D01*
X86519737Y-83416503D01*
X86500812Y-83370814D01*
X86459397Y-83270827D01*
X86459391Y-83270816D01*
X86419972Y-83211821D01*
X87562000Y-83211821D01*
X87562000Y-83438178D01*
X87597407Y-83661733D01*
X87667354Y-83877005D01*
X87744888Y-84029172D01*
X87770112Y-84078676D01*
X87903155Y-84261794D01*
X88063206Y-84421845D01*
X88246324Y-84554888D01*
X88341605Y-84603436D01*
X88447994Y-84657645D01*
X88447996Y-84657645D01*
X88447999Y-84657647D01*
X88520371Y-84681162D01*
X88663266Y-84727592D01*
X88886822Y-84763000D01*
X88886827Y-84763000D01*
X89113178Y-84763000D01*
X89336733Y-84727592D01*
X89552001Y-84657647D01*
X89753676Y-84554888D01*
X89936794Y-84421845D01*
X90096845Y-84261794D01*
X90229888Y-84078676D01*
X90332647Y-83877001D01*
X90402592Y-83661733D01*
X90438000Y-83438178D01*
X90438000Y-83211821D01*
X90402592Y-82988266D01*
X90332645Y-82772994D01*
X90257484Y-82625484D01*
X90229888Y-82571324D01*
X90096845Y-82388206D01*
X89936794Y-82228155D01*
X89753676Y-82095112D01*
X89552005Y-81992354D01*
X89336733Y-81922407D01*
X89113178Y-81887000D01*
X89113173Y-81887000D01*
X88886827Y-81887000D01*
X88886822Y-81887000D01*
X88663266Y-81922407D01*
X88447994Y-81992354D01*
X88246323Y-82095112D01*
X88063203Y-82228157D01*
X87903157Y-82388203D01*
X87770112Y-82571323D01*
X87667354Y-82772994D01*
X87597407Y-82988266D01*
X87562000Y-83211821D01*
X86419972Y-83211821D01*
X86371789Y-83139711D01*
X86371786Y-83139707D01*
X86260292Y-83028213D01*
X86260288Y-83028210D01*
X86129185Y-82940609D01*
X86129172Y-82940602D01*
X85983501Y-82880264D01*
X85983489Y-82880261D01*
X85828845Y-82849500D01*
X85828842Y-82849500D01*
X85671158Y-82849500D01*
X85671155Y-82849500D01*
X85516510Y-82880261D01*
X85516498Y-82880264D01*
X85370827Y-82940602D01*
X85370814Y-82940609D01*
X85239711Y-83028210D01*
X85239707Y-83028213D01*
X85128213Y-83139707D01*
X85128210Y-83139711D01*
X85040609Y-83270814D01*
X85040604Y-83270824D01*
X84980809Y-83415183D01*
X84976178Y-83422113D01*
X84975082Y-83427154D01*
X84953932Y-83455409D01*
X84920164Y-83489179D01*
X84858842Y-83522665D01*
X84832480Y-83525500D01*
X81006318Y-83525500D01*
X80939279Y-83505815D01*
X80893524Y-83453011D01*
X80891757Y-83448952D01*
X80859397Y-83370827D01*
X80859390Y-83370814D01*
X80771789Y-83239711D01*
X80771786Y-83239707D01*
X80660292Y-83128213D01*
X80660288Y-83128210D01*
X80529185Y-83040609D01*
X80529172Y-83040602D01*
X80383501Y-82980264D01*
X80383489Y-82980261D01*
X80228845Y-82949500D01*
X80228842Y-82949500D01*
X80071158Y-82949500D01*
X80071155Y-82949500D01*
X79916510Y-82980261D01*
X79916498Y-82980264D01*
X79770827Y-83040602D01*
X79770814Y-83040609D01*
X79639711Y-83128210D01*
X79639707Y-83128213D01*
X79528213Y-83239707D01*
X79528210Y-83239711D01*
X79440609Y-83370814D01*
X79440604Y-83370824D01*
X79436561Y-83380586D01*
X79392720Y-83434989D01*
X79326426Y-83457054D01*
X79258726Y-83439775D01*
X79211116Y-83388637D01*
X79198000Y-83333133D01*
X79198000Y-83211821D01*
X79162592Y-82988266D01*
X79092645Y-82772994D01*
X79017484Y-82625484D01*
X78989888Y-82571324D01*
X78856845Y-82388206D01*
X78696794Y-82228155D01*
X78513676Y-82095112D01*
X78312005Y-81992354D01*
X78096733Y-81922407D01*
X77873178Y-81887000D01*
X77873173Y-81887000D01*
X77646827Y-81887000D01*
X77646822Y-81887000D01*
X77423266Y-81922407D01*
X77207994Y-81992354D01*
X77006323Y-82095112D01*
X76823203Y-82228157D01*
X76663157Y-82388203D01*
X76530112Y-82571323D01*
X76427354Y-82772994D01*
X76357407Y-82988266D01*
X76322000Y-83211821D01*
X69038652Y-83211821D01*
X68970051Y-83077184D01*
X68970049Y-83077181D01*
X68970048Y-83077179D01*
X68845109Y-82905213D01*
X68694786Y-82754890D01*
X68522820Y-82629951D01*
X68522115Y-82629591D01*
X68514054Y-82625485D01*
X68463259Y-82577512D01*
X68446463Y-82509692D01*
X68468999Y-82443556D01*
X68514054Y-82404515D01*
X68522816Y-82400051D01*
X68603500Y-82341431D01*
X68694786Y-82275109D01*
X68694788Y-82275106D01*
X68694792Y-82275104D01*
X68845104Y-82124792D01*
X68845106Y-82124788D01*
X68845109Y-82124786D01*
X68970048Y-81952820D01*
X68970047Y-81952820D01*
X68970051Y-81952816D01*
X69066557Y-81763412D01*
X69132246Y-81561243D01*
X69165500Y-81351287D01*
X69165500Y-81138713D01*
X69132246Y-80928757D01*
X69066557Y-80726588D01*
X68970051Y-80537184D01*
X68970049Y-80537181D01*
X68970048Y-80537179D01*
X68845109Y-80365213D01*
X68694786Y-80214890D01*
X68522820Y-80089951D01*
X68522115Y-80089591D01*
X68514054Y-80085485D01*
X68463259Y-80037512D01*
X68446463Y-79969692D01*
X68468999Y-79903556D01*
X68514054Y-79864515D01*
X68522816Y-79860051D01*
X68544789Y-79844086D01*
X68694786Y-79735109D01*
X68694788Y-79735106D01*
X68694792Y-79735104D01*
X68845104Y-79584792D01*
X68845106Y-79584788D01*
X68845109Y-79584786D01*
X68970048Y-79412820D01*
X68970047Y-79412820D01*
X68970051Y-79412816D01*
X69066557Y-79223412D01*
X69132246Y-79021243D01*
X69165500Y-78811287D01*
X69165500Y-78598713D01*
X69132246Y-78388757D01*
X69066557Y-78186588D01*
X68970051Y-77997184D01*
X68967304Y-77993403D01*
X68945720Y-77963694D01*
X68896302Y-77895675D01*
X108774500Y-77895675D01*
X108774500Y-78104324D01*
X108807137Y-78310389D01*
X108871612Y-78508820D01*
X108966193Y-78694446D01*
X108966330Y-78694714D01*
X109088965Y-78863505D01*
X109236495Y-79011035D01*
X109405286Y-79133670D01*
X109493116Y-79178421D01*
X109591179Y-79228387D01*
X109591181Y-79228387D01*
X109591184Y-79228389D01*
X109697545Y-79262948D01*
X109789610Y-79292862D01*
X109995676Y-79325500D01*
X109995681Y-79325500D01*
X110204324Y-79325500D01*
X110410389Y-79292862D01*
X110411894Y-79292373D01*
X110608816Y-79228389D01*
X110794714Y-79133670D01*
X110963505Y-79011035D01*
X111111035Y-78863505D01*
X111233670Y-78694714D01*
X111239794Y-78682692D01*
X111287766Y-78631896D01*
X111355586Y-78615098D01*
X111421722Y-78637632D01*
X111460765Y-78682689D01*
X111466755Y-78694446D01*
X111502627Y-78743818D01*
X111502627Y-78743819D01*
X112076212Y-78170234D01*
X112087482Y-78212292D01*
X112159890Y-78337708D01*
X112262292Y-78440110D01*
X112387708Y-78512518D01*
X112429765Y-78523787D01*
X111856179Y-79097371D01*
X111856180Y-79097372D01*
X111905543Y-79133236D01*
X111905556Y-79133244D01*
X112091372Y-79227924D01*
X112289727Y-79292373D01*
X112495721Y-79325000D01*
X112704279Y-79325000D01*
X112910272Y-79292373D01*
X113108627Y-79227924D01*
X113294451Y-79133240D01*
X113343818Y-79097372D01*
X113343818Y-79097371D01*
X112770234Y-78523787D01*
X112812292Y-78512518D01*
X112937708Y-78440110D01*
X113040110Y-78337708D01*
X113112518Y-78212292D01*
X113123787Y-78170234D01*
X113697371Y-78743818D01*
X113697372Y-78743818D01*
X113733241Y-78694449D01*
X113739231Y-78682694D01*
X113787203Y-78631896D01*
X113855023Y-78615098D01*
X113921159Y-78637632D01*
X113960203Y-78682689D01*
X113966330Y-78694714D01*
X114088965Y-78863505D01*
X114236495Y-79011035D01*
X114405286Y-79133670D01*
X114493116Y-79178421D01*
X114591179Y-79228387D01*
X114591181Y-79228387D01*
X114591184Y-79228389D01*
X114697545Y-79262948D01*
X114789610Y-79292862D01*
X114995676Y-79325500D01*
X114995681Y-79325500D01*
X115204324Y-79325500D01*
X115410389Y-79292862D01*
X115411894Y-79292373D01*
X115608816Y-79228389D01*
X115794714Y-79133670D01*
X115963505Y-79011035D01*
X116111035Y-78863505D01*
X116233670Y-78694714D01*
X116328389Y-78508816D01*
X116392862Y-78310389D01*
X116411183Y-78194714D01*
X116425500Y-78104324D01*
X116425500Y-77895675D01*
X116392862Y-77689610D01*
X116350713Y-77559890D01*
X116328389Y-77491184D01*
X116328387Y-77491181D01*
X116328387Y-77491179D01*
X116275689Y-77387754D01*
X116233670Y-77305286D01*
X116111035Y-77136495D01*
X115963505Y-76988965D01*
X115794714Y-76866330D01*
X115674907Y-76805286D01*
X115608818Y-76771612D01*
X115608817Y-76771611D01*
X115608816Y-76771611D01*
X115436181Y-76715518D01*
X115415780Y-76701569D01*
X115393297Y-76691301D01*
X115387443Y-76682192D01*
X115378506Y-76676081D01*
X115368884Y-76653314D01*
X115355523Y-76632523D01*
X115353163Y-76616114D01*
X115351308Y-76611723D01*
X115350500Y-76597588D01*
X115350500Y-76488585D01*
X115370185Y-76421546D01*
X115422989Y-76375791D01*
X115435489Y-76370881D01*
X115544334Y-76334814D01*
X115693656Y-76242712D01*
X115817712Y-76118656D01*
X115909814Y-75969334D01*
X115964999Y-75802797D01*
X115975500Y-75700009D01*
X115975499Y-75099992D01*
X115975085Y-75095943D01*
X115964999Y-74997203D01*
X115964998Y-74997200D01*
X115909814Y-74830666D01*
X115817712Y-74681344D01*
X115693656Y-74557288D01*
X115690342Y-74555243D01*
X115688546Y-74553248D01*
X115687989Y-74552807D01*
X115688064Y-74552711D01*
X115643618Y-74503297D01*
X115632397Y-74434334D01*
X115660240Y-74370252D01*
X115690348Y-74344165D01*
X115693342Y-74342318D01*
X115817315Y-74218345D01*
X115909356Y-74069124D01*
X115909358Y-74069119D01*
X115964505Y-73902697D01*
X115964506Y-73902690D01*
X115974999Y-73799986D01*
X115975000Y-73799973D01*
X115975000Y-73750000D01*
X113525001Y-73750000D01*
X113525001Y-73799986D01*
X113535494Y-73902697D01*
X113590641Y-74069119D01*
X113590643Y-74069124D01*
X113682684Y-74218345D01*
X113806655Y-74342316D01*
X113806659Y-74342319D01*
X113809656Y-74344168D01*
X113811279Y-74345972D01*
X113812323Y-74346798D01*
X113812181Y-74346976D01*
X113856381Y-74396116D01*
X113867602Y-74465079D01*
X113839759Y-74529161D01*
X113809661Y-74555241D01*
X113806349Y-74557283D01*
X113806343Y-74557288D01*
X113682289Y-74681342D01*
X113590187Y-74830663D01*
X113590185Y-74830668D01*
X113584362Y-74848241D01*
X113535001Y-74997203D01*
X113535001Y-74997204D01*
X113535000Y-74997204D01*
X113524500Y-75099983D01*
X113524500Y-75700001D01*
X113524501Y-75700019D01*
X113535000Y-75802796D01*
X113535001Y-75802799D01*
X113590185Y-75969331D01*
X113590187Y-75969336D01*
X113625069Y-76025888D01*
X113682288Y-76118656D01*
X113806344Y-76242712D01*
X113955666Y-76334814D01*
X114064505Y-76370879D01*
X114121949Y-76410652D01*
X114148772Y-76475167D01*
X114149500Y-76488585D01*
X114149500Y-77024598D01*
X114129815Y-77091637D01*
X114113181Y-77112279D01*
X114088967Y-77136492D01*
X114088966Y-77136493D01*
X113966328Y-77305288D01*
X113960201Y-77317313D01*
X113912225Y-77368108D01*
X113844404Y-77384901D01*
X113778270Y-77362362D01*
X113739232Y-77317308D01*
X113733244Y-77305555D01*
X113733236Y-77305543D01*
X113697372Y-77256180D01*
X113697371Y-77256179D01*
X113123787Y-77829764D01*
X113112518Y-77787708D01*
X113040110Y-77662292D01*
X112937708Y-77559890D01*
X112812292Y-77487482D01*
X112770233Y-77476212D01*
X113343819Y-76902627D01*
X113294451Y-76866759D01*
X113108627Y-76772075D01*
X112910272Y-76707626D01*
X112704279Y-76675000D01*
X112495721Y-76675000D01*
X112289727Y-76707626D01*
X112091372Y-76772075D01*
X111905552Y-76866757D01*
X111856180Y-76902627D01*
X112429766Y-77476212D01*
X112387708Y-77487482D01*
X112262292Y-77559890D01*
X112159890Y-77662292D01*
X112087482Y-77787708D01*
X112076212Y-77829765D01*
X111502627Y-77256180D01*
X111466755Y-77305555D01*
X111466754Y-77305556D01*
X111460764Y-77317313D01*
X111457975Y-77320265D01*
X111456974Y-77324202D01*
X111434185Y-77345453D01*
X111412788Y-77368108D01*
X111408845Y-77369084D01*
X111405875Y-77371854D01*
X111375216Y-77377410D01*
X111344967Y-77384901D01*
X111341122Y-77383590D01*
X111337126Y-77384315D01*
X111308329Y-77372414D01*
X111278832Y-77362361D01*
X111275228Y-77358734D01*
X111272553Y-77357629D01*
X111265482Y-77348926D01*
X111248482Y-77331817D01*
X111243643Y-77324860D01*
X111233670Y-77305286D01*
X111148446Y-77187987D01*
X111147701Y-77186915D01*
X111137036Y-77154957D01*
X111125702Y-77123192D01*
X111125633Y-77120790D01*
X111125583Y-77120639D01*
X111125624Y-77120475D01*
X111125500Y-77116113D01*
X111125500Y-76413585D01*
X111145185Y-76346546D01*
X111197989Y-76300791D01*
X111210489Y-76295881D01*
X111319334Y-76259814D01*
X111468656Y-76167712D01*
X111592712Y-76043656D01*
X111684814Y-75894334D01*
X111739999Y-75727797D01*
X111750500Y-75625009D01*
X111750499Y-75024992D01*
X111748962Y-75009949D01*
X111739999Y-74922203D01*
X111739998Y-74922200D01*
X111715329Y-74847754D01*
X111684814Y-74755666D01*
X111592712Y-74606344D01*
X111468656Y-74482288D01*
X111465342Y-74480243D01*
X111463546Y-74478248D01*
X111462989Y-74477807D01*
X111463064Y-74477711D01*
X111418618Y-74428297D01*
X111407397Y-74359334D01*
X111435240Y-74295252D01*
X111465348Y-74269165D01*
X111468342Y-74267318D01*
X111592315Y-74143345D01*
X111684356Y-73994124D01*
X111684358Y-73994119D01*
X111739505Y-73827697D01*
X111739506Y-73827690D01*
X111749999Y-73724986D01*
X111750000Y-73724973D01*
X111750000Y-73675000D01*
X109300001Y-73675000D01*
X109300001Y-73724986D01*
X109310494Y-73827697D01*
X109365641Y-73994119D01*
X109365643Y-73994124D01*
X109457684Y-74143345D01*
X109581655Y-74267316D01*
X109581659Y-74267319D01*
X109584656Y-74269168D01*
X109586279Y-74270972D01*
X109587323Y-74271798D01*
X109587181Y-74271976D01*
X109631381Y-74321116D01*
X109642602Y-74390079D01*
X109614759Y-74454161D01*
X109584661Y-74480241D01*
X109581349Y-74482283D01*
X109581343Y-74482288D01*
X109457289Y-74606342D01*
X109365187Y-74755663D01*
X109365186Y-74755666D01*
X109310001Y-74922203D01*
X109310001Y-74922204D01*
X109310000Y-74922204D01*
X109299500Y-75024983D01*
X109299500Y-75625001D01*
X109299501Y-75625019D01*
X109310000Y-75727796D01*
X109310001Y-75727799D01*
X109334854Y-75802799D01*
X109365186Y-75894334D01*
X109457288Y-76043656D01*
X109581344Y-76167712D01*
X109730666Y-76259814D01*
X109839505Y-76295879D01*
X109859536Y-76309749D01*
X109881703Y-76319872D01*
X109887751Y-76329284D01*
X109896949Y-76335652D01*
X109906303Y-76358151D01*
X109919477Y-76378650D01*
X109921935Y-76395750D01*
X109923772Y-76400167D01*
X109924500Y-76413585D01*
X109924500Y-76579867D01*
X109904815Y-76646906D01*
X109852011Y-76692661D01*
X109819901Y-76702340D01*
X109789611Y-76707138D01*
X109591181Y-76771612D01*
X109405285Y-76866330D01*
X109236493Y-76988966D01*
X109088966Y-77136493D01*
X108966330Y-77305285D01*
X108871612Y-77491179D01*
X108807137Y-77689610D01*
X108774500Y-77895675D01*
X68896302Y-77895675D01*
X68845109Y-77825213D01*
X68694786Y-77674890D01*
X68522820Y-77549951D01*
X68522115Y-77549591D01*
X68514054Y-77545485D01*
X68463259Y-77497512D01*
X68446463Y-77429692D01*
X68468999Y-77363556D01*
X68514054Y-77324515D01*
X68522816Y-77320051D01*
X68610729Y-77256179D01*
X68694786Y-77195109D01*
X68694788Y-77195106D01*
X68694792Y-77195104D01*
X68845104Y-77044792D01*
X68845106Y-77044788D01*
X68845109Y-77044786D01*
X68970048Y-76872820D01*
X68970050Y-76872817D01*
X68970051Y-76872816D01*
X69066557Y-76683412D01*
X69132246Y-76481243D01*
X69165500Y-76271287D01*
X69165500Y-76058713D01*
X69132246Y-75848757D01*
X69066557Y-75646588D01*
X68970051Y-75457184D01*
X68970049Y-75457181D01*
X68970048Y-75457179D01*
X68845109Y-75285213D01*
X68694786Y-75134890D01*
X68522820Y-75009951D01*
X68333414Y-74913444D01*
X68333413Y-74913443D01*
X68333412Y-74913443D01*
X68131243Y-74847754D01*
X68131241Y-74847753D01*
X68131240Y-74847753D01*
X67969957Y-74822208D01*
X67921287Y-74814500D01*
X67708713Y-74814500D01*
X67660042Y-74822208D01*
X67498760Y-74847753D01*
X67498757Y-74847754D01*
X67337937Y-74900008D01*
X67296585Y-74913444D01*
X67107179Y-75009951D01*
X66935213Y-75134890D01*
X66784890Y-75285213D01*
X66659949Y-75457182D01*
X66655202Y-75466499D01*
X66607227Y-75517293D01*
X66539405Y-75534087D01*
X66473271Y-75511548D01*
X66434234Y-75466495D01*
X66429622Y-75457444D01*
X66304727Y-75285540D01*
X66304723Y-75285535D01*
X66154464Y-75135276D01*
X66154459Y-75135272D01*
X65982557Y-75010379D01*
X65793215Y-74913903D01*
X65591124Y-74848241D01*
X65525000Y-74837768D01*
X65525000Y-75731988D01*
X65467993Y-75699075D01*
X65340826Y-75665000D01*
X65209174Y-75665000D01*
X65082007Y-75699075D01*
X65025000Y-75731988D01*
X65025000Y-74837768D01*
X65024999Y-74837768D01*
X64958875Y-74848241D01*
X64756784Y-74913903D01*
X64605795Y-74990837D01*
X64537126Y-75003733D01*
X64472385Y-74977457D01*
X64432128Y-74920350D01*
X64425500Y-74880352D01*
X64425500Y-72574986D01*
X82850001Y-72574986D01*
X82860494Y-72677697D01*
X82915641Y-72844119D01*
X82915643Y-72844124D01*
X83007684Y-72993345D01*
X83131654Y-73117315D01*
X83280875Y-73209356D01*
X83280880Y-73209358D01*
X83447302Y-73264505D01*
X83447309Y-73264506D01*
X83550019Y-73274999D01*
X83599999Y-73274998D01*
X83600000Y-73274998D01*
X83600000Y-72300000D01*
X82850001Y-72300000D01*
X82850001Y-72574986D01*
X64425500Y-72574986D01*
X64425500Y-70149986D01*
X82825001Y-70149986D01*
X82835494Y-70252697D01*
X82890641Y-70419119D01*
X82890643Y-70419124D01*
X82982684Y-70568345D01*
X83106655Y-70692316D01*
X83106659Y-70692319D01*
X83183429Y-70739672D01*
X83230154Y-70791620D01*
X83241375Y-70860582D01*
X83213532Y-70924664D01*
X83183430Y-70950748D01*
X83131656Y-70982682D01*
X83007684Y-71106654D01*
X82915643Y-71255875D01*
X82915641Y-71255880D01*
X82860494Y-71422302D01*
X82860493Y-71422309D01*
X82850000Y-71525013D01*
X82850000Y-71800000D01*
X83600000Y-71800000D01*
X83600000Y-70970589D01*
X83577834Y-70929996D01*
X83575000Y-70903638D01*
X83575000Y-69875000D01*
X82825001Y-69875000D01*
X82825001Y-70149986D01*
X64425500Y-70149986D01*
X64425500Y-68549986D01*
X80075001Y-68549986D01*
X80085494Y-68652697D01*
X80140641Y-68819119D01*
X80140643Y-68819124D01*
X80232684Y-68968345D01*
X80356654Y-69092315D01*
X80505875Y-69184356D01*
X80505880Y-69184358D01*
X80672302Y-69239505D01*
X80672309Y-69239506D01*
X80775019Y-69249999D01*
X81049999Y-69249999D01*
X81550000Y-69249999D01*
X81824972Y-69249999D01*
X81824986Y-69249998D01*
X81927697Y-69239505D01*
X82094119Y-69184358D01*
X82094124Y-69184356D01*
X82243345Y-69092315D01*
X82367315Y-68968345D01*
X82459356Y-68819124D01*
X82459358Y-68819119D01*
X82514505Y-68652697D01*
X82514506Y-68652690D01*
X82524999Y-68549986D01*
X82525000Y-68549973D01*
X82525000Y-68500000D01*
X81550000Y-68500000D01*
X81550000Y-69249999D01*
X81049999Y-69249999D01*
X81050000Y-69249998D01*
X81050000Y-68500000D01*
X80075001Y-68500000D01*
X80075001Y-68549986D01*
X64425500Y-68549986D01*
X64425500Y-66221153D01*
X78899500Y-66221153D01*
X78899500Y-66378846D01*
X78930261Y-66533489D01*
X78930264Y-66533501D01*
X78990602Y-66679172D01*
X78990609Y-66679185D01*
X79078210Y-66810288D01*
X79078213Y-66810292D01*
X79189707Y-66921786D01*
X79189711Y-66921789D01*
X79320814Y-67009390D01*
X79320827Y-67009397D01*
X79466498Y-67069735D01*
X79466503Y-67069737D01*
X79621153Y-67100499D01*
X79621156Y-67100500D01*
X79621158Y-67100500D01*
X79778844Y-67100500D01*
X79778845Y-67100499D01*
X79933497Y-67069737D01*
X80017971Y-67034747D01*
X80074460Y-67011349D01*
X80143929Y-67003880D01*
X80206408Y-67035155D01*
X80210031Y-67038668D01*
X80220005Y-67048742D01*
X80232288Y-67068656D01*
X80356344Y-67192712D01*
X80372261Y-67202530D01*
X80382678Y-67213051D01*
X80392520Y-67231292D01*
X80406379Y-67246699D01*
X80408774Y-67261416D01*
X80415856Y-67274541D01*
X80414273Y-67295207D01*
X80417603Y-67315661D01*
X80411661Y-67329336D01*
X80410523Y-67344207D01*
X80398018Y-67360738D01*
X80389761Y-67379744D01*
X80371996Y-67395138D01*
X80368372Y-67399931D01*
X80365066Y-67401145D01*
X80359665Y-67405826D01*
X80356660Y-67407679D01*
X80356655Y-67407683D01*
X80232684Y-67531654D01*
X80140643Y-67680875D01*
X80140641Y-67680880D01*
X80085494Y-67847302D01*
X80085493Y-67847309D01*
X80075000Y-67950013D01*
X80075000Y-68000000D01*
X82524999Y-68000000D01*
X82524999Y-67950028D01*
X82524998Y-67950013D01*
X82514505Y-67847302D01*
X82459358Y-67680880D01*
X82459356Y-67680875D01*
X82455724Y-67674986D01*
X82750001Y-67674986D01*
X82760494Y-67777697D01*
X82815641Y-67944119D01*
X82815643Y-67944124D01*
X82907684Y-68093345D01*
X83031654Y-68217315D01*
X83173961Y-68305091D01*
X83220685Y-68357039D01*
X83231908Y-68426002D01*
X83204064Y-68490084D01*
X83173961Y-68516168D01*
X83106659Y-68557680D01*
X83106655Y-68557683D01*
X82982684Y-68681654D01*
X82890643Y-68830875D01*
X82890641Y-68830880D01*
X82835494Y-68997302D01*
X82835493Y-68997309D01*
X82825000Y-69100013D01*
X82825000Y-69375000D01*
X83575000Y-69375000D01*
X83575000Y-68505000D01*
X83538681Y-68468681D01*
X83540752Y-68466609D01*
X83511206Y-68432511D01*
X83500000Y-68381000D01*
X83500000Y-67400000D01*
X82750001Y-67400000D01*
X82750001Y-67674986D01*
X82455724Y-67674986D01*
X82367315Y-67531654D01*
X82274498Y-67438837D01*
X82222917Y-67392846D01*
X82209979Y-67372073D01*
X82193617Y-67353880D01*
X82191837Y-67342943D01*
X82185980Y-67333538D01*
X82186326Y-67309070D01*
X82182397Y-67284917D01*
X82186813Y-67274754D01*
X82186970Y-67263676D01*
X82200490Y-67243279D01*
X82210243Y-67220836D01*
X82222282Y-67210404D01*
X82225574Y-67205439D01*
X82230526Y-67203261D01*
X82240344Y-67194754D01*
X82243656Y-67192712D01*
X82367712Y-67068656D01*
X82459814Y-66919334D01*
X82508294Y-66773028D01*
X82548067Y-66715585D01*
X82612582Y-66688762D01*
X82681358Y-66701077D01*
X82732558Y-66748620D01*
X82750000Y-66812034D01*
X82750000Y-66900000D01*
X83500000Y-66900000D01*
X83500000Y-65925000D01*
X84000000Y-65925000D01*
X84000000Y-68270000D01*
X84036319Y-68306319D01*
X84034247Y-68308390D01*
X84063794Y-68342489D01*
X84075000Y-68394000D01*
X84075000Y-70704410D01*
X84097166Y-70745004D01*
X84100000Y-70771362D01*
X84100000Y-73274999D01*
X84149972Y-73274999D01*
X84149986Y-73274998D01*
X84252697Y-73264505D01*
X84419119Y-73209358D01*
X84419124Y-73209356D01*
X84568345Y-73117315D01*
X84692318Y-72993342D01*
X84694165Y-72990348D01*
X84695969Y-72988724D01*
X84696798Y-72987677D01*
X84696976Y-72987818D01*
X84746110Y-72943621D01*
X84815073Y-72932396D01*
X84879156Y-72960236D01*
X84905243Y-72990341D01*
X84907288Y-72993656D01*
X85031344Y-73117712D01*
X85180666Y-73209814D01*
X85347203Y-73264999D01*
X85449991Y-73275500D01*
X86050008Y-73275499D01*
X86050016Y-73275498D01*
X86050019Y-73275498D01*
X86112445Y-73269121D01*
X86152797Y-73264999D01*
X86319334Y-73209814D01*
X86395710Y-73162705D01*
X86463099Y-73144266D01*
X86529763Y-73165188D01*
X86548485Y-73180564D01*
X86564707Y-73196786D01*
X86564711Y-73196789D01*
X86695814Y-73284390D01*
X86695827Y-73284397D01*
X86841498Y-73344735D01*
X86841503Y-73344737D01*
X86996153Y-73375499D01*
X86996156Y-73375500D01*
X86996158Y-73375500D01*
X87153844Y-73375500D01*
X87153845Y-73375499D01*
X87308497Y-73344737D01*
X87454179Y-73284394D01*
X87585289Y-73196789D01*
X87696789Y-73085289D01*
X87784394Y-72954179D01*
X87844737Y-72808497D01*
X87875500Y-72653842D01*
X87875500Y-72496158D01*
X87875500Y-72496155D01*
X87875499Y-72496153D01*
X87874403Y-72490641D01*
X87844737Y-72341503D01*
X87827546Y-72300000D01*
X87784397Y-72195827D01*
X87784390Y-72195814D01*
X87696789Y-72064711D01*
X87696786Y-72064707D01*
X87585292Y-71953213D01*
X87585288Y-71953210D01*
X87454185Y-71865609D01*
X87454172Y-71865602D01*
X87309814Y-71805808D01*
X87269585Y-71778928D01*
X86996546Y-71505888D01*
X86996545Y-71505887D01*
X86881807Y-71429222D01*
X86772544Y-71383965D01*
X86718140Y-71340124D01*
X86702291Y-71308410D01*
X86684814Y-71255666D01*
X86592712Y-71106344D01*
X86468656Y-70982288D01*
X86468652Y-70982285D01*
X86392522Y-70935327D01*
X86345797Y-70883379D01*
X86334576Y-70814417D01*
X86362419Y-70750335D01*
X86392518Y-70724253D01*
X86443656Y-70692712D01*
X86567712Y-70568656D01*
X86659814Y-70419334D01*
X86690421Y-70326968D01*
X103819000Y-70326968D01*
X103819000Y-70673031D01*
X103857742Y-71016885D01*
X103857745Y-71016903D01*
X103934747Y-71354273D01*
X103934751Y-71354285D01*
X104049039Y-71680899D01*
X104049048Y-71680921D01*
X104199183Y-71992680D01*
X104239126Y-72056249D01*
X104383297Y-72285696D01*
X104599056Y-72556249D01*
X104843751Y-72800944D01*
X105114304Y-73016703D01*
X105286679Y-73125013D01*
X105407319Y-73200816D01*
X105719078Y-73350951D01*
X105719087Y-73350954D01*
X105719094Y-73350958D01*
X105719100Y-73350960D01*
X106045714Y-73465248D01*
X106045726Y-73465252D01*
X106383100Y-73542255D01*
X106383106Y-73542255D01*
X106383114Y-73542257D01*
X106612350Y-73568085D01*
X106726969Y-73580999D01*
X106726972Y-73581000D01*
X106726975Y-73581000D01*
X107073028Y-73581000D01*
X107073029Y-73580999D01*
X107248767Y-73561198D01*
X107416885Y-73542257D01*
X107416890Y-73542256D01*
X107416900Y-73542255D01*
X107754274Y-73465252D01*
X108080906Y-73350958D01*
X108093825Y-73344737D01*
X108392680Y-73200816D01*
X108392680Y-73200815D01*
X108392686Y-73200813D01*
X108393959Y-73200013D01*
X113525000Y-73200013D01*
X113525000Y-73250000D01*
X114500000Y-73250000D01*
X115000000Y-73250000D01*
X115974999Y-73250000D01*
X115974999Y-73200028D01*
X115974998Y-73200013D01*
X115964505Y-73097302D01*
X115909358Y-72930880D01*
X115909356Y-72930875D01*
X115817315Y-72781654D01*
X115693345Y-72657684D01*
X115544124Y-72565643D01*
X115544119Y-72565641D01*
X115377697Y-72510494D01*
X115377690Y-72510493D01*
X115274986Y-72500000D01*
X115000000Y-72500000D01*
X115000000Y-73250000D01*
X114500000Y-73250000D01*
X114500000Y-72500000D01*
X114225029Y-72500000D01*
X114225012Y-72500001D01*
X114122302Y-72510494D01*
X113955880Y-72565641D01*
X113955875Y-72565643D01*
X113806654Y-72657684D01*
X113682684Y-72781654D01*
X113590643Y-72930875D01*
X113590641Y-72930880D01*
X113535494Y-73097302D01*
X113535493Y-73097309D01*
X113525000Y-73200013D01*
X108393959Y-73200013D01*
X108513321Y-73125013D01*
X109300000Y-73125013D01*
X109300000Y-73175000D01*
X110275000Y-73175000D01*
X110775000Y-73175000D01*
X111749999Y-73175000D01*
X111749999Y-73125028D01*
X111749998Y-73125013D01*
X111739505Y-73022302D01*
X111684358Y-72855880D01*
X111684356Y-72855875D01*
X111592315Y-72706654D01*
X111468345Y-72582684D01*
X111319124Y-72490643D01*
X111319119Y-72490641D01*
X111152697Y-72435494D01*
X111152690Y-72435493D01*
X111049986Y-72425000D01*
X110775000Y-72425000D01*
X110775000Y-73175000D01*
X110275000Y-73175000D01*
X110275000Y-72425000D01*
X110000029Y-72425000D01*
X110000012Y-72425001D01*
X109897302Y-72435494D01*
X109730880Y-72490641D01*
X109730875Y-72490643D01*
X109581654Y-72582684D01*
X109457684Y-72706654D01*
X109365643Y-72855875D01*
X109365641Y-72855880D01*
X109310494Y-73022302D01*
X109310493Y-73022309D01*
X109300000Y-73125013D01*
X108513321Y-73125013D01*
X108685696Y-73016703D01*
X108956249Y-72800944D01*
X109200944Y-72556249D01*
X109416703Y-72285696D01*
X109600813Y-71992686D01*
X109662010Y-71865609D01*
X109750951Y-71680921D01*
X109750952Y-71680917D01*
X109750958Y-71680906D01*
X109865252Y-71354274D01*
X109942255Y-71016900D01*
X109946111Y-70982682D01*
X109967638Y-70791619D01*
X109981000Y-70673025D01*
X109981000Y-70326975D01*
X109952248Y-70071789D01*
X109942257Y-69983114D01*
X109942254Y-69983096D01*
X109937048Y-69960289D01*
X109865252Y-69645726D01*
X109750958Y-69319094D01*
X109750954Y-69319087D01*
X109750951Y-69319078D01*
X109600816Y-69007319D01*
X109489818Y-68830666D01*
X109416703Y-68714304D01*
X109200944Y-68443751D01*
X108956249Y-68199056D01*
X108685696Y-67983297D01*
X108392686Y-67799187D01*
X108392687Y-67799187D01*
X108392680Y-67799183D01*
X108080921Y-67649048D01*
X108080899Y-67649039D01*
X107754285Y-67534751D01*
X107754273Y-67534747D01*
X107416903Y-67457745D01*
X107416885Y-67457742D01*
X107073031Y-67419000D01*
X107073025Y-67419000D01*
X106726975Y-67419000D01*
X106726968Y-67419000D01*
X106383114Y-67457742D01*
X106383096Y-67457745D01*
X106045726Y-67534747D01*
X106045714Y-67534751D01*
X105719100Y-67649039D01*
X105719078Y-67649048D01*
X105407319Y-67799183D01*
X105114305Y-67983296D01*
X104843751Y-68199055D01*
X104599055Y-68443751D01*
X104383296Y-68714305D01*
X104199183Y-69007319D01*
X104049048Y-69319078D01*
X104049039Y-69319100D01*
X103934751Y-69645714D01*
X103934747Y-69645726D01*
X103857745Y-69983096D01*
X103857742Y-69983114D01*
X103819000Y-70326968D01*
X86690421Y-70326968D01*
X86695550Y-70311488D01*
X86735323Y-70254044D01*
X86799839Y-70227221D01*
X86837448Y-70228876D01*
X86946155Y-70250500D01*
X86946158Y-70250500D01*
X87103844Y-70250500D01*
X87103845Y-70250499D01*
X87258497Y-70219737D01*
X87404179Y-70159394D01*
X87535289Y-70071789D01*
X87646789Y-69960289D01*
X87734394Y-69829179D01*
X87794737Y-69683497D01*
X87825500Y-69528842D01*
X87825500Y-69371158D01*
X87825500Y-69371155D01*
X87825499Y-69371153D01*
X87815144Y-69319094D01*
X87794737Y-69216503D01*
X87781422Y-69184358D01*
X87734397Y-69070827D01*
X87734390Y-69070814D01*
X87646789Y-68939711D01*
X87646786Y-68939707D01*
X87535292Y-68828213D01*
X87535288Y-68828210D01*
X87404185Y-68740609D01*
X87404172Y-68740602D01*
X87258501Y-68680264D01*
X87258489Y-68680261D01*
X87103845Y-68649500D01*
X87103842Y-68649500D01*
X86946158Y-68649500D01*
X86946155Y-68649500D01*
X86791510Y-68680261D01*
X86791503Y-68680263D01*
X86708867Y-68714491D01*
X86639398Y-68721959D01*
X86576919Y-68690683D01*
X86572921Y-68686348D01*
X86572819Y-68686451D01*
X86443657Y-68557289D01*
X86443656Y-68557288D01*
X86301990Y-68469908D01*
X86255266Y-68417960D01*
X86244043Y-68348997D01*
X86271887Y-68284915D01*
X86301986Y-68258833D01*
X86368656Y-68217712D01*
X86492712Y-68093656D01*
X86584814Y-67944334D01*
X86639999Y-67777797D01*
X86650500Y-67675009D01*
X86650499Y-66624992D01*
X86646548Y-66586318D01*
X86639999Y-66522203D01*
X86639998Y-66522200D01*
X86592495Y-66378846D01*
X86584814Y-66355666D01*
X86492712Y-66206344D01*
X86397816Y-66111448D01*
X86364331Y-66050125D01*
X86369315Y-65980433D01*
X86370936Y-65976315D01*
X86419735Y-65858501D01*
X86419737Y-65858497D01*
X86450500Y-65703842D01*
X86450500Y-65546158D01*
X86450500Y-65546155D01*
X86450499Y-65546153D01*
X86424448Y-65415186D01*
X86419737Y-65391503D01*
X86406688Y-65360000D01*
X86359397Y-65245827D01*
X86359390Y-65245814D01*
X86271789Y-65114711D01*
X86271786Y-65114707D01*
X86160292Y-65003213D01*
X86160288Y-65003210D01*
X86029185Y-64915609D01*
X86029172Y-64915602D01*
X85883501Y-64855264D01*
X85883489Y-64855261D01*
X85728845Y-64824500D01*
X85728842Y-64824500D01*
X85571158Y-64824500D01*
X85571155Y-64824500D01*
X85416510Y-64855261D01*
X85416498Y-64855264D01*
X85270827Y-64915602D01*
X85270814Y-64915609D01*
X85139711Y-65003210D01*
X85139707Y-65003213D01*
X85028213Y-65114707D01*
X85028210Y-65114711D01*
X84940609Y-65245814D01*
X84940602Y-65245827D01*
X84880264Y-65391498D01*
X84880261Y-65391510D01*
X84849500Y-65546153D01*
X84849500Y-65703846D01*
X84880261Y-65858489D01*
X84880264Y-65858501D01*
X84929063Y-65976314D01*
X84931035Y-65994657D01*
X84937921Y-66011775D01*
X84934692Y-66028675D01*
X84936532Y-66045784D01*
X84928272Y-66062283D01*
X84924811Y-66080404D01*
X84906904Y-66104970D01*
X84905256Y-66108263D01*
X84904386Y-66109188D01*
X84903275Y-66110356D01*
X84807288Y-66206344D01*
X84798475Y-66220631D01*
X84789590Y-66229981D01*
X84770066Y-66241295D01*
X84753291Y-66256383D01*
X84740420Y-66258476D01*
X84729139Y-66265015D01*
X84706600Y-66263978D01*
X84684328Y-66267602D01*
X84672368Y-66262404D01*
X84659343Y-66261806D01*
X84640941Y-66248748D01*
X84620247Y-66239755D01*
X84607441Y-66224975D01*
X84602362Y-66221371D01*
X84600666Y-66217156D01*
X84594168Y-66209656D01*
X84592319Y-66206659D01*
X84592316Y-66206655D01*
X84468345Y-66082684D01*
X84319124Y-65990643D01*
X84319119Y-65990641D01*
X84152697Y-65935494D01*
X84152690Y-65935493D01*
X84049986Y-65925000D01*
X84000000Y-65925000D01*
X83500000Y-65925000D01*
X83499999Y-65924999D01*
X83450029Y-65925000D01*
X83450011Y-65925001D01*
X83347302Y-65935494D01*
X83180880Y-65990641D01*
X83180875Y-65990643D01*
X83031654Y-66082684D01*
X82907684Y-66206654D01*
X82815643Y-66355875D01*
X82815642Y-66355878D01*
X82767205Y-66502051D01*
X82727432Y-66559495D01*
X82662916Y-66586318D01*
X82594140Y-66574003D01*
X82542940Y-66526460D01*
X82525499Y-66463048D01*
X82525499Y-66049992D01*
X82523321Y-66028675D01*
X82514999Y-65947203D01*
X82514998Y-65947200D01*
X82506257Y-65920821D01*
X82459814Y-65780666D01*
X82367712Y-65631344D01*
X82243656Y-65507288D01*
X82094334Y-65415186D01*
X81927797Y-65360001D01*
X81927795Y-65360000D01*
X81825010Y-65349500D01*
X80774998Y-65349500D01*
X80774980Y-65349501D01*
X80672203Y-65360000D01*
X80672200Y-65360001D01*
X80505668Y-65415185D01*
X80505663Y-65415187D01*
X80356342Y-65507289D01*
X80267338Y-65596292D01*
X80206015Y-65629776D01*
X80136323Y-65624791D01*
X80110767Y-65611712D01*
X80079185Y-65590609D01*
X80079172Y-65590602D01*
X79933501Y-65530264D01*
X79933489Y-65530261D01*
X79778845Y-65499500D01*
X79778842Y-65499500D01*
X79621158Y-65499500D01*
X79621155Y-65499500D01*
X79466510Y-65530261D01*
X79466498Y-65530264D01*
X79320827Y-65590602D01*
X79320814Y-65590609D01*
X79189711Y-65678210D01*
X79189707Y-65678213D01*
X79078213Y-65789707D01*
X79078210Y-65789711D01*
X78990609Y-65920814D01*
X78990602Y-65920827D01*
X78930264Y-66066498D01*
X78930261Y-66066510D01*
X78899500Y-66221153D01*
X64425500Y-66221153D01*
X64425500Y-63395675D01*
X108774500Y-63395675D01*
X108774500Y-63604324D01*
X108807137Y-63810389D01*
X108871612Y-64008820D01*
X108966196Y-64194451D01*
X108966330Y-64194714D01*
X109088965Y-64363505D01*
X109236495Y-64511035D01*
X109405286Y-64633670D01*
X109493116Y-64678421D01*
X109591179Y-64728387D01*
X109591181Y-64728387D01*
X109591184Y-64728389D01*
X109697545Y-64762948D01*
X109789610Y-64792862D01*
X109995676Y-64825500D01*
X109995681Y-64825500D01*
X110204324Y-64825500D01*
X110410389Y-64792862D01*
X110411894Y-64792373D01*
X110608816Y-64728389D01*
X110794714Y-64633670D01*
X110963505Y-64511035D01*
X111111035Y-64363505D01*
X111233670Y-64194714D01*
X111328389Y-64008816D01*
X111392862Y-63810389D01*
X111411225Y-63694451D01*
X111425500Y-63604324D01*
X111425500Y-63395720D01*
X113775000Y-63395720D01*
X113775000Y-63604279D01*
X113807626Y-63810272D01*
X113872075Y-64008627D01*
X113966759Y-64194451D01*
X114002627Y-64243818D01*
X114002627Y-64243819D01*
X114576212Y-63670234D01*
X114587482Y-63712292D01*
X114659890Y-63837708D01*
X114762292Y-63940110D01*
X114887708Y-64012518D01*
X114929765Y-64023787D01*
X114356179Y-64597371D01*
X114356180Y-64597372D01*
X114405543Y-64633236D01*
X114405556Y-64633244D01*
X114591372Y-64727924D01*
X114789727Y-64792373D01*
X114995721Y-64825000D01*
X115204279Y-64825000D01*
X115410272Y-64792373D01*
X115608627Y-64727924D01*
X115794451Y-64633240D01*
X115843818Y-64597372D01*
X115843818Y-64597371D01*
X115270234Y-64023787D01*
X115312292Y-64012518D01*
X115437708Y-63940110D01*
X115540110Y-63837708D01*
X115612518Y-63712292D01*
X115623787Y-63670234D01*
X116197371Y-64243818D01*
X116197372Y-64243818D01*
X116233240Y-64194451D01*
X116327924Y-64008627D01*
X116392373Y-63810272D01*
X116425000Y-63604279D01*
X116425000Y-63395720D01*
X116392373Y-63189727D01*
X116327924Y-62991372D01*
X116233244Y-62805556D01*
X116233236Y-62805543D01*
X116197372Y-62756180D01*
X116197371Y-62756179D01*
X115623787Y-63329764D01*
X115612518Y-63287708D01*
X115540110Y-63162292D01*
X115437708Y-63059890D01*
X115312292Y-62987482D01*
X115270233Y-62976212D01*
X115843819Y-62402627D01*
X115794451Y-62366759D01*
X115608627Y-62272075D01*
X115410272Y-62207626D01*
X115204279Y-62175000D01*
X114995721Y-62175000D01*
X114789727Y-62207626D01*
X114591372Y-62272075D01*
X114405552Y-62366757D01*
X114356180Y-62402627D01*
X114929766Y-62976212D01*
X114887708Y-62987482D01*
X114762292Y-63059890D01*
X114659890Y-63162292D01*
X114587482Y-63287708D01*
X114576212Y-63329765D01*
X114002627Y-62756180D01*
X113966757Y-62805552D01*
X113872075Y-62991372D01*
X113807626Y-63189727D01*
X113775000Y-63395720D01*
X111425500Y-63395720D01*
X111425500Y-63395675D01*
X111392862Y-63189610D01*
X111328387Y-62991179D01*
X111278421Y-62893116D01*
X111233670Y-62805286D01*
X111111035Y-62636495D01*
X110963505Y-62488965D01*
X110794714Y-62366330D01*
X110608820Y-62271612D01*
X110410389Y-62207137D01*
X110204324Y-62174500D01*
X110204319Y-62174500D01*
X109995681Y-62174500D01*
X109995676Y-62174500D01*
X109789610Y-62207137D01*
X109591179Y-62271612D01*
X109405285Y-62366330D01*
X109236493Y-62488966D01*
X109088966Y-62636493D01*
X108966330Y-62805285D01*
X108871612Y-62991179D01*
X108807137Y-63189610D01*
X108774500Y-63395675D01*
X64425500Y-63395675D01*
X64425500Y-62075096D01*
X64434143Y-62045659D01*
X64440667Y-62015670D01*
X64444422Y-62010652D01*
X64445185Y-62008057D01*
X64461810Y-61987424D01*
X64542652Y-61906582D01*
X64603970Y-61873100D01*
X64673662Y-61878084D01*
X64686617Y-61883777D01*
X64749008Y-61915568D01*
X64929393Y-61974179D01*
X64973631Y-61988553D01*
X65206903Y-62025500D01*
X65206908Y-62025500D01*
X65443097Y-62025500D01*
X65676368Y-61988553D01*
X65679870Y-61987415D01*
X65900992Y-61915568D01*
X66111433Y-61808343D01*
X66302510Y-61669517D01*
X66469517Y-61502510D01*
X66560986Y-61376613D01*
X66616316Y-61333949D01*
X66661304Y-61325500D01*
X70488696Y-61325500D01*
X70555735Y-61345185D01*
X70589013Y-61376613D01*
X70680483Y-61502510D01*
X70847490Y-61669517D01*
X71038567Y-61808343D01*
X71079472Y-61829185D01*
X71249003Y-61915566D01*
X71249005Y-61915566D01*
X71249008Y-61915568D01*
X71369412Y-61954689D01*
X71473631Y-61988553D01*
X71706903Y-62025500D01*
X71706908Y-62025500D01*
X71943097Y-62025500D01*
X72176368Y-61988553D01*
X72179870Y-61987415D01*
X72400992Y-61915568D01*
X72611433Y-61808343D01*
X72802510Y-61669517D01*
X72969517Y-61502510D01*
X73060986Y-61376613D01*
X73116316Y-61333949D01*
X73161304Y-61325500D01*
X84674903Y-61325500D01*
X84704343Y-61334144D01*
X84734330Y-61340668D01*
X84739345Y-61344422D01*
X84741942Y-61345185D01*
X84762584Y-61361819D01*
X84865425Y-61464660D01*
X84898910Y-61525983D01*
X84899361Y-61528149D01*
X84930261Y-61683491D01*
X84930264Y-61683501D01*
X84990602Y-61829172D01*
X84990609Y-61829185D01*
X85078210Y-61960288D01*
X85078213Y-61960292D01*
X85189707Y-62071786D01*
X85189711Y-62071789D01*
X85320814Y-62159390D01*
X85320827Y-62159397D01*
X85436086Y-62207138D01*
X85466503Y-62219737D01*
X85621153Y-62250499D01*
X85621156Y-62250500D01*
X85621158Y-62250500D01*
X85778844Y-62250500D01*
X85778845Y-62250499D01*
X85933497Y-62219737D01*
X86079179Y-62159394D01*
X86210289Y-62071789D01*
X86321789Y-61960289D01*
X86409394Y-61829179D01*
X86418025Y-61808343D01*
X86433239Y-61771611D01*
X86469737Y-61683497D01*
X86500500Y-61528842D01*
X86500500Y-61371158D01*
X86500500Y-61371155D01*
X86500499Y-61371153D01*
X86491418Y-61325500D01*
X86469737Y-61216503D01*
X86469735Y-61216498D01*
X86409397Y-61070827D01*
X86409390Y-61070814D01*
X86321789Y-60939711D01*
X86321786Y-60939707D01*
X86210292Y-60828213D01*
X86210288Y-60828210D01*
X86079185Y-60740609D01*
X86079172Y-60740602D01*
X85933501Y-60680264D01*
X85933491Y-60680261D01*
X85778149Y-60649361D01*
X85716238Y-60616976D01*
X85714660Y-60615425D01*
X85462590Y-60363355D01*
X85462588Y-60363352D01*
X85343717Y-60244481D01*
X85343712Y-60244477D01*
X85221003Y-60173632D01*
X85221003Y-60173631D01*
X85221000Y-60173630D01*
X85206785Y-60165423D01*
X85054057Y-60124499D01*
X84895943Y-60124499D01*
X84888347Y-60124499D01*
X84888331Y-60124500D01*
X73362680Y-60124500D01*
X73295641Y-60104815D01*
X73249886Y-60052011D01*
X73244749Y-60038818D01*
X73215568Y-59949008D01*
X73108343Y-59738567D01*
X72969517Y-59547490D01*
X72802510Y-59380483D01*
X72611433Y-59241657D01*
X72400996Y-59134433D01*
X72176368Y-59061446D01*
X71943097Y-59024500D01*
X71943092Y-59024500D01*
X71706908Y-59024500D01*
X71706903Y-59024500D01*
X71473631Y-59061446D01*
X71249003Y-59134433D01*
X71038566Y-59241657D01*
X70932337Y-59318838D01*
X70847490Y-59380483D01*
X70847488Y-59380485D01*
X70847487Y-59380485D01*
X70680485Y-59547487D01*
X70680485Y-59547488D01*
X70680483Y-59547490D01*
X70620862Y-59629550D01*
X70541657Y-59738566D01*
X70434433Y-59949005D01*
X70405251Y-60038818D01*
X70365813Y-60096494D01*
X70301455Y-60123692D01*
X70287320Y-60124500D01*
X66862680Y-60124500D01*
X66795641Y-60104815D01*
X66749886Y-60052011D01*
X66744749Y-60038818D01*
X66715568Y-59949008D01*
X66608343Y-59738567D01*
X66469517Y-59547490D01*
X66302510Y-59380483D01*
X66111433Y-59241657D01*
X65900996Y-59134433D01*
X65676368Y-59061446D01*
X65443097Y-59024500D01*
X65443092Y-59024500D01*
X65206908Y-59024500D01*
X65206903Y-59024500D01*
X64973631Y-59061446D01*
X64749003Y-59134433D01*
X64538566Y-59241657D01*
X64432337Y-59318838D01*
X64347490Y-59380483D01*
X64347488Y-59380485D01*
X64347487Y-59380485D01*
X64180485Y-59547487D01*
X64180485Y-59547488D01*
X64180483Y-59547490D01*
X64120862Y-59629550D01*
X64041657Y-59738566D01*
X63934433Y-59949003D01*
X63861447Y-60173630D01*
X63824500Y-60406902D01*
X63824500Y-60643097D01*
X63853333Y-60825143D01*
X63844378Y-60894437D01*
X63818541Y-60932222D01*
X63459691Y-61291072D01*
X63459685Y-61291078D01*
X63456286Y-61294478D01*
X63456284Y-61294480D01*
X63344480Y-61406284D01*
X63315811Y-61455941D01*
X63310082Y-61465863D01*
X63310080Y-61465866D01*
X63288923Y-61502512D01*
X63265423Y-61543215D01*
X63224499Y-61695943D01*
X63224499Y-61854057D01*
X63224499Y-61854059D01*
X63224500Y-61864053D01*
X63224500Y-79708330D01*
X63224499Y-79708348D01*
X63224499Y-79874054D01*
X63224498Y-79874054D01*
X42500500Y-79874054D01*
X42500500Y-77395675D01*
X47674500Y-77395675D01*
X47674500Y-77604324D01*
X47707137Y-77810389D01*
X47771612Y-78008820D01*
X47862188Y-78186585D01*
X47866330Y-78194714D01*
X47988965Y-78363505D01*
X48136495Y-78511035D01*
X48305286Y-78633670D01*
X48393116Y-78678421D01*
X48491179Y-78728387D01*
X48491181Y-78728387D01*
X48491184Y-78728389D01*
X48538673Y-78743819D01*
X48689610Y-78792862D01*
X48895676Y-78825500D01*
X48895681Y-78825500D01*
X49104324Y-78825500D01*
X49310389Y-78792862D01*
X49311894Y-78792373D01*
X49508816Y-78728389D01*
X49694714Y-78633670D01*
X49863505Y-78511035D01*
X50011035Y-78363505D01*
X50133670Y-78194714D01*
X50139794Y-78182692D01*
X50187766Y-78131896D01*
X50255586Y-78115098D01*
X50321722Y-78137632D01*
X50360765Y-78182689D01*
X50366755Y-78194446D01*
X50402627Y-78243818D01*
X50402627Y-78243819D01*
X50976212Y-77670233D01*
X50987482Y-77712292D01*
X51059890Y-77837708D01*
X51162292Y-77940110D01*
X51287708Y-78012518D01*
X51329765Y-78023787D01*
X50756179Y-78597371D01*
X50756180Y-78597372D01*
X50805543Y-78633236D01*
X50805556Y-78633244D01*
X50991372Y-78727924D01*
X51189727Y-78792373D01*
X51395721Y-78825000D01*
X51604279Y-78825000D01*
X51810272Y-78792373D01*
X52008627Y-78727924D01*
X52194451Y-78633240D01*
X52243818Y-78597372D01*
X52243818Y-78597371D01*
X51670234Y-78023787D01*
X51712292Y-78012518D01*
X51837708Y-77940110D01*
X51940110Y-77837708D01*
X52012518Y-77712292D01*
X52023787Y-77670234D01*
X52597371Y-78243818D01*
X52597372Y-78243818D01*
X52633241Y-78194449D01*
X52639231Y-78182694D01*
X52687203Y-78131896D01*
X52755023Y-78115098D01*
X52821159Y-78137632D01*
X52860203Y-78182689D01*
X52866330Y-78194714D01*
X52988965Y-78363505D01*
X53136495Y-78511035D01*
X53305286Y-78633670D01*
X53393116Y-78678421D01*
X53491179Y-78728387D01*
X53491181Y-78728387D01*
X53491184Y-78728389D01*
X53538673Y-78743819D01*
X53689610Y-78792862D01*
X53895676Y-78825500D01*
X53895681Y-78825500D01*
X54104324Y-78825500D01*
X54310389Y-78792862D01*
X54311894Y-78792373D01*
X54508816Y-78728389D01*
X54694714Y-78633670D01*
X54863505Y-78511035D01*
X55011035Y-78363505D01*
X55133670Y-78194714D01*
X55228389Y-78008816D01*
X55292862Y-77810389D01*
X55308399Y-77712292D01*
X55325500Y-77604324D01*
X55325500Y-77395675D01*
X55292862Y-77189610D01*
X55228387Y-76991179D01*
X55178421Y-76893116D01*
X55133670Y-76805286D01*
X55011035Y-76636495D01*
X54863505Y-76488965D01*
X54694714Y-76366330D01*
X54694705Y-76366325D01*
X54694700Y-76366322D01*
X54668202Y-76352820D01*
X54617407Y-76304844D01*
X54600500Y-76242337D01*
X54600500Y-75614060D01*
X54600501Y-75614047D01*
X54600501Y-75445944D01*
X54599635Y-75442712D01*
X54559577Y-75293216D01*
X54543717Y-75265745D01*
X54480524Y-75156290D01*
X54480518Y-75156282D01*
X54335097Y-75010861D01*
X54301612Y-74949538D01*
X54299421Y-74910572D01*
X54300499Y-74900023D01*
X54300499Y-74900018D01*
X54300500Y-74900009D01*
X54300499Y-74299992D01*
X54297161Y-74267319D01*
X54289999Y-74197203D01*
X54289998Y-74197200D01*
X54272152Y-74143345D01*
X54234814Y-74030666D01*
X54142712Y-73881344D01*
X54018656Y-73757288D01*
X54015342Y-73755243D01*
X54013546Y-73753248D01*
X54012989Y-73752807D01*
X54013064Y-73752711D01*
X53968618Y-73703297D01*
X53957397Y-73634334D01*
X53985240Y-73570252D01*
X54015348Y-73544165D01*
X54018342Y-73542318D01*
X54142315Y-73418345D01*
X54234358Y-73269121D01*
X54234358Y-73269119D01*
X54289505Y-73102697D01*
X54289506Y-73102690D01*
X54299999Y-72999986D01*
X54300000Y-72999973D01*
X54300000Y-72950000D01*
X51850001Y-72950000D01*
X51850001Y-72999986D01*
X51860494Y-73102697D01*
X51915641Y-73269119D01*
X51915642Y-73269121D01*
X52007684Y-73418345D01*
X52131655Y-73542316D01*
X52131659Y-73542319D01*
X52134656Y-73544168D01*
X52136279Y-73545972D01*
X52137323Y-73546798D01*
X52137181Y-73546976D01*
X52181381Y-73596116D01*
X52192602Y-73665079D01*
X52164759Y-73729161D01*
X52134661Y-73755241D01*
X52131349Y-73757283D01*
X52131343Y-73757288D01*
X52007289Y-73881342D01*
X51915187Y-74030663D01*
X51915186Y-74030666D01*
X51860001Y-74197203D01*
X51860001Y-74197204D01*
X51860000Y-74197204D01*
X51849500Y-74299983D01*
X51849500Y-74900001D01*
X51849501Y-74900019D01*
X51860000Y-75002796D01*
X51860001Y-75002799D01*
X51892204Y-75099980D01*
X51915186Y-75169334D01*
X52007288Y-75318656D01*
X52131344Y-75442712D01*
X52280666Y-75534814D01*
X52447203Y-75589999D01*
X52549991Y-75600500D01*
X53174901Y-75600499D01*
X53204350Y-75609145D01*
X53234327Y-75615667D01*
X53239340Y-75619419D01*
X53241940Y-75620183D01*
X53262577Y-75636813D01*
X53363182Y-75737417D01*
X53396666Y-75798738D01*
X53399500Y-75825097D01*
X53399500Y-76242337D01*
X53379815Y-76309376D01*
X53331798Y-76352820D01*
X53305299Y-76366322D01*
X53305290Y-76366327D01*
X53305286Y-76366330D01*
X53136495Y-76488965D01*
X53136493Y-76488967D01*
X53136492Y-76488967D01*
X52988966Y-76636493D01*
X52866328Y-76805288D01*
X52860201Y-76817313D01*
X52812225Y-76868108D01*
X52744404Y-76884901D01*
X52678270Y-76862362D01*
X52639232Y-76817308D01*
X52633244Y-76805555D01*
X52633236Y-76805543D01*
X52597372Y-76756180D01*
X52597371Y-76756179D01*
X52023787Y-77329764D01*
X52012518Y-77287708D01*
X51940110Y-77162292D01*
X51837708Y-77059890D01*
X51712292Y-76987482D01*
X51670233Y-76976212D01*
X52243819Y-76402627D01*
X52194451Y-76366759D01*
X52008627Y-76272075D01*
X51810272Y-76207626D01*
X51604279Y-76175000D01*
X51395721Y-76175000D01*
X51189727Y-76207626D01*
X50991372Y-76272075D01*
X50805552Y-76366757D01*
X50756180Y-76402627D01*
X51329766Y-76976212D01*
X51287708Y-76987482D01*
X51162292Y-77059890D01*
X51059890Y-77162292D01*
X50987482Y-77287708D01*
X50976212Y-77329765D01*
X50402627Y-76756180D01*
X50366755Y-76805555D01*
X50366754Y-76805556D01*
X50360764Y-76817313D01*
X50312788Y-76868108D01*
X50244967Y-76884901D01*
X50178832Y-76862361D01*
X50139795Y-76817308D01*
X50137452Y-76812709D01*
X50133670Y-76805286D01*
X50011035Y-76636495D01*
X49863505Y-76488965D01*
X49694714Y-76366330D01*
X49694705Y-76366325D01*
X49694700Y-76366322D01*
X49668202Y-76352820D01*
X49617407Y-76304844D01*
X49600500Y-76242337D01*
X49600500Y-75699499D01*
X49620185Y-75632460D01*
X49672989Y-75586705D01*
X49724500Y-75575499D01*
X50125002Y-75575499D01*
X50125008Y-75575499D01*
X50227797Y-75564999D01*
X50394334Y-75509814D01*
X50543656Y-75417712D01*
X50667712Y-75293656D01*
X50759814Y-75144334D01*
X50814999Y-74977797D01*
X50825500Y-74875009D01*
X50825499Y-74274992D01*
X50825088Y-74270972D01*
X50814999Y-74172203D01*
X50814998Y-74172200D01*
X50780840Y-74069119D01*
X50759814Y-74005666D01*
X50667712Y-73856344D01*
X50543656Y-73732288D01*
X50540342Y-73730243D01*
X50538546Y-73728248D01*
X50537989Y-73727807D01*
X50538064Y-73727711D01*
X50493618Y-73678297D01*
X50482397Y-73609334D01*
X50510240Y-73545252D01*
X50540348Y-73519165D01*
X50543342Y-73517318D01*
X50667315Y-73393345D01*
X50759356Y-73244124D01*
X50759358Y-73244119D01*
X50814505Y-73077697D01*
X50814506Y-73077690D01*
X50824999Y-72974986D01*
X50825000Y-72974973D01*
X50825000Y-72925000D01*
X48375001Y-72925000D01*
X48375001Y-72974986D01*
X48385494Y-73077697D01*
X48440641Y-73244119D01*
X48440643Y-73244124D01*
X48532684Y-73393345D01*
X48656655Y-73517316D01*
X48656659Y-73517319D01*
X48659656Y-73519168D01*
X48661279Y-73520972D01*
X48662323Y-73521798D01*
X48662181Y-73521976D01*
X48706381Y-73571116D01*
X48717602Y-73640079D01*
X48689759Y-73704161D01*
X48659661Y-73730241D01*
X48656349Y-73732283D01*
X48656343Y-73732288D01*
X48532289Y-73856342D01*
X48440187Y-74005663D01*
X48440186Y-74005666D01*
X48385001Y-74172203D01*
X48385001Y-74172204D01*
X48385000Y-74172204D01*
X48374500Y-74274983D01*
X48374500Y-74875001D01*
X48374501Y-74875019D01*
X48385000Y-74977796D01*
X48385001Y-74977799D01*
X48398843Y-75019570D01*
X48405090Y-75061974D01*
X48404689Y-75076570D01*
X48399499Y-75095943D01*
X48399499Y-75254057D01*
X48399500Y-75254060D01*
X48399500Y-75265745D01*
X48399500Y-76242337D01*
X48379815Y-76309376D01*
X48331798Y-76352820D01*
X48305299Y-76366322D01*
X48305290Y-76366327D01*
X48305286Y-76366330D01*
X48136495Y-76488965D01*
X48136493Y-76488967D01*
X48136492Y-76488967D01*
X47988966Y-76636493D01*
X47866330Y-76805285D01*
X47771612Y-76991179D01*
X47707137Y-77189610D01*
X47674500Y-77395675D01*
X42500500Y-77395675D01*
X42500500Y-70441812D01*
X42520185Y-70374773D01*
X42572989Y-70329018D01*
X42642147Y-70319074D01*
X42705703Y-70348099D01*
X42743477Y-70406877D01*
X42747720Y-70427929D01*
X42757742Y-70516885D01*
X42757745Y-70516903D01*
X42834747Y-70854273D01*
X42834751Y-70854285D01*
X42949039Y-71180899D01*
X42949048Y-71180921D01*
X43099183Y-71492680D01*
X43119499Y-71525013D01*
X43283297Y-71785696D01*
X43499056Y-72056249D01*
X43743751Y-72300944D01*
X44014304Y-72516703D01*
X44270525Y-72677697D01*
X44307319Y-72700816D01*
X44619078Y-72850951D01*
X44619087Y-72850954D01*
X44619094Y-72850958D01*
X44619100Y-72850960D01*
X44945714Y-72965248D01*
X44945726Y-72965252D01*
X45283100Y-73042255D01*
X45283106Y-73042255D01*
X45283114Y-73042257D01*
X45512350Y-73068085D01*
X45626969Y-73080999D01*
X45626972Y-73081000D01*
X45626975Y-73081000D01*
X45973028Y-73081000D01*
X45973029Y-73080999D01*
X46148767Y-73061198D01*
X46316885Y-73042257D01*
X46316890Y-73042256D01*
X46316900Y-73042255D01*
X46654274Y-72965252D01*
X46980906Y-72850958D01*
X46995108Y-72844119D01*
X47292680Y-72700816D01*
X47292680Y-72700815D01*
X47292686Y-72700813D01*
X47585696Y-72516703D01*
X47763369Y-72375013D01*
X48375000Y-72375013D01*
X48375000Y-72425000D01*
X49350000Y-72425000D01*
X49850000Y-72425000D01*
X50824999Y-72425000D01*
X50824999Y-72400013D01*
X51850000Y-72400013D01*
X51850000Y-72450000D01*
X52825000Y-72450000D01*
X53325000Y-72450000D01*
X54299999Y-72450000D01*
X54299999Y-72400028D01*
X54299998Y-72400013D01*
X54289505Y-72297302D01*
X54234358Y-72130880D01*
X54234356Y-72130875D01*
X54142315Y-71981654D01*
X54018345Y-71857684D01*
X53869124Y-71765643D01*
X53869119Y-71765641D01*
X53702697Y-71710494D01*
X53702690Y-71710493D01*
X53599986Y-71700000D01*
X53325000Y-71700000D01*
X53325000Y-72450000D01*
X52825000Y-72450000D01*
X52825000Y-71700000D01*
X52550029Y-71700000D01*
X52550012Y-71700001D01*
X52447302Y-71710494D01*
X52280880Y-71765641D01*
X52280875Y-71765643D01*
X52131654Y-71857684D01*
X52007684Y-71981654D01*
X51915643Y-72130875D01*
X51915641Y-72130880D01*
X51860494Y-72297302D01*
X51860493Y-72297309D01*
X51850000Y-72400013D01*
X50824999Y-72400013D01*
X50824999Y-72375028D01*
X50824998Y-72375013D01*
X50814505Y-72272302D01*
X50759358Y-72105880D01*
X50759356Y-72105875D01*
X50667315Y-71956654D01*
X50543345Y-71832684D01*
X50394124Y-71740643D01*
X50394119Y-71740641D01*
X50227697Y-71685494D01*
X50227690Y-71685493D01*
X50124986Y-71675000D01*
X49850000Y-71675000D01*
X49850000Y-72425000D01*
X49350000Y-72425000D01*
X49350000Y-71675000D01*
X49075029Y-71675000D01*
X49075012Y-71675001D01*
X48972302Y-71685494D01*
X48805880Y-71740641D01*
X48805875Y-71740643D01*
X48656654Y-71832684D01*
X48532684Y-71956654D01*
X48440643Y-72105875D01*
X48440641Y-72105880D01*
X48385494Y-72272302D01*
X48385493Y-72272309D01*
X48375000Y-72375013D01*
X47763369Y-72375013D01*
X47856249Y-72300944D01*
X48100944Y-72056249D01*
X48316703Y-71785696D01*
X48500813Y-71492686D01*
X48558119Y-71373689D01*
X48650951Y-71180921D01*
X48650952Y-71180917D01*
X48650958Y-71180906D01*
X48765252Y-70854274D01*
X48842255Y-70516900D01*
X48854652Y-70406877D01*
X48863654Y-70326975D01*
X48881000Y-70173025D01*
X48881000Y-69826975D01*
X48880999Y-69826968D01*
X54119000Y-69826968D01*
X54119000Y-70173031D01*
X54157742Y-70516885D01*
X54157745Y-70516903D01*
X54234747Y-70854273D01*
X54234751Y-70854285D01*
X54349039Y-71180899D01*
X54349048Y-71180921D01*
X54499183Y-71492680D01*
X54519499Y-71525013D01*
X54683297Y-71785696D01*
X54899056Y-72056249D01*
X55143751Y-72300944D01*
X55414304Y-72516703D01*
X55670525Y-72677697D01*
X55707319Y-72700816D01*
X56019078Y-72850951D01*
X56019087Y-72850954D01*
X56019094Y-72850958D01*
X56019100Y-72850960D01*
X56345714Y-72965248D01*
X56345726Y-72965252D01*
X56683100Y-73042255D01*
X56683106Y-73042255D01*
X56683114Y-73042257D01*
X56912350Y-73068085D01*
X57026969Y-73080999D01*
X57026972Y-73081000D01*
X57026975Y-73081000D01*
X57373028Y-73081000D01*
X57373029Y-73080999D01*
X57548767Y-73061198D01*
X57716885Y-73042257D01*
X57716890Y-73042256D01*
X57716900Y-73042255D01*
X58054274Y-72965252D01*
X58380906Y-72850958D01*
X58395108Y-72844119D01*
X58692680Y-72700816D01*
X58692680Y-72700815D01*
X58692686Y-72700813D01*
X58985696Y-72516703D01*
X59256249Y-72300944D01*
X59500944Y-72056249D01*
X59716703Y-71785696D01*
X59900813Y-71492686D01*
X59958119Y-71373689D01*
X60050951Y-71180921D01*
X60050952Y-71180917D01*
X60050958Y-71180906D01*
X60165252Y-70854274D01*
X60242255Y-70516900D01*
X60254652Y-70406877D01*
X60263654Y-70326975D01*
X60281000Y-70173025D01*
X60281000Y-69826975D01*
X60253126Y-69579581D01*
X60242257Y-69483114D01*
X60242254Y-69483096D01*
X60189051Y-69249999D01*
X60165252Y-69145726D01*
X60139041Y-69070821D01*
X60050960Y-68819100D01*
X60050951Y-68819078D01*
X59900816Y-68507319D01*
X59839667Y-68410001D01*
X59716703Y-68214304D01*
X59500944Y-67943751D01*
X59256249Y-67699056D01*
X59193533Y-67649042D01*
X59050212Y-67534747D01*
X58985696Y-67483297D01*
X58764335Y-67344207D01*
X58692680Y-67299183D01*
X58380921Y-67149048D01*
X58380899Y-67149039D01*
X58054285Y-67034751D01*
X58054273Y-67034747D01*
X57716903Y-66957745D01*
X57716885Y-66957742D01*
X57373031Y-66919000D01*
X57373025Y-66919000D01*
X57026975Y-66919000D01*
X57026968Y-66919000D01*
X56683114Y-66957742D01*
X56683096Y-66957745D01*
X56345726Y-67034747D01*
X56345714Y-67034751D01*
X56019100Y-67149039D01*
X56019078Y-67149048D01*
X55707319Y-67299183D01*
X55414305Y-67483296D01*
X55143751Y-67699055D01*
X54899055Y-67943751D01*
X54683296Y-68214305D01*
X54499183Y-68507319D01*
X54349048Y-68819078D01*
X54349039Y-68819100D01*
X54234751Y-69145714D01*
X54234747Y-69145726D01*
X54157745Y-69483096D01*
X54157742Y-69483114D01*
X54119000Y-69826968D01*
X48880999Y-69826968D01*
X48853126Y-69579581D01*
X48842257Y-69483114D01*
X48842254Y-69483096D01*
X48789051Y-69249999D01*
X48765252Y-69145726D01*
X48739041Y-69070821D01*
X48650960Y-68819100D01*
X48650951Y-68819078D01*
X48500816Y-68507319D01*
X48439667Y-68410001D01*
X48316703Y-68214304D01*
X48100944Y-67943751D01*
X47856249Y-67699056D01*
X47793533Y-67649042D01*
X47650212Y-67534747D01*
X47585696Y-67483297D01*
X47364335Y-67344207D01*
X47292680Y-67299183D01*
X46980921Y-67149048D01*
X46980899Y-67149039D01*
X46654285Y-67034751D01*
X46654273Y-67034747D01*
X46316903Y-66957745D01*
X46316885Y-66957742D01*
X45973031Y-66919000D01*
X45973025Y-66919000D01*
X45626975Y-66919000D01*
X45626968Y-66919000D01*
X45283114Y-66957742D01*
X45283096Y-66957745D01*
X44945726Y-67034747D01*
X44945714Y-67034751D01*
X44619100Y-67149039D01*
X44619078Y-67149048D01*
X44307319Y-67299183D01*
X44014305Y-67483296D01*
X43743751Y-67699055D01*
X43499055Y-67943751D01*
X43283296Y-68214305D01*
X43099183Y-68507319D01*
X42949048Y-68819078D01*
X42949039Y-68819100D01*
X42834751Y-69145714D01*
X42834747Y-69145726D01*
X42757745Y-69483096D01*
X42757742Y-69483114D01*
X42747720Y-69572070D01*
X42720654Y-69636484D01*
X42663059Y-69676040D01*
X42593222Y-69678177D01*
X42533315Y-69642219D01*
X42502360Y-69579581D01*
X42500500Y-69558187D01*
X42500500Y-62895675D01*
X47674500Y-62895675D01*
X47674500Y-63104324D01*
X47707137Y-63310389D01*
X47771612Y-63508820D01*
X47820274Y-63604324D01*
X47866330Y-63694714D01*
X47988965Y-63863505D01*
X48136495Y-64011035D01*
X48305286Y-64133670D01*
X48393116Y-64178421D01*
X48491179Y-64228387D01*
X48491181Y-64228387D01*
X48491184Y-64228389D01*
X48538673Y-64243819D01*
X48689610Y-64292862D01*
X48895676Y-64325500D01*
X48895681Y-64325500D01*
X49104324Y-64325500D01*
X49310389Y-64292862D01*
X49311894Y-64292373D01*
X49508816Y-64228389D01*
X49694714Y-64133670D01*
X49863505Y-64011035D01*
X50011035Y-63863505D01*
X50133670Y-63694714D01*
X50228389Y-63508816D01*
X50292862Y-63310389D01*
X50311973Y-63189727D01*
X50325500Y-63104324D01*
X50325500Y-62895720D01*
X52675000Y-62895720D01*
X52675000Y-63104279D01*
X52707626Y-63310272D01*
X52772075Y-63508627D01*
X52866759Y-63694451D01*
X52902627Y-63743818D01*
X52902627Y-63743819D01*
X53476212Y-63170233D01*
X53487482Y-63212292D01*
X53559890Y-63337708D01*
X53662292Y-63440110D01*
X53787708Y-63512518D01*
X53829765Y-63523787D01*
X53256179Y-64097371D01*
X53256180Y-64097372D01*
X53305543Y-64133236D01*
X53305556Y-64133244D01*
X53491372Y-64227924D01*
X53689727Y-64292373D01*
X53895721Y-64325000D01*
X54104279Y-64325000D01*
X54310272Y-64292373D01*
X54508627Y-64227924D01*
X54694451Y-64133240D01*
X54743818Y-64097372D01*
X54743818Y-64097371D01*
X54170234Y-63523787D01*
X54212292Y-63512518D01*
X54337708Y-63440110D01*
X54440110Y-63337708D01*
X54512518Y-63212292D01*
X54523787Y-63170234D01*
X55097371Y-63743818D01*
X55097372Y-63743818D01*
X55133240Y-63694451D01*
X55227924Y-63508627D01*
X55292373Y-63310272D01*
X55325000Y-63104279D01*
X55325000Y-62895720D01*
X55292373Y-62689727D01*
X55227924Y-62491372D01*
X55133244Y-62305556D01*
X55133236Y-62305543D01*
X55097372Y-62256180D01*
X55097371Y-62256179D01*
X54523787Y-62829764D01*
X54512518Y-62787708D01*
X54440110Y-62662292D01*
X54337708Y-62559890D01*
X54212292Y-62487482D01*
X54170233Y-62476212D01*
X54743819Y-61902627D01*
X54694451Y-61866759D01*
X54560094Y-61798300D01*
X54508627Y-61772075D01*
X54310272Y-61707626D01*
X54104279Y-61675000D01*
X53895721Y-61675000D01*
X53689727Y-61707626D01*
X53491372Y-61772075D01*
X53305552Y-61866757D01*
X53256180Y-61902627D01*
X53829766Y-62476212D01*
X53787708Y-62487482D01*
X53662292Y-62559890D01*
X53559890Y-62662292D01*
X53487482Y-62787708D01*
X53476212Y-62829765D01*
X52902627Y-62256180D01*
X52866757Y-62305552D01*
X52772075Y-62491372D01*
X52707626Y-62689727D01*
X52675000Y-62895720D01*
X50325500Y-62895720D01*
X50325500Y-62895675D01*
X50292862Y-62689610D01*
X50228387Y-62491179D01*
X50164773Y-62366330D01*
X50133670Y-62305286D01*
X50011035Y-62136495D01*
X49863505Y-61988965D01*
X49694714Y-61866330D01*
X49670627Y-61854057D01*
X49508820Y-61771612D01*
X49310389Y-61707137D01*
X49104324Y-61674500D01*
X49104319Y-61674500D01*
X48895681Y-61674500D01*
X48895676Y-61674500D01*
X48689610Y-61707137D01*
X48491179Y-61771612D01*
X48305285Y-61866330D01*
X48136493Y-61988966D01*
X47988966Y-62136493D01*
X47866330Y-62305285D01*
X47771612Y-62491179D01*
X47707137Y-62689610D01*
X47674500Y-62895675D01*
X42500500Y-62895675D01*
X42500500Y-57378711D01*
X43649500Y-57378711D01*
X43649500Y-57621288D01*
X43681161Y-57861785D01*
X43743947Y-58096104D01*
X43796400Y-58222736D01*
X43836776Y-58320212D01*
X43958064Y-58530289D01*
X43958066Y-58530292D01*
X43958067Y-58530293D01*
X44105733Y-58722736D01*
X44105739Y-58722743D01*
X44277256Y-58894260D01*
X44277262Y-58894265D01*
X44469711Y-59041936D01*
X44679788Y-59163224D01*
X44903900Y-59256054D01*
X45138211Y-59318838D01*
X45318586Y-59342584D01*
X45378711Y-59350500D01*
X45378712Y-59350500D01*
X45621289Y-59350500D01*
X45669388Y-59344167D01*
X45861789Y-59318838D01*
X46096100Y-59256054D01*
X46320212Y-59163224D01*
X46530289Y-59041936D01*
X46722738Y-58894265D01*
X46894265Y-58722738D01*
X47041936Y-58530289D01*
X47163224Y-58320212D01*
X47256054Y-58096100D01*
X47318838Y-57861789D01*
X47350500Y-57621288D01*
X47350500Y-57378712D01*
X47341180Y-57307918D01*
X47329156Y-57216584D01*
X47318838Y-57138214D01*
X47318838Y-57138211D01*
X47256054Y-56903900D01*
X47163224Y-56679788D01*
X47041936Y-56469711D01*
X46894265Y-56277262D01*
X46894260Y-56277256D01*
X46722743Y-56105739D01*
X46722736Y-56105733D01*
X46585529Y-56000451D01*
X46530293Y-55958067D01*
X46530292Y-55958066D01*
X46530289Y-55958064D01*
X46441752Y-55906947D01*
X63825000Y-55906947D01*
X63825000Y-56143052D01*
X63861934Y-56376247D01*
X63934897Y-56600802D01*
X64042087Y-56811174D01*
X64102338Y-56894104D01*
X64102340Y-56894105D01*
X64801212Y-56195233D01*
X64812482Y-56237292D01*
X64884890Y-56362708D01*
X64987292Y-56465110D01*
X65112708Y-56537518D01*
X65154765Y-56548787D01*
X64455893Y-57247658D01*
X64538828Y-57307914D01*
X64749197Y-57415102D01*
X64973752Y-57488065D01*
X64973751Y-57488065D01*
X65206948Y-57525000D01*
X65443052Y-57525000D01*
X65676247Y-57488065D01*
X65900802Y-57415102D01*
X66111163Y-57307918D01*
X66111169Y-57307914D01*
X66194104Y-57247658D01*
X66194105Y-57247658D01*
X65495233Y-56548787D01*
X65537292Y-56537518D01*
X65662708Y-56465110D01*
X65765110Y-56362708D01*
X65837518Y-56237292D01*
X65848787Y-56195233D01*
X66547658Y-56894105D01*
X66547658Y-56894104D01*
X66607914Y-56811169D01*
X66607918Y-56811163D01*
X66715102Y-56600802D01*
X66788065Y-56376247D01*
X66825000Y-56143052D01*
X66825000Y-55906947D01*
X70325000Y-55906947D01*
X70325000Y-56143052D01*
X70361934Y-56376247D01*
X70434897Y-56600802D01*
X70542087Y-56811174D01*
X70602338Y-56894104D01*
X70602340Y-56894105D01*
X71301212Y-56195233D01*
X71312482Y-56237292D01*
X71384890Y-56362708D01*
X71487292Y-56465110D01*
X71612708Y-56537518D01*
X71654765Y-56548787D01*
X70955893Y-57247658D01*
X71038828Y-57307914D01*
X71249197Y-57415102D01*
X71473752Y-57488065D01*
X71473751Y-57488065D01*
X71706948Y-57525000D01*
X71943052Y-57525000D01*
X72176247Y-57488065D01*
X72400802Y-57415102D01*
X72611163Y-57307918D01*
X72611169Y-57307914D01*
X72694104Y-57247658D01*
X72694105Y-57247658D01*
X71995233Y-56548787D01*
X72037292Y-56537518D01*
X72162708Y-56465110D01*
X72265110Y-56362708D01*
X72337518Y-56237292D01*
X72348787Y-56195234D01*
X73047658Y-56894105D01*
X73047658Y-56894104D01*
X73058842Y-56878711D01*
X116649500Y-56878711D01*
X116649500Y-57121288D01*
X116681161Y-57361785D01*
X116743947Y-57596104D01*
X116754379Y-57621288D01*
X116836776Y-57820212D01*
X116958064Y-58030289D01*
X116958066Y-58030292D01*
X116958067Y-58030293D01*
X117105733Y-58222736D01*
X117105739Y-58222743D01*
X117277256Y-58394260D01*
X117277262Y-58394265D01*
X117469711Y-58541936D01*
X117679788Y-58663224D01*
X117903900Y-58756054D01*
X118138211Y-58818838D01*
X118318586Y-58842584D01*
X118378711Y-58850500D01*
X118378712Y-58850500D01*
X118621289Y-58850500D01*
X118669388Y-58844167D01*
X118861789Y-58818838D01*
X119096100Y-58756054D01*
X119320212Y-58663224D01*
X119530289Y-58541936D01*
X119722738Y-58394265D01*
X119894265Y-58222738D01*
X120041936Y-58030289D01*
X120163224Y-57820212D01*
X120256054Y-57596100D01*
X120318838Y-57361789D01*
X120350500Y-57121288D01*
X120350500Y-56878712D01*
X120318838Y-56638211D01*
X120256054Y-56403900D01*
X120163224Y-56179788D01*
X120041936Y-55969711D01*
X119894265Y-55777262D01*
X119894260Y-55777256D01*
X119722743Y-55605739D01*
X119722736Y-55605733D01*
X119530293Y-55458067D01*
X119530292Y-55458066D01*
X119530289Y-55458064D01*
X119320212Y-55336776D01*
X119320205Y-55336773D01*
X119096104Y-55243947D01*
X118861785Y-55181161D01*
X118621289Y-55149500D01*
X118621288Y-55149500D01*
X118378712Y-55149500D01*
X118378711Y-55149500D01*
X118138214Y-55181161D01*
X117903895Y-55243947D01*
X117679794Y-55336773D01*
X117679785Y-55336777D01*
X117469706Y-55458067D01*
X117277263Y-55605733D01*
X117277256Y-55605739D01*
X117105739Y-55777256D01*
X117105733Y-55777263D01*
X116958067Y-55969706D01*
X116836777Y-56179785D01*
X116836773Y-56179794D01*
X116743947Y-56403895D01*
X116681161Y-56638214D01*
X116649500Y-56878711D01*
X73058842Y-56878711D01*
X73107916Y-56811166D01*
X73215102Y-56600802D01*
X73288065Y-56376247D01*
X73325000Y-56143052D01*
X73325000Y-55906947D01*
X73288065Y-55673752D01*
X73215102Y-55449197D01*
X73107914Y-55238828D01*
X73047658Y-55155894D01*
X73047658Y-55155893D01*
X72348787Y-55854765D01*
X72337518Y-55812708D01*
X72265110Y-55687292D01*
X72162708Y-55584890D01*
X72037292Y-55512482D01*
X71995234Y-55501212D01*
X72694105Y-54802340D01*
X72694104Y-54802338D01*
X72611174Y-54742087D01*
X72400802Y-54634897D01*
X72176247Y-54561934D01*
X72176248Y-54561934D01*
X71943052Y-54525000D01*
X71706948Y-54525000D01*
X71473752Y-54561934D01*
X71249197Y-54634897D01*
X71038830Y-54742084D01*
X70955894Y-54802340D01*
X71654766Y-55501212D01*
X71612708Y-55512482D01*
X71487292Y-55584890D01*
X71384890Y-55687292D01*
X71312482Y-55812708D01*
X71301212Y-55854766D01*
X70602340Y-55155894D01*
X70542084Y-55238830D01*
X70434897Y-55449197D01*
X70361934Y-55673752D01*
X70325000Y-55906947D01*
X66825000Y-55906947D01*
X66788065Y-55673752D01*
X66715102Y-55449197D01*
X66607914Y-55238828D01*
X66547658Y-55155894D01*
X66547658Y-55155893D01*
X65848787Y-55854765D01*
X65837518Y-55812708D01*
X65765110Y-55687292D01*
X65662708Y-55584890D01*
X65537292Y-55512482D01*
X65495234Y-55501212D01*
X66194105Y-54802340D01*
X66194104Y-54802339D01*
X66111174Y-54742087D01*
X65900802Y-54634897D01*
X65676247Y-54561934D01*
X65676248Y-54561934D01*
X65443052Y-54525000D01*
X65206948Y-54525000D01*
X64973752Y-54561934D01*
X64749197Y-54634897D01*
X64538830Y-54742084D01*
X64455894Y-54802340D01*
X65154766Y-55501212D01*
X65112708Y-55512482D01*
X64987292Y-55584890D01*
X64884890Y-55687292D01*
X64812482Y-55812708D01*
X64801212Y-55854766D01*
X64102340Y-55155894D01*
X64042084Y-55238830D01*
X63934897Y-55449197D01*
X63861934Y-55673752D01*
X63825000Y-55906947D01*
X46441752Y-55906947D01*
X46320212Y-55836776D01*
X46262107Y-55812708D01*
X46096104Y-55743947D01*
X45861785Y-55681161D01*
X45621289Y-55649500D01*
X45621288Y-55649500D01*
X45378712Y-55649500D01*
X45378711Y-55649500D01*
X45138214Y-55681161D01*
X44903895Y-55743947D01*
X44679794Y-55836773D01*
X44679785Y-55836777D01*
X44469706Y-55958067D01*
X44277263Y-56105733D01*
X44277256Y-56105739D01*
X44105739Y-56277256D01*
X44105733Y-56277263D01*
X43958067Y-56469706D01*
X43836777Y-56679785D01*
X43836773Y-56679794D01*
X43743947Y-56903895D01*
X43681161Y-57138214D01*
X43649500Y-57378711D01*
X42500500Y-57378711D01*
X42500500Y-54124500D01*
X42520185Y-54057461D01*
X42572989Y-54011706D01*
X42624500Y-54000500D01*
X121375500Y-54000500D01*
X121442539Y-54020185D01*
G37*
%TD.AperFunction*%
%TD*%
D24*
X42000000Y-53500000D02*
X122000000Y-53500000D01*
X122000000Y-90500000D01*
X42000000Y-90500000D01*
X42000000Y-53500000D01*
M02*
