%TF.GenerationSoftware,KiCad,Pcbnew,9.0.0*%
%TF.CreationDate,2025-03-14T14:13:33-06:00*%
%TF.ProjectId,scrollwheel_peripheral,7363726f-6c6c-4776-9865-656c5f706572,rev?*%
%TF.SameCoordinates,Original*%
%TF.FileFunction,Legend,Bot*%
%TF.FilePolarity,Positive*%
%FSLAX46Y46*%
G04 Gerber Fmt 4.6, Leading zero omitted, Abs format (unit mm)*
G04 Created by KiCad (PCBNEW 9.0.0) date 2025-03-14 14:13:33*
%MOMM*%
%LPD*%
G01*
G04 APERTURE LIST*
%ADD10C,0.150000*%
%ADD11C,0.120000*%
%TA.AperFunction,Profile*%
%ADD12C,0.050000*%
%TD*%
G04 APERTURE END LIST*
D10*
X79909580Y-67557142D02*
X79957200Y-67509523D01*
X79957200Y-67509523D02*
X80004819Y-67366666D01*
X80004819Y-67366666D02*
X80004819Y-67271428D01*
X80004819Y-67271428D02*
X79957200Y-67128571D01*
X79957200Y-67128571D02*
X79861961Y-67033333D01*
X79861961Y-67033333D02*
X79766723Y-66985714D01*
X79766723Y-66985714D02*
X79576247Y-66938095D01*
X79576247Y-66938095D02*
X79433390Y-66938095D01*
X79433390Y-66938095D02*
X79242914Y-66985714D01*
X79242914Y-66985714D02*
X79147676Y-67033333D01*
X79147676Y-67033333D02*
X79052438Y-67128571D01*
X79052438Y-67128571D02*
X79004819Y-67271428D01*
X79004819Y-67271428D02*
X79004819Y-67366666D01*
X79004819Y-67366666D02*
X79052438Y-67509523D01*
X79052438Y-67509523D02*
X79100057Y-67557142D01*
X80004819Y-68509523D02*
X80004819Y-67938095D01*
X80004819Y-68223809D02*
X79004819Y-68223809D01*
X79004819Y-68223809D02*
X79147676Y-68128571D01*
X79147676Y-68128571D02*
X79242914Y-68033333D01*
X79242914Y-68033333D02*
X79290533Y-67938095D01*
X80004819Y-69461904D02*
X80004819Y-68890476D01*
X80004819Y-69176190D02*
X79004819Y-69176190D01*
X79004819Y-69176190D02*
X79147676Y-69080952D01*
X79147676Y-69080952D02*
X79242914Y-68985714D01*
X79242914Y-68985714D02*
X79290533Y-68890476D01*
X51639580Y-73458333D02*
X51687200Y-73410714D01*
X51687200Y-73410714D02*
X51734819Y-73267857D01*
X51734819Y-73267857D02*
X51734819Y-73172619D01*
X51734819Y-73172619D02*
X51687200Y-73029762D01*
X51687200Y-73029762D02*
X51591961Y-72934524D01*
X51591961Y-72934524D02*
X51496723Y-72886905D01*
X51496723Y-72886905D02*
X51306247Y-72839286D01*
X51306247Y-72839286D02*
X51163390Y-72839286D01*
X51163390Y-72839286D02*
X50972914Y-72886905D01*
X50972914Y-72886905D02*
X50877676Y-72934524D01*
X50877676Y-72934524D02*
X50782438Y-73029762D01*
X50782438Y-73029762D02*
X50734819Y-73172619D01*
X50734819Y-73172619D02*
X50734819Y-73267857D01*
X50734819Y-73267857D02*
X50782438Y-73410714D01*
X50782438Y-73410714D02*
X50830057Y-73458333D01*
X51734819Y-74410714D02*
X51734819Y-73839286D01*
X51734819Y-74125000D02*
X50734819Y-74125000D01*
X50734819Y-74125000D02*
X50877676Y-74029762D01*
X50877676Y-74029762D02*
X50972914Y-73934524D01*
X50972914Y-73934524D02*
X51020533Y-73839286D01*
X116789580Y-74283333D02*
X116837200Y-74235714D01*
X116837200Y-74235714D02*
X116884819Y-74092857D01*
X116884819Y-74092857D02*
X116884819Y-73997619D01*
X116884819Y-73997619D02*
X116837200Y-73854762D01*
X116837200Y-73854762D02*
X116741961Y-73759524D01*
X116741961Y-73759524D02*
X116646723Y-73711905D01*
X116646723Y-73711905D02*
X116456247Y-73664286D01*
X116456247Y-73664286D02*
X116313390Y-73664286D01*
X116313390Y-73664286D02*
X116122914Y-73711905D01*
X116122914Y-73711905D02*
X116027676Y-73759524D01*
X116027676Y-73759524D02*
X115932438Y-73854762D01*
X115932438Y-73854762D02*
X115884819Y-73997619D01*
X115884819Y-73997619D02*
X115884819Y-74092857D01*
X115884819Y-74092857D02*
X115932438Y-74235714D01*
X115932438Y-74235714D02*
X115980057Y-74283333D01*
X116218152Y-75140476D02*
X116884819Y-75140476D01*
X115837200Y-74902381D02*
X116551485Y-74664286D01*
X116551485Y-74664286D02*
X116551485Y-75283333D01*
X55114580Y-73483333D02*
X55162200Y-73435714D01*
X55162200Y-73435714D02*
X55209819Y-73292857D01*
X55209819Y-73292857D02*
X55209819Y-73197619D01*
X55209819Y-73197619D02*
X55162200Y-73054762D01*
X55162200Y-73054762D02*
X55066961Y-72959524D01*
X55066961Y-72959524D02*
X54971723Y-72911905D01*
X54971723Y-72911905D02*
X54781247Y-72864286D01*
X54781247Y-72864286D02*
X54638390Y-72864286D01*
X54638390Y-72864286D02*
X54447914Y-72911905D01*
X54447914Y-72911905D02*
X54352676Y-72959524D01*
X54352676Y-72959524D02*
X54257438Y-73054762D01*
X54257438Y-73054762D02*
X54209819Y-73197619D01*
X54209819Y-73197619D02*
X54209819Y-73292857D01*
X54209819Y-73292857D02*
X54257438Y-73435714D01*
X54257438Y-73435714D02*
X54305057Y-73483333D01*
X54305057Y-73864286D02*
X54257438Y-73911905D01*
X54257438Y-73911905D02*
X54209819Y-74007143D01*
X54209819Y-74007143D02*
X54209819Y-74245238D01*
X54209819Y-74245238D02*
X54257438Y-74340476D01*
X54257438Y-74340476D02*
X54305057Y-74388095D01*
X54305057Y-74388095D02*
X54400295Y-74435714D01*
X54400295Y-74435714D02*
X54495533Y-74435714D01*
X54495533Y-74435714D02*
X54638390Y-74388095D01*
X54638390Y-74388095D02*
X55209819Y-73816667D01*
X55209819Y-73816667D02*
X55209819Y-74435714D01*
X112564580Y-74208333D02*
X112612200Y-74160714D01*
X112612200Y-74160714D02*
X112659819Y-74017857D01*
X112659819Y-74017857D02*
X112659819Y-73922619D01*
X112659819Y-73922619D02*
X112612200Y-73779762D01*
X112612200Y-73779762D02*
X112516961Y-73684524D01*
X112516961Y-73684524D02*
X112421723Y-73636905D01*
X112421723Y-73636905D02*
X112231247Y-73589286D01*
X112231247Y-73589286D02*
X112088390Y-73589286D01*
X112088390Y-73589286D02*
X111897914Y-73636905D01*
X111897914Y-73636905D02*
X111802676Y-73684524D01*
X111802676Y-73684524D02*
X111707438Y-73779762D01*
X111707438Y-73779762D02*
X111659819Y-73922619D01*
X111659819Y-73922619D02*
X111659819Y-74017857D01*
X111659819Y-74017857D02*
X111707438Y-74160714D01*
X111707438Y-74160714D02*
X111755057Y-74208333D01*
X111659819Y-74541667D02*
X111659819Y-75160714D01*
X111659819Y-75160714D02*
X112040771Y-74827381D01*
X112040771Y-74827381D02*
X112040771Y-74970238D01*
X112040771Y-74970238D02*
X112088390Y-75065476D01*
X112088390Y-75065476D02*
X112136009Y-75113095D01*
X112136009Y-75113095D02*
X112231247Y-75160714D01*
X112231247Y-75160714D02*
X112469342Y-75160714D01*
X112469342Y-75160714D02*
X112564580Y-75113095D01*
X112564580Y-75113095D02*
X112612200Y-75065476D01*
X112612200Y-75065476D02*
X112659819Y-74970238D01*
X112659819Y-74970238D02*
X112659819Y-74684524D01*
X112659819Y-74684524D02*
X112612200Y-74589286D01*
X112612200Y-74589286D02*
X112564580Y-74541667D01*
X87559580Y-67718333D02*
X87607200Y-67670714D01*
X87607200Y-67670714D02*
X87654819Y-67527857D01*
X87654819Y-67527857D02*
X87654819Y-67432619D01*
X87654819Y-67432619D02*
X87607200Y-67289762D01*
X87607200Y-67289762D02*
X87511961Y-67194524D01*
X87511961Y-67194524D02*
X87416723Y-67146905D01*
X87416723Y-67146905D02*
X87226247Y-67099286D01*
X87226247Y-67099286D02*
X87083390Y-67099286D01*
X87083390Y-67099286D02*
X86892914Y-67146905D01*
X86892914Y-67146905D02*
X86797676Y-67194524D01*
X86797676Y-67194524D02*
X86702438Y-67289762D01*
X86702438Y-67289762D02*
X86654819Y-67432619D01*
X86654819Y-67432619D02*
X86654819Y-67527857D01*
X86654819Y-67527857D02*
X86702438Y-67670714D01*
X86702438Y-67670714D02*
X86750057Y-67718333D01*
X86654819Y-68623095D02*
X86654819Y-68146905D01*
X86654819Y-68146905D02*
X87131009Y-68099286D01*
X87131009Y-68099286D02*
X87083390Y-68146905D01*
X87083390Y-68146905D02*
X87035771Y-68242143D01*
X87035771Y-68242143D02*
X87035771Y-68480238D01*
X87035771Y-68480238D02*
X87083390Y-68575476D01*
X87083390Y-68575476D02*
X87131009Y-68623095D01*
X87131009Y-68623095D02*
X87226247Y-68670714D01*
X87226247Y-68670714D02*
X87464342Y-68670714D01*
X87464342Y-68670714D02*
X87559580Y-68623095D01*
X87559580Y-68623095D02*
X87607200Y-68575476D01*
X87607200Y-68575476D02*
X87654819Y-68480238D01*
X87654819Y-68480238D02*
X87654819Y-68242143D01*
X87654819Y-68242143D02*
X87607200Y-68146905D01*
X87607200Y-68146905D02*
X87559580Y-68099286D01*
X82216666Y-73684580D02*
X82264285Y-73732200D01*
X82264285Y-73732200D02*
X82407142Y-73779819D01*
X82407142Y-73779819D02*
X82502380Y-73779819D01*
X82502380Y-73779819D02*
X82645237Y-73732200D01*
X82645237Y-73732200D02*
X82740475Y-73636961D01*
X82740475Y-73636961D02*
X82788094Y-73541723D01*
X82788094Y-73541723D02*
X82835713Y-73351247D01*
X82835713Y-73351247D02*
X82835713Y-73208390D01*
X82835713Y-73208390D02*
X82788094Y-73017914D01*
X82788094Y-73017914D02*
X82740475Y-72922676D01*
X82740475Y-72922676D02*
X82645237Y-72827438D01*
X82645237Y-72827438D02*
X82502380Y-72779819D01*
X82502380Y-72779819D02*
X82407142Y-72779819D01*
X82407142Y-72779819D02*
X82264285Y-72827438D01*
X82264285Y-72827438D02*
X82216666Y-72875057D01*
X81645237Y-73208390D02*
X81740475Y-73160771D01*
X81740475Y-73160771D02*
X81788094Y-73113152D01*
X81788094Y-73113152D02*
X81835713Y-73017914D01*
X81835713Y-73017914D02*
X81835713Y-72970295D01*
X81835713Y-72970295D02*
X81788094Y-72875057D01*
X81788094Y-72875057D02*
X81740475Y-72827438D01*
X81740475Y-72827438D02*
X81645237Y-72779819D01*
X81645237Y-72779819D02*
X81454761Y-72779819D01*
X81454761Y-72779819D02*
X81359523Y-72827438D01*
X81359523Y-72827438D02*
X81311904Y-72875057D01*
X81311904Y-72875057D02*
X81264285Y-72970295D01*
X81264285Y-72970295D02*
X81264285Y-73017914D01*
X81264285Y-73017914D02*
X81311904Y-73113152D01*
X81311904Y-73113152D02*
X81359523Y-73160771D01*
X81359523Y-73160771D02*
X81454761Y-73208390D01*
X81454761Y-73208390D02*
X81645237Y-73208390D01*
X81645237Y-73208390D02*
X81740475Y-73256009D01*
X81740475Y-73256009D02*
X81788094Y-73303628D01*
X81788094Y-73303628D02*
X81835713Y-73398866D01*
X81835713Y-73398866D02*
X81835713Y-73589342D01*
X81835713Y-73589342D02*
X81788094Y-73684580D01*
X81788094Y-73684580D02*
X81740475Y-73732200D01*
X81740475Y-73732200D02*
X81645237Y-73779819D01*
X81645237Y-73779819D02*
X81454761Y-73779819D01*
X81454761Y-73779819D02*
X81359523Y-73732200D01*
X81359523Y-73732200D02*
X81311904Y-73684580D01*
X81311904Y-73684580D02*
X81264285Y-73589342D01*
X81264285Y-73589342D02*
X81264285Y-73398866D01*
X81264285Y-73398866D02*
X81311904Y-73303628D01*
X81311904Y-73303628D02*
X81359523Y-73256009D01*
X81359523Y-73256009D02*
X81454761Y-73208390D01*
X84141666Y-65934580D02*
X84189285Y-65982200D01*
X84189285Y-65982200D02*
X84332142Y-66029819D01*
X84332142Y-66029819D02*
X84427380Y-66029819D01*
X84427380Y-66029819D02*
X84570237Y-65982200D01*
X84570237Y-65982200D02*
X84665475Y-65886961D01*
X84665475Y-65886961D02*
X84713094Y-65791723D01*
X84713094Y-65791723D02*
X84760713Y-65601247D01*
X84760713Y-65601247D02*
X84760713Y-65458390D01*
X84760713Y-65458390D02*
X84713094Y-65267914D01*
X84713094Y-65267914D02*
X84665475Y-65172676D01*
X84665475Y-65172676D02*
X84570237Y-65077438D01*
X84570237Y-65077438D02*
X84427380Y-65029819D01*
X84427380Y-65029819D02*
X84332142Y-65029819D01*
X84332142Y-65029819D02*
X84189285Y-65077438D01*
X84189285Y-65077438D02*
X84141666Y-65125057D01*
X83665475Y-66029819D02*
X83474999Y-66029819D01*
X83474999Y-66029819D02*
X83379761Y-65982200D01*
X83379761Y-65982200D02*
X83332142Y-65934580D01*
X83332142Y-65934580D02*
X83236904Y-65791723D01*
X83236904Y-65791723D02*
X83189285Y-65601247D01*
X83189285Y-65601247D02*
X83189285Y-65220295D01*
X83189285Y-65220295D02*
X83236904Y-65125057D01*
X83236904Y-65125057D02*
X83284523Y-65077438D01*
X83284523Y-65077438D02*
X83379761Y-65029819D01*
X83379761Y-65029819D02*
X83570237Y-65029819D01*
X83570237Y-65029819D02*
X83665475Y-65077438D01*
X83665475Y-65077438D02*
X83713094Y-65125057D01*
X83713094Y-65125057D02*
X83760713Y-65220295D01*
X83760713Y-65220295D02*
X83760713Y-65458390D01*
X83760713Y-65458390D02*
X83713094Y-65553628D01*
X83713094Y-65553628D02*
X83665475Y-65601247D01*
X83665475Y-65601247D02*
X83570237Y-65648866D01*
X83570237Y-65648866D02*
X83379761Y-65648866D01*
X83379761Y-65648866D02*
X83284523Y-65601247D01*
X83284523Y-65601247D02*
X83236904Y-65553628D01*
X83236904Y-65553628D02*
X83189285Y-65458390D01*
D11*
%TO.C,C11*%
X80565000Y-67038748D02*
X80565000Y-67561252D01*
X82035000Y-67038748D02*
X82035000Y-67561252D01*
%TO.C,C1*%
X48865000Y-73886252D02*
X48865000Y-73363748D01*
X50335000Y-73886252D02*
X50335000Y-73363748D01*
%TO.C,C4*%
X114015000Y-74711252D02*
X114015000Y-74188748D01*
X115485000Y-74711252D02*
X115485000Y-74188748D01*
%TO.C,C2*%
X52340000Y-73911252D02*
X52340000Y-73388748D01*
X53810000Y-73911252D02*
X53810000Y-73388748D01*
%TO.C,C3*%
X109790000Y-74636252D02*
X109790000Y-74113748D01*
X111260000Y-74636252D02*
X111260000Y-74113748D01*
%TO.C,C5*%
X85036252Y-68890000D02*
X84513748Y-68890000D01*
X85036252Y-70360000D02*
X84513748Y-70360000D01*
%TO.C,C8*%
X84538748Y-71315000D02*
X85061252Y-71315000D01*
X84538748Y-72785000D02*
X85061252Y-72785000D01*
%TO.C,C9*%
X84961252Y-66415000D02*
X84438748Y-66415000D01*
X84961252Y-67885000D02*
X84438748Y-67885000D01*
%TD*%
D12*
X42000000Y-53500000D02*
X122000000Y-53500000D01*
X122000000Y-90500000D01*
X42000000Y-90500000D01*
X42000000Y-53500000D01*
M02*
