%TF.GenerationSoftware,KiCad,Pcbnew,9.0.0*%
%TF.CreationDate,2025-03-14T14:13:33-06:00*%
%TF.ProjectId,scrollwheel_peripheral,7363726f-6c6c-4776-9865-656c5f706572,rev?*%
%TF.SameCoordinates,Original*%
%TF.FileFunction,Copper,L1,Top*%
%TF.FilePolarity,Positive*%
%FSLAX46Y46*%
G04 Gerber Fmt 4.6, Leading zero omitted, Abs format (unit mm)*
G04 Created by KiCad (PCBNEW 9.0.0) date 2025-03-14 14:13:33*
%MOMM*%
%LPD*%
G01*
G04 APERTURE LIST*
G04 Aperture macros list*
%AMRoundRect*
0 Rectangle with rounded corners*
0 $1 Rounding radius*
0 $2 $3 $4 $5 $6 $7 $8 $9 X,Y pos of 4 corners*
0 Add a 4 corners polygon primitive as box body*
4,1,4,$2,$3,$4,$5,$6,$7,$8,$9,$2,$3,0*
0 Add four circle primitives for the rounded corners*
1,1,$1+$1,$2,$3*
1,1,$1+$1,$4,$5*
1,1,$1+$1,$6,$7*
1,1,$1+$1,$8,$9*
0 Add four rect primitives between the rounded corners*
20,1,$1+$1,$2,$3,$4,$5,0*
20,1,$1+$1,$4,$5,$6,$7,0*
20,1,$1+$1,$6,$7,$8,$9,0*
20,1,$1+$1,$8,$9,$2,$3,0*%
G04 Aperture macros list end*
%TA.AperFunction,SMDPad,CuDef*%
%ADD10RoundRect,0.250000X0.450000X-0.262500X0.450000X0.262500X-0.450000X0.262500X-0.450000X-0.262500X0*%
%TD*%
%TA.AperFunction,ComponentPad*%
%ADD11C,1.650000*%
%TD*%
%TA.AperFunction,ComponentPad*%
%ADD12C,5.161000*%
%TD*%
%TA.AperFunction,ComponentPad*%
%ADD13C,2.000000*%
%TD*%
%TA.AperFunction,ComponentPad*%
%ADD14R,1.700000X1.700000*%
%TD*%
%TA.AperFunction,ComponentPad*%
%ADD15O,1.700000X1.700000*%
%TD*%
%TA.AperFunction,ComponentPad*%
%ADD16C,1.875000*%
%TD*%
%TA.AperFunction,ComponentPad*%
%ADD17C,2.430000*%
%TD*%
%TA.AperFunction,SMDPad,CuDef*%
%ADD18R,0.600000X1.100000*%
%TD*%
%TA.AperFunction,SMDPad,CuDef*%
%ADD19R,0.300000X1.100000*%
%TD*%
%TA.AperFunction,SMDPad,CuDef*%
%ADD20RoundRect,0.250000X0.262500X0.450000X-0.262500X0.450000X-0.262500X-0.450000X0.262500X-0.450000X0*%
%TD*%
%TA.AperFunction,SMDPad,CuDef*%
%ADD21RoundRect,0.250000X0.250000X0.475000X-0.250000X0.475000X-0.250000X-0.475000X0.250000X-0.475000X0*%
%TD*%
%TA.AperFunction,SMDPad,CuDef*%
%ADD22RoundRect,0.250000X-0.262500X-0.450000X0.262500X-0.450000X0.262500X0.450000X-0.262500X0.450000X0*%
%TD*%
%TA.AperFunction,SMDPad,CuDef*%
%ADD23R,1.900000X2.400000*%
%TD*%
%TA.AperFunction,SMDPad,CuDef*%
%ADD24RoundRect,0.250000X-0.250000X-0.475000X0.250000X-0.475000X0.250000X0.475000X-0.250000X0.475000X0*%
%TD*%
%TA.AperFunction,SMDPad,CuDef*%
%ADD25R,1.500000X0.600000*%
%TD*%
%TA.AperFunction,SMDPad,CuDef*%
%ADD26R,0.600000X1.500000*%
%TD*%
%TA.AperFunction,ViaPad*%
%ADD27C,0.600000*%
%TD*%
%TA.AperFunction,Conductor*%
%ADD28C,0.200000*%
%TD*%
%TA.AperFunction,Conductor*%
%ADD29C,0.400000*%
%TD*%
%TA.AperFunction,Profile*%
%ADD30C,0.050000*%
%TD*%
G04 APERTURE END LIST*
D10*
%TO.P,R5,1*%
%TO.N,/5V*%
X74775000Y-64200000D03*
%TO.P,R5,2*%
%TO.N,Net-(IC1-~{RESET})*%
X74775000Y-62375000D03*
%TD*%
D11*
%TO.P,VR1,1,1*%
%TO.N,Net-(IC1-PB4_(PCINT4{slash}ADC11))*%
X49000000Y-63000000D03*
%TO.P,VR1,2,2*%
%TO.N,GND*%
X54000000Y-63000000D03*
%TO.P,VR1,A1,A*%
%TO.N,Net-(IC1-PB5_(PCINT5{slash}OC1A{slash}~{OC4B}{slash}ADC))*%
X49000000Y-77500000D03*
%TO.P,VR1,B1,B*%
%TO.N,Net-(IC1-PB6_(PCINT6{slash}OC1B{slash}OC4B{slash}ADC))*%
X54000000Y-77500000D03*
%TO.P,VR1,C1,C*%
%TO.N,GND*%
X51500000Y-77500000D03*
D12*
%TO.P,VR1,MH1,MH1*%
%TO.N,unconnected-(VR1-PadMH1)*%
X45800000Y-70000000D03*
%TO.P,VR1,MH2,MH2*%
%TO.N,unconnected-(VR1-PadMH2)*%
X57200000Y-70000000D03*
%TD*%
D13*
%TO.P,SW2,1,1*%
%TO.N,GND*%
X65325000Y-56025000D03*
X71825000Y-56025000D03*
%TO.P,SW2,2,2*%
%TO.N,Net-(IC1-~{RESET})*%
X65325000Y-60525000D03*
X71825000Y-60525000D03*
%TD*%
D14*
%TO.P,J2,1,TCK*%
%TO.N,Net-(IC1-PF4_(ADC4{slash}TCK))*%
X67815000Y-86325000D03*
D15*
%TO.P,J2,2,GND*%
%TO.N,GND*%
X65275000Y-86325000D03*
%TO.P,J2,3,TDO*%
%TO.N,Net-(IC1-PF6_(ADC6{slash}TDO))*%
X67815000Y-83785000D03*
%TO.P,J2,4,VREF*%
%TO.N,/5V*%
X65275000Y-83785000D03*
%TO.P,J2,5,TMS*%
%TO.N,Net-(IC1-PF5_(ADC5{slash}TMS))*%
X67815000Y-81245000D03*
%TO.P,J2,6,~{SRST}*%
%TO.N,Net-(IC1-~{RESET})*%
X65275000Y-81245000D03*
%TO.P,J2,7,VCC*%
%TO.N,/5V*%
X67815000Y-78705000D03*
%TO.P,J2,8,~{TRST}*%
%TO.N,unconnected-(J2-~{TRST}-Pad8)*%
X65275000Y-78705000D03*
%TO.P,J2,9,TDI*%
%TO.N,Net-(IC1-PF7_(ADC7{slash}TDI))*%
X67815000Y-76165000D03*
%TO.P,J2,10,GND*%
%TO.N,GND*%
X65275000Y-76165000D03*
%TD*%
D16*
%TO.P,J1,1,MH1*%
%TO.N,unconnected-(J1-MH1-Pad1)*%
X77760000Y-83325000D03*
%TO.P,J1,2,MH2*%
%TO.N,unconnected-(J1-MH2-Pad2)*%
X89000000Y-83325000D03*
D17*
%TO.P,J1,3,MH3*%
%TO.N,unconnected-(J1-MH3-Pad3)*%
X77760000Y-87325000D03*
%TO.P,J1,4,MH4*%
%TO.N,unconnected-(J1-MH4-Pad4)*%
X89000000Y-87325000D03*
D18*
%TO.P,J1,A1,GND_1*%
%TO.N,GND*%
X80180000Y-82175000D03*
%TO.P,J1,A4,VBUS_1*%
%TO.N,/5V*%
X80980000Y-82175000D03*
D19*
%TO.P,J1,A5,CC1*%
%TO.N,Net-(J1-CC1)*%
X82130000Y-82175000D03*
%TO.P,J1,A6,DP1*%
%TO.N,Net-(J1-DP1)*%
X83130000Y-82175000D03*
%TO.P,J1,A7,DN1*%
%TO.N,Net-(J1-DN1)*%
X83630000Y-82175000D03*
%TO.P,J1,A8,SBU1*%
%TO.N,unconnected-(J1-SBU1-PadA8)*%
X84630000Y-82175000D03*
D18*
%TO.P,J1,B1,GND_2*%
%TO.N,GND*%
X86580000Y-82175000D03*
%TO.P,J1,B4,VBUS_2*%
%TO.N,/5V*%
X85780000Y-82175000D03*
D19*
%TO.P,J1,B5,CC2*%
%TO.N,Net-(J1-CC2)*%
X85130000Y-82175000D03*
%TO.P,J1,B6,DP2*%
%TO.N,unconnected-(J1-DP2-PadB6)*%
X84130000Y-82175000D03*
%TO.P,J1,B7,DN2*%
%TO.N,unconnected-(J1-DN2-PadB7)*%
X82630000Y-82175000D03*
%TO.P,J1,B8,SBU2*%
%TO.N,unconnected-(J1-SBU2-PadB8)*%
X81630000Y-82175000D03*
%TD*%
D20*
%TO.P,R1,1*%
%TO.N,Net-(J1-DN1)*%
X94687500Y-76500000D03*
%TO.P,R1,2*%
%TO.N,Net-(IC1-D-)*%
X92862500Y-76500000D03*
%TD*%
D21*
%TO.P,C7,1*%
%TO.N,Net-(IC1-XTAL1)*%
X79150000Y-57500000D03*
%TO.P,C7,2*%
%TO.N,GND*%
X77250000Y-57500000D03*
%TD*%
D11*
%TO.P,VR2,1,1*%
%TO.N,Net-(IC1-(PDI{slash}PCINT2{slash}MOSI)_PB2)*%
X110100000Y-63500000D03*
%TO.P,VR2,2,2*%
%TO.N,GND*%
X115100000Y-63500000D03*
%TO.P,VR2,A1,A*%
%TO.N,Net-(IC1-(SS{slash}PCINT0)_PB0)*%
X110100000Y-78000000D03*
%TO.P,VR2,B1,B*%
%TO.N,Net-(IC1-(PCINT1{slash}SCLK)_PB1)*%
X115100000Y-78000000D03*
%TO.P,VR2,C1,C*%
%TO.N,GND*%
X112600000Y-78000000D03*
D12*
%TO.P,VR2,MH1,MH1*%
%TO.N,unconnected-(VR2-PadMH1)*%
X106900000Y-70500000D03*
%TO.P,VR2,MH2,MH2*%
%TO.N,unconnected-(VR2-PadMH2)*%
X118300000Y-70500000D03*
%TD*%
D22*
%TO.P,R4,1*%
%TO.N,GND*%
X71850000Y-84225000D03*
%TO.P,R4,2*%
%TO.N,Net-(J1-CC1)*%
X73675000Y-84225000D03*
%TD*%
D20*
%TO.P,R3,1*%
%TO.N,Net-(J1-CC2)*%
X73700000Y-87075000D03*
%TO.P,R3,2*%
%TO.N,GND*%
X71875000Y-87075000D03*
%TD*%
D23*
%TO.P,Y1,1,1*%
%TO.N,Net-(IC1-XTAL2)*%
X85650000Y-57400000D03*
%TO.P,Y1,2,2*%
%TO.N,Net-(IC1-XTAL1)*%
X81550000Y-57400000D03*
%TD*%
D20*
%TO.P,R2,1*%
%TO.N,Net-(J1-DP1)*%
X94725000Y-74075000D03*
%TO.P,R2,2*%
%TO.N,Net-(IC1-D+)*%
X92900000Y-74075000D03*
%TD*%
D24*
%TO.P,C6,1*%
%TO.N,Net-(IC1-XTAL2)*%
X88225000Y-57225000D03*
%TO.P,C6,2*%
%TO.N,GND*%
X90125000Y-57225000D03*
%TD*%
D25*
%TO.P,IC1,1,(INT.6/AIN0)_PE6*%
%TO.N,unconnected-(IC1-(INT.6{slash}AIN0)_PE6-Pad1)*%
X89000000Y-73500000D03*
%TO.P,IC1,2,UVCC*%
%TO.N,/5V*%
X89000000Y-72700000D03*
%TO.P,IC1,3,D-*%
%TO.N,Net-(IC1-D-)*%
X89000000Y-71900000D03*
%TO.P,IC1,4,D+*%
%TO.N,Net-(IC1-D+)*%
X89000000Y-71100000D03*
%TO.P,IC1,5,UGND*%
%TO.N,GND*%
X89000000Y-70300000D03*
%TO.P,IC1,6,UCAP*%
%TO.N,Net-(IC1-UCAP)*%
X89000000Y-69500000D03*
%TO.P,IC1,7,VBUS*%
%TO.N,/5V*%
X89000000Y-68700000D03*
%TO.P,IC1,8,(SS/PCINT0)_PB0*%
%TO.N,Net-(IC1-(SS{slash}PCINT0)_PB0)*%
X89000000Y-67900000D03*
%TO.P,IC1,9,(PCINT1/SCLK)_PB1*%
%TO.N,Net-(IC1-(PCINT1{slash}SCLK)_PB1)*%
X89000000Y-67100000D03*
%TO.P,IC1,10,(PDI/PCINT2/MOSI)_PB2*%
%TO.N,Net-(IC1-(PDI{slash}PCINT2{slash}MOSI)_PB2)*%
X89000000Y-66300000D03*
%TO.P,IC1,11,(PDO/PCINT3/MISO)_PB3*%
%TO.N,unconnected-(IC1-(PDO{slash}PCINT3{slash}MISO)_PB3-Pad11)*%
X89000000Y-65500000D03*
D26*
%TO.P,IC1,12,(PCINT7/OC0A/OC1C/~{RTS})_PB7*%
%TO.N,unconnected-(IC1-(PCINT7{slash}OC0A{slash}OC1C{slash}~{RTS})_PB7-Pad12)*%
X87250000Y-63750000D03*
%TO.P,IC1,13,~{RESET}*%
%TO.N,Net-(IC1-~{RESET})*%
X86450000Y-63750000D03*
%TO.P,IC1,14,VCC_1*%
%TO.N,/5V*%
X85650000Y-63750000D03*
%TO.P,IC1,15,GND_1*%
%TO.N,GND*%
X84850000Y-63750000D03*
%TO.P,IC1,16,XTAL2*%
%TO.N,Net-(IC1-XTAL2)*%
X84050000Y-63750000D03*
%TO.P,IC1,17,XTAL1*%
%TO.N,Net-(IC1-XTAL1)*%
X83250000Y-63750000D03*
%TO.P,IC1,18,(OC0B/SCL/INT0)_PD0*%
%TO.N,unconnected-(IC1-(OC0B{slash}SCL{slash}INT0)_PD0-Pad18)*%
X82450000Y-63750000D03*
%TO.P,IC1,19,(SDA/INT1)_PD1*%
%TO.N,unconnected-(IC1-(SDA{slash}INT1)_PD1-Pad19)*%
X81650000Y-63750000D03*
%TO.P,IC1,20,(RXD1/INT2)_PD2*%
%TO.N,unconnected-(IC1-(RXD1{slash}INT2)_PD2-Pad20)*%
X80850000Y-63750000D03*
%TO.P,IC1,21,(TXD1/INT3)_PD3*%
%TO.N,unconnected-(IC1-(TXD1{slash}INT3)_PD3-Pad21)*%
X80050000Y-63750000D03*
%TO.P,IC1,22,(XCK1/~{CTS})_PD5*%
%TO.N,unconnected-(IC1-(XCK1{slash}~{CTS})_PD5-Pad22)*%
X79250000Y-63750000D03*
D25*
%TO.P,IC1,23,GND_2*%
%TO.N,GND*%
X77500000Y-65500000D03*
%TO.P,IC1,24,AVCC_1*%
%TO.N,/5V*%
X77500000Y-66300000D03*
%TO.P,IC1,25,PD4_(ICP1/ADC8)*%
%TO.N,unconnected-(IC1-PD4_(ICP1{slash}ADC8)-Pad25)*%
X77500000Y-67100000D03*
%TO.P,IC1,26,PD6_(T1/~{OC4D}/ADC9)*%
%TO.N,unconnected-(IC1-PD6_(T1{slash}~{OC4D}{slash}ADC9)-Pad26)*%
X77500000Y-67900000D03*
%TO.P,IC1,27,PD7_(T0/OC4D/ADC10)*%
%TO.N,unconnected-(IC1-PD7_(T0{slash}OC4D{slash}ADC10)-Pad27)*%
X77500000Y-68700000D03*
%TO.P,IC1,28,PB4_(PCINT4/ADC11)*%
%TO.N,Net-(IC1-PB4_(PCINT4{slash}ADC11))*%
X77500000Y-69500000D03*
%TO.P,IC1,29,PB5_(PCINT5/OC1A/~{OC4B}/ADC)*%
%TO.N,Net-(IC1-PB5_(PCINT5{slash}OC1A{slash}~{OC4B}{slash}ADC))*%
X77500000Y-70300000D03*
%TO.P,IC1,30,PB6_(PCINT6/OC1B/OC4B/ADC)*%
%TO.N,Net-(IC1-PB6_(PCINT6{slash}OC1B{slash}OC4B{slash}ADC))*%
X77500000Y-71100000D03*
%TO.P,IC1,31,PC6_(OC3A/~{OC4A})*%
%TO.N,unconnected-(IC1-PC6_(OC3A{slash}~{OC4A})-Pad31)*%
X77500000Y-71900000D03*
%TO.P,IC1,32,PC7_(ICP3/CLK0/OC)4A*%
%TO.N,unconnected-(IC1-PC7_(ICP3{slash}CLK0{slash}OC)4A-Pad32)*%
X77500000Y-72700000D03*
%TO.P,IC1,33,PE2_(~{HWB})*%
%TO.N,unconnected-(IC1-PE2_(~{HWB})-Pad33)*%
X77500000Y-73500000D03*
D26*
%TO.P,IC1,34,VCC_2*%
%TO.N,/5V*%
X79250000Y-75250000D03*
%TO.P,IC1,35,GND_3*%
%TO.N,GND*%
X80050000Y-75250000D03*
%TO.P,IC1,36,PF7_(ADC7/TDI)*%
%TO.N,Net-(IC1-PF7_(ADC7{slash}TDI))*%
X80850000Y-75250000D03*
%TO.P,IC1,37,PF6_(ADC6/TDO)*%
%TO.N,Net-(IC1-PF6_(ADC6{slash}TDO))*%
X81650000Y-75250000D03*
%TO.P,IC1,38,PF5_(ADC5/TMS)*%
%TO.N,Net-(IC1-PF5_(ADC5{slash}TMS))*%
X82450000Y-75250000D03*
%TO.P,IC1,39,PF4_(ADC4/TCK)*%
%TO.N,Net-(IC1-PF4_(ADC4{slash}TCK))*%
X83250000Y-75250000D03*
%TO.P,IC1,40,PF1_(ADC1)*%
%TO.N,unconnected-(IC1-PF1_(ADC1)-Pad40)*%
X84050000Y-75250000D03*
%TO.P,IC1,41,PF0_(ADC0)*%
%TO.N,unconnected-(IC1-PF0_(ADC0)-Pad41)*%
X84850000Y-75250000D03*
%TO.P,IC1,42,AREF*%
%TO.N,/5V*%
X85650000Y-75250000D03*
%TO.P,IC1,43,GND_4*%
%TO.N,GND*%
X86450000Y-75250000D03*
%TO.P,IC1,44,AVCC_2*%
%TO.N,/5V*%
X87250000Y-75250000D03*
%TD*%
D21*
%TO.P,C10,1*%
%TO.N,/5V*%
X75325000Y-75275000D03*
%TO.P,C10,2*%
%TO.N,GND*%
X73425000Y-75275000D03*
%TD*%
D27*
%TO.N,GND*%
X81650000Y-69725000D03*
X84050000Y-65025000D03*
X81550000Y-73500000D03*
%TO.N,Net-(IC1-UCAP)*%
X87025000Y-69450000D03*
%TO.N,/5V*%
X85650000Y-65625000D03*
X87075000Y-72575000D03*
X79700000Y-66300000D03*
X85750000Y-83650000D03*
X80150000Y-83750000D03*
%TO.N,Net-(IC1-~{RESET})*%
X85700000Y-61450000D03*
%TD*%
D28*
%TO.N,/5V*%
X74775000Y-64200000D02*
X74775000Y-64712500D01*
X74775000Y-64712500D02*
X76362500Y-66300000D01*
X76362500Y-66300000D02*
X77500000Y-66300000D01*
%TO.N,Net-(IC1-~{RESET})*%
X71825000Y-60525000D02*
X73675000Y-62375000D01*
X73675000Y-62375000D02*
X74775000Y-62375000D01*
D29*
%TO.N,/5V*%
X79700000Y-66300000D02*
X79700000Y-71300000D01*
X79700000Y-71300000D02*
X80975000Y-72575000D01*
D28*
%TO.N,GND*%
X82225000Y-70300000D02*
X81650000Y-69725000D01*
X89000000Y-70300000D02*
X82225000Y-70300000D01*
X84427000Y-65025000D02*
X84050000Y-65025000D01*
X84850000Y-64602000D02*
X84427000Y-65025000D01*
X84850000Y-63750000D02*
X84850000Y-64602000D01*
%TO.N,Net-(IC1-XTAL2)*%
X85650000Y-57400000D02*
X88050000Y-57400000D01*
X88050000Y-57400000D02*
X88225000Y-57225000D01*
%TO.N,Net-(IC1-XTAL1)*%
X79150000Y-57500000D02*
X81450000Y-57500000D01*
X81450000Y-57500000D02*
X81550000Y-57400000D01*
%TO.N,GND*%
X86450000Y-75250000D02*
X86450000Y-76550000D01*
X80180000Y-81425000D02*
X80180000Y-82175000D01*
X86450000Y-76550000D02*
X85055000Y-76550000D01*
X85055000Y-76550000D02*
X80180000Y-81425000D01*
X81125000Y-73500000D02*
X81550000Y-73500000D01*
X80050000Y-74575000D02*
X81125000Y-73500000D01*
X80050000Y-75250000D02*
X80050000Y-74575000D01*
%TO.N,/5V*%
X89000000Y-72700000D02*
X87200000Y-72700000D01*
X87200000Y-72700000D02*
X87075000Y-72575000D01*
%TO.N,Net-(IC1-PB5_(PCINT5{slash}OC1A{slash}~{OC4B}{slash}ADC))*%
X57901000Y-74249000D02*
X61850000Y-70300000D01*
X52251000Y-74249000D02*
X57901000Y-74249000D01*
X49000000Y-77500000D02*
X52251000Y-74249000D01*
X61850000Y-70300000D02*
X77500000Y-70300000D01*
%TO.N,Net-(IC1-UCAP)*%
X87075000Y-69500000D02*
X87025000Y-69450000D01*
X89000000Y-69500000D02*
X87075000Y-69500000D01*
%TO.N,Net-(IC1-XTAL2)*%
X85650000Y-57400000D02*
X84050000Y-59000000D01*
X84050000Y-59000000D02*
X84050000Y-63750000D01*
D29*
%TO.N,/5V*%
X63300000Y-88950000D02*
X62150000Y-87800000D01*
X87075000Y-72575000D02*
X87250000Y-72750000D01*
X62210000Y-86850000D02*
X65275000Y-83785000D01*
D28*
X85650000Y-63750000D02*
X85650000Y-65625000D01*
D29*
X62150000Y-74475000D02*
X63775000Y-72850000D01*
D28*
X85650000Y-65625000D02*
X85650000Y-67225057D01*
D29*
X87075000Y-72575000D02*
X85650000Y-74000000D01*
D28*
X77500000Y-66300000D02*
X79700000Y-66300000D01*
D29*
X80980000Y-82920000D02*
X80150000Y-83750000D01*
X62150000Y-86850000D02*
X62150000Y-74475000D01*
D28*
X85650000Y-67225057D02*
X87124943Y-68700000D01*
D29*
X87075000Y-72575000D02*
X80975000Y-72575000D01*
X75325000Y-73650000D02*
X75325000Y-75275000D01*
D28*
X75350000Y-75250000D02*
X75325000Y-75275000D01*
D29*
X80980000Y-82175000D02*
X80980000Y-82920000D01*
X85750000Y-83650000D02*
X80450000Y-88950000D01*
D28*
X87124943Y-68700000D02*
X89000000Y-68700000D01*
D29*
X87250000Y-72750000D02*
X87250000Y-75250000D01*
X80975000Y-72575000D02*
X79250000Y-74300000D01*
D28*
X80375000Y-65625000D02*
X85650000Y-65625000D01*
D29*
X79250000Y-74300000D02*
X79250000Y-75250000D01*
X62150000Y-86850000D02*
X62210000Y-86850000D01*
X62150000Y-87800000D02*
X62150000Y-86850000D01*
X79250000Y-75250000D02*
X75350000Y-75250000D01*
X74525000Y-72850000D02*
X75325000Y-73650000D01*
X85780000Y-83620000D02*
X85750000Y-83650000D01*
X85780000Y-82175000D02*
X85780000Y-83620000D01*
X80450000Y-88950000D02*
X63300000Y-88950000D01*
D28*
X79700000Y-66300000D02*
X80375000Y-65625000D01*
D29*
X85650000Y-74000000D02*
X85650000Y-75250000D01*
X63775000Y-72850000D02*
X74525000Y-72850000D01*
D28*
%TO.N,Net-(IC1-~{RESET})*%
X85700000Y-61450000D02*
X86450000Y-62200000D01*
X86450000Y-62200000D02*
X86450000Y-63750000D01*
%TO.N,Net-(IC1-PF5_(ADC5{slash}TMS))*%
X80202000Y-78350000D02*
X82450000Y-76102000D01*
X82450000Y-76102000D02*
X82450000Y-75250000D01*
X70710000Y-78350000D02*
X80202000Y-78350000D01*
X67815000Y-81245000D02*
X70710000Y-78350000D01*
%TO.N,Net-(IC1-PF4_(ADC4{slash}TCK))*%
X70850000Y-83290000D02*
X70850000Y-79425000D01*
X70850000Y-79425000D02*
X80325000Y-79425000D01*
X67815000Y-86325000D02*
X70850000Y-83290000D01*
X83250000Y-76500000D02*
X83250000Y-75250000D01*
X80325000Y-79425000D02*
X83250000Y-76500000D01*
%TO.N,Net-(IC1-PF7_(ADC7{slash}TDI))*%
X80850000Y-76300000D02*
X80850000Y-75250000D01*
X67815000Y-76165000D02*
X68665000Y-77015000D01*
X80135000Y-77015000D02*
X80850000Y-76300000D01*
X68665000Y-77015000D02*
X80135000Y-77015000D01*
%TO.N,Net-(IC1-D+)*%
X89000000Y-71100000D02*
X89950000Y-71100000D01*
X89950000Y-71100000D02*
X92900000Y-74050000D01*
X92900000Y-74050000D02*
X92900000Y-74075000D01*
%TO.N,Net-(IC1-(PDI{slash}PCINT2{slash}MOSI)_PB2)*%
X89151000Y-66451000D02*
X89000000Y-66300000D01*
X107149000Y-66451000D02*
X89151000Y-66451000D01*
X110100000Y-63500000D02*
X107149000Y-66451000D01*
%TO.N,Net-(IC1-(PCINT1{slash}SCLK)_PB1)*%
X105449943Y-74624943D02*
X97925000Y-67100000D01*
X115100000Y-78000000D02*
X111724943Y-74624943D01*
X111724943Y-74624943D02*
X105449943Y-74624943D01*
X97925000Y-67100000D02*
X89000000Y-67100000D01*
%TO.N,Net-(IC1-D-)*%
X92086500Y-75724000D02*
X92862500Y-76500000D01*
X89950000Y-71900000D02*
X92086500Y-74036500D01*
X89000000Y-71900000D02*
X89950000Y-71900000D01*
X92086500Y-74036500D02*
X92086500Y-75724000D01*
%TO.N,Net-(IC1-(SS{slash}PCINT0)_PB0)*%
X108257900Y-78000000D02*
X110100000Y-78000000D01*
X98157900Y-67900000D02*
X108257900Y-78000000D01*
X89000000Y-67900000D02*
X98157900Y-67900000D01*
%TO.N,Net-(IC1-PB4_(PCINT4{slash}ADC11))*%
X71176000Y-64126000D02*
X76550000Y-69500000D01*
X50126000Y-64126000D02*
X71176000Y-64126000D01*
X76550000Y-69500000D02*
X77500000Y-69500000D01*
X49000000Y-63000000D02*
X50126000Y-64126000D01*
%TO.N,Net-(IC1-PF6_(ADC6{slash}TDO))*%
X81650000Y-76200000D02*
X81650000Y-75250000D01*
X66664000Y-82634000D02*
X66664000Y-78228240D01*
X67815000Y-83785000D02*
X66664000Y-82634000D01*
X80325000Y-77525000D02*
X81650000Y-76200000D01*
X66664000Y-78228240D02*
X67367240Y-77525000D01*
X67367240Y-77525000D02*
X80325000Y-77525000D01*
%TO.N,Net-(J1-CC1)*%
X80532000Y-84575000D02*
X82130000Y-82977000D01*
X82130000Y-82977000D02*
X82130000Y-82175000D01*
X74025000Y-84575000D02*
X80532000Y-84575000D01*
X73675000Y-84225000D02*
X74025000Y-84575000D01*
%TO.N,Net-(J1-CC2)*%
X83131000Y-84976000D02*
X85130000Y-82977000D01*
X73700000Y-87075000D02*
X75799000Y-84976000D01*
X85130000Y-82977000D02*
X85130000Y-82175000D01*
X75799000Y-84976000D02*
X83131000Y-84976000D01*
%TO.N,Net-(J1-DP1)*%
X93676000Y-77185160D02*
X90812160Y-80049000D01*
X84150000Y-80049000D02*
X83130000Y-81069000D01*
X90812160Y-80049000D02*
X84150000Y-80049000D01*
X83130000Y-81069000D02*
X83130000Y-82175000D01*
X93676000Y-75124000D02*
X93676000Y-77185160D01*
X94725000Y-74075000D02*
X93676000Y-75124000D01*
%TO.N,Net-(J1-DN1)*%
X94687500Y-78187500D02*
X92425000Y-80450000D01*
X84575000Y-80450000D02*
X83630000Y-81395000D01*
X83630000Y-81395000D02*
X83630000Y-82175000D01*
X92425000Y-80450000D02*
X84575000Y-80450000D01*
X94687500Y-76500000D02*
X94687500Y-78187500D01*
%TO.N,Net-(IC1-XTAL1)*%
X81550000Y-57400000D02*
X83250000Y-59100000D01*
X83250000Y-59100000D02*
X83250000Y-63750000D01*
%TO.N,Net-(IC1-PB6_(PCINT6{slash}OC1B{slash}OC4B{slash}ADC))*%
X56200000Y-77500000D02*
X62600000Y-71100000D01*
X54000000Y-77500000D02*
X56200000Y-77500000D01*
X62600000Y-71100000D02*
X77500000Y-71100000D01*
%TD*%
%TA.AperFunction,Conductor*%
%TO.N,GND*%
G36*
X90455702Y-73255383D02*
G01*
X90462180Y-73261415D01*
X91449681Y-74248916D01*
X91483166Y-74310239D01*
X91486000Y-74336597D01*
X91486000Y-75637330D01*
X91485999Y-75637348D01*
X91485999Y-75803054D01*
X91485998Y-75803054D01*
X91500719Y-75857993D01*
X91526923Y-75955785D01*
X91534096Y-75968209D01*
X91534098Y-75968217D01*
X91534101Y-75968216D01*
X91592359Y-76069124D01*
X91605979Y-76092714D01*
X91605981Y-76092717D01*
X91724849Y-76211585D01*
X91724855Y-76211590D01*
X91813181Y-76299916D01*
X91846666Y-76361239D01*
X91849500Y-76387597D01*
X91849500Y-77000001D01*
X91849501Y-77000019D01*
X91860000Y-77102796D01*
X91860001Y-77102799D01*
X91915185Y-77269331D01*
X91915187Y-77269336D01*
X91946202Y-77319620D01*
X91993113Y-77395675D01*
X92007289Y-77418657D01*
X92131344Y-77542712D01*
X92206840Y-77589278D01*
X92253565Y-77641226D01*
X92264788Y-77710188D01*
X92236944Y-77774271D01*
X92229425Y-77782498D01*
X90599744Y-79412181D01*
X90538421Y-79445666D01*
X90512063Y-79448500D01*
X84236669Y-79448500D01*
X84236653Y-79448499D01*
X84229057Y-79448499D01*
X84070943Y-79448499D01*
X83963587Y-79477265D01*
X83918210Y-79489424D01*
X83918209Y-79489425D01*
X83868096Y-79518359D01*
X83868095Y-79518360D01*
X83824689Y-79543420D01*
X83781285Y-79568479D01*
X83781282Y-79568481D01*
X82763696Y-80586067D01*
X82763687Y-80586076D01*
X82761286Y-80588478D01*
X82761284Y-80588480D01*
X82649480Y-80700284D01*
X82634294Y-80726588D01*
X82627862Y-80737726D01*
X82627861Y-80737729D01*
X82583706Y-80814208D01*
X82570423Y-80837215D01*
X82529499Y-80989943D01*
X82529499Y-80989945D01*
X82529499Y-81002648D01*
X82528852Y-81004850D01*
X82529420Y-81007075D01*
X82519053Y-81038220D01*
X82509814Y-81069687D01*
X82508080Y-81071189D01*
X82507355Y-81073369D01*
X82481791Y-81093968D01*
X82457010Y-81115442D01*
X82454180Y-81116218D01*
X82452951Y-81117209D01*
X82418753Y-81125938D01*
X82393256Y-81128679D01*
X82366748Y-81128679D01*
X82327874Y-81124500D01*
X81932130Y-81124500D01*
X81932119Y-81124501D01*
X81893253Y-81128679D01*
X81866748Y-81128679D01*
X81827874Y-81124500D01*
X81432130Y-81124500D01*
X81432119Y-81124501D01*
X81393253Y-81128679D01*
X81366748Y-81128679D01*
X81327874Y-81124500D01*
X80632132Y-81124500D01*
X80632117Y-81124501D01*
X80590904Y-81128931D01*
X80564402Y-81128931D01*
X80527834Y-81125000D01*
X80430000Y-81125000D01*
X80429948Y-81125051D01*
X80410315Y-81191914D01*
X80380312Y-81224141D01*
X80322452Y-81267455D01*
X80236206Y-81382664D01*
X80236202Y-81382671D01*
X80185908Y-81517517D01*
X80179501Y-81577116D01*
X80179500Y-81577135D01*
X80179500Y-82301000D01*
X80159815Y-82368039D01*
X80107011Y-82413794D01*
X80055500Y-82425000D01*
X79380000Y-82425000D01*
X79380000Y-82772844D01*
X79386401Y-82832372D01*
X79386403Y-82832379D01*
X79436645Y-82967086D01*
X79436649Y-82967093D01*
X79528125Y-83089288D01*
X79525331Y-83091378D01*
X79531913Y-83103432D01*
X79548484Y-83129020D01*
X79548500Y-83133809D01*
X79550795Y-83138011D01*
X79548620Y-83168410D01*
X79548727Y-83198889D01*
X79546081Y-83203916D01*
X79545811Y-83207703D01*
X79534177Y-83231045D01*
X79529423Y-83238498D01*
X79528211Y-83239711D01*
X79440606Y-83370821D01*
X79432399Y-83390634D01*
X79426548Y-83399809D01*
X79408091Y-83415914D01*
X79392720Y-83434989D01*
X79382232Y-83438479D01*
X79373904Y-83445747D01*
X79349668Y-83449317D01*
X79326426Y-83457054D01*
X79315716Y-83454320D01*
X79304781Y-83455932D01*
X79282462Y-83445833D01*
X79258726Y-83439775D01*
X79251193Y-83431684D01*
X79241124Y-83427128D01*
X79227808Y-83406566D01*
X79211116Y-83388637D01*
X79208196Y-83376282D01*
X79203145Y-83368482D01*
X79203097Y-83354702D01*
X79198000Y-83333133D01*
X79198000Y-83211821D01*
X79162592Y-82988266D01*
X79130139Y-82888388D01*
X79092647Y-82772999D01*
X79092645Y-82772996D01*
X79092645Y-82772994D01*
X79017484Y-82625484D01*
X78989888Y-82571324D01*
X78856845Y-82388206D01*
X78696794Y-82228155D01*
X78513676Y-82095112D01*
X78423177Y-82049000D01*
X78312005Y-81992354D01*
X78096733Y-81922407D01*
X77873178Y-81887000D01*
X77873173Y-81887000D01*
X77646827Y-81887000D01*
X77646822Y-81887000D01*
X77423266Y-81922407D01*
X77207994Y-81992354D01*
X77006323Y-82095112D01*
X76823203Y-82228157D01*
X76663157Y-82388203D01*
X76530112Y-82571323D01*
X76427354Y-82772994D01*
X76357407Y-82988266D01*
X76322000Y-83211821D01*
X76322000Y-83438178D01*
X76357407Y-83661733D01*
X76406292Y-83812181D01*
X76408287Y-83882023D01*
X76372207Y-83941856D01*
X76309506Y-83972684D01*
X76288361Y-83974500D01*
X74811999Y-83974500D01*
X74744960Y-83954815D01*
X74699205Y-83902011D01*
X74687999Y-83850500D01*
X74687999Y-83724998D01*
X74687998Y-83724981D01*
X74677499Y-83622203D01*
X74677498Y-83622200D01*
X74660583Y-83571155D01*
X74622314Y-83455666D01*
X74530212Y-83306344D01*
X74406156Y-83182288D01*
X74285218Y-83107693D01*
X74256836Y-83090187D01*
X74256831Y-83090185D01*
X74254124Y-83089288D01*
X74090297Y-83035001D01*
X74090295Y-83035000D01*
X73987510Y-83024500D01*
X73362498Y-83024500D01*
X73362480Y-83024501D01*
X73259703Y-83035000D01*
X73259700Y-83035001D01*
X73093168Y-83090185D01*
X73093163Y-83090187D01*
X72943845Y-83182287D01*
X72849827Y-83276305D01*
X72788503Y-83309789D01*
X72718812Y-83304805D01*
X72674465Y-83276304D01*
X72580845Y-83182684D01*
X72431624Y-83090643D01*
X72431619Y-83090641D01*
X72265197Y-83035494D01*
X72265190Y-83035493D01*
X72162486Y-83025000D01*
X72100000Y-83025000D01*
X72100000Y-85424999D01*
X72162472Y-85424999D01*
X72162486Y-85424998D01*
X72265197Y-85414505D01*
X72431619Y-85359358D01*
X72431624Y-85359356D01*
X72580842Y-85267317D01*
X72674464Y-85173695D01*
X72735787Y-85140210D01*
X72805479Y-85145194D01*
X72849827Y-85173695D01*
X72943844Y-85267712D01*
X73093166Y-85359814D01*
X73259703Y-85414999D01*
X73362491Y-85425500D01*
X73987508Y-85425499D01*
X73987516Y-85425498D01*
X73987519Y-85425498D01*
X74043802Y-85419748D01*
X74090297Y-85414999D01*
X74222503Y-85371189D01*
X74292330Y-85368788D01*
X74352372Y-85404519D01*
X74383565Y-85467040D01*
X74376005Y-85536499D01*
X74349187Y-85576577D01*
X74087583Y-85838181D01*
X74026260Y-85871666D01*
X73999902Y-85874500D01*
X73387498Y-85874500D01*
X73387480Y-85874501D01*
X73284703Y-85885000D01*
X73284700Y-85885001D01*
X73118168Y-85940185D01*
X73118163Y-85940187D01*
X72968845Y-86032287D01*
X72874827Y-86126305D01*
X72813503Y-86159789D01*
X72743812Y-86154805D01*
X72699465Y-86126304D01*
X72605845Y-86032684D01*
X72456624Y-85940643D01*
X72456619Y-85940641D01*
X72290197Y-85885494D01*
X72290190Y-85885493D01*
X72187486Y-85875000D01*
X72125000Y-85875000D01*
X72125000Y-86951000D01*
X72105315Y-87018039D01*
X72052511Y-87063794D01*
X72001000Y-87075000D01*
X71875000Y-87075000D01*
X71875000Y-87201000D01*
X71855315Y-87268039D01*
X71802511Y-87313794D01*
X71751000Y-87325000D01*
X70862501Y-87325000D01*
X70862501Y-87574986D01*
X70872994Y-87677697D01*
X70928141Y-87844119D01*
X70928143Y-87844124D01*
X71020184Y-87993345D01*
X71064658Y-88037819D01*
X71098143Y-88099142D01*
X71093159Y-88168834D01*
X71051287Y-88224767D01*
X70985823Y-88249184D01*
X70976977Y-88249500D01*
X63641519Y-88249500D01*
X63574480Y-88229815D01*
X63553838Y-88213181D01*
X62886819Y-87546162D01*
X62872115Y-87519234D01*
X62855523Y-87493416D01*
X62854631Y-87487215D01*
X62853334Y-87484839D01*
X62850500Y-87458481D01*
X62850500Y-87251518D01*
X62870185Y-87184479D01*
X62886814Y-87163842D01*
X63939338Y-86111318D01*
X64000660Y-86077834D01*
X64027018Y-86075000D01*
X64841988Y-86075000D01*
X64809075Y-86132007D01*
X64775000Y-86259174D01*
X64775000Y-86390826D01*
X64809075Y-86517993D01*
X64841988Y-86575000D01*
X63947769Y-86575000D01*
X63958242Y-86641126D01*
X63958242Y-86641129D01*
X64023904Y-86843217D01*
X64120379Y-87032557D01*
X64245272Y-87204459D01*
X64245276Y-87204464D01*
X64395535Y-87354723D01*
X64395540Y-87354727D01*
X64567442Y-87479620D01*
X64756782Y-87576095D01*
X64958871Y-87641757D01*
X65025000Y-87652231D01*
X65025000Y-86758012D01*
X65082007Y-86790925D01*
X65209174Y-86825000D01*
X65340826Y-86825000D01*
X65467993Y-86790925D01*
X65525000Y-86758012D01*
X65525000Y-87652230D01*
X65591126Y-87641757D01*
X65591129Y-87641757D01*
X65793217Y-87576095D01*
X65982557Y-87479620D01*
X66154458Y-87354728D01*
X66268133Y-87241053D01*
X66329456Y-87207568D01*
X66399148Y-87212552D01*
X66455082Y-87254423D01*
X66471997Y-87285401D01*
X66521202Y-87417328D01*
X66521206Y-87417335D01*
X66607452Y-87532544D01*
X66607455Y-87532547D01*
X66722664Y-87618793D01*
X66722671Y-87618797D01*
X66857517Y-87669091D01*
X66857516Y-87669091D01*
X66864444Y-87669835D01*
X66917127Y-87675500D01*
X68712872Y-87675499D01*
X68772483Y-87669091D01*
X68907331Y-87618796D01*
X69022546Y-87532546D01*
X69108796Y-87417331D01*
X69159091Y-87282483D01*
X69165500Y-87222873D01*
X69165499Y-86575013D01*
X70862500Y-86575013D01*
X70862500Y-86825000D01*
X71625000Y-86825000D01*
X71625000Y-85875000D01*
X71624999Y-85874999D01*
X71562528Y-85875000D01*
X71562511Y-85875001D01*
X71459802Y-85885494D01*
X71293380Y-85940641D01*
X71293375Y-85940643D01*
X71144154Y-86032684D01*
X71020184Y-86156654D01*
X70928143Y-86305875D01*
X70928141Y-86305880D01*
X70872994Y-86472302D01*
X70872993Y-86472309D01*
X70862500Y-86575013D01*
X69165499Y-86575013D01*
X69165499Y-86517993D01*
X69165499Y-85875096D01*
X69185183Y-85808057D01*
X69201813Y-85787420D01*
X70625823Y-84363410D01*
X70687142Y-84329928D01*
X70756834Y-84334912D01*
X70812767Y-84376784D01*
X70837184Y-84442248D01*
X70837500Y-84451094D01*
X70837500Y-84724970D01*
X70837501Y-84724987D01*
X70847994Y-84827697D01*
X70903141Y-84994119D01*
X70903143Y-84994124D01*
X70995184Y-85143345D01*
X71119154Y-85267315D01*
X71268375Y-85359356D01*
X71268380Y-85359358D01*
X71434802Y-85414505D01*
X71434809Y-85414506D01*
X71537519Y-85424999D01*
X71599999Y-85424998D01*
X71600000Y-85424998D01*
X71600000Y-83025000D01*
X71599999Y-83024999D01*
X71574502Y-83025000D01*
X71507462Y-83005316D01*
X71461706Y-82952513D01*
X71450500Y-82901000D01*
X71450500Y-81577155D01*
X79380000Y-81577155D01*
X79380000Y-81925000D01*
X79930000Y-81925000D01*
X79930000Y-81125000D01*
X79832155Y-81125000D01*
X79772627Y-81131401D01*
X79772620Y-81131403D01*
X79637913Y-81181645D01*
X79637906Y-81181649D01*
X79522812Y-81267809D01*
X79522809Y-81267812D01*
X79436649Y-81382906D01*
X79436645Y-81382913D01*
X79386403Y-81517620D01*
X79386401Y-81517627D01*
X79380000Y-81577155D01*
X71450500Y-81577155D01*
X71450500Y-80149500D01*
X71470185Y-80082461D01*
X71522989Y-80036706D01*
X71574500Y-80025500D01*
X80238331Y-80025500D01*
X80238347Y-80025501D01*
X80245943Y-80025501D01*
X80404054Y-80025501D01*
X80404057Y-80025501D01*
X80556785Y-79984577D01*
X80606904Y-79955639D01*
X80693716Y-79905520D01*
X80805520Y-79793716D01*
X80805520Y-79793714D01*
X80815728Y-79783507D01*
X80815729Y-79783504D01*
X83730520Y-76868716D01*
X83809577Y-76731784D01*
X83846924Y-76592404D01*
X83883290Y-76532744D01*
X83946137Y-76502216D01*
X83966699Y-76500499D01*
X84397872Y-76500499D01*
X84397885Y-76500498D01*
X84436744Y-76496320D01*
X84463252Y-76496320D01*
X84502127Y-76500500D01*
X85197872Y-76500499D01*
X85197873Y-76500498D01*
X85197885Y-76500498D01*
X85236744Y-76496320D01*
X85263252Y-76496320D01*
X85302127Y-76500500D01*
X85997872Y-76500499D01*
X86006711Y-76499548D01*
X86039094Y-76496068D01*
X86065606Y-76496068D01*
X86102166Y-76499999D01*
X86102182Y-76500000D01*
X86200000Y-76500000D01*
X86200051Y-76499948D01*
X86219685Y-76433084D01*
X86236334Y-76412427D01*
X86242594Y-76406168D01*
X86307546Y-76357546D01*
X86356053Y-76292748D01*
X86362334Y-76286470D01*
X86385520Y-76273814D01*
X86406667Y-76257984D01*
X86415707Y-76257337D01*
X86423663Y-76252995D01*
X86450010Y-76254884D01*
X86476358Y-76253000D01*
X86484313Y-76257343D01*
X86493353Y-76257992D01*
X86514496Y-76273825D01*
X86537681Y-76286485D01*
X86549267Y-76299856D01*
X86592449Y-76357541D01*
X86592455Y-76357547D01*
X86597387Y-76361239D01*
X86650311Y-76400858D01*
X86692182Y-76456789D01*
X86699972Y-76499972D01*
X86700000Y-76500000D01*
X86797819Y-76500000D01*
X86797833Y-76499999D01*
X86834395Y-76496068D01*
X86860905Y-76496068D01*
X86902127Y-76500500D01*
X87597872Y-76500499D01*
X87657483Y-76494091D01*
X87792331Y-76443796D01*
X87907546Y-76357546D01*
X87993796Y-76242331D01*
X88044091Y-76107483D01*
X88050500Y-76047873D01*
X88050499Y-74452128D01*
X88048682Y-74435225D01*
X88061088Y-74366467D01*
X88108699Y-74315330D01*
X88176399Y-74298051D01*
X88185225Y-74298682D01*
X88202127Y-74300500D01*
X89797872Y-74300499D01*
X89857483Y-74294091D01*
X89992331Y-74243796D01*
X90107546Y-74157546D01*
X90193796Y-74042331D01*
X90244091Y-73907483D01*
X90250500Y-73847873D01*
X90250499Y-73349095D01*
X90270183Y-73282057D01*
X90322987Y-73236302D01*
X90392146Y-73226358D01*
X90455702Y-73255383D01*
G37*
%TD.AperFunction*%
%TA.AperFunction,Conductor*%
G36*
X74250520Y-73570185D02*
G01*
X74271162Y-73586819D01*
X74588181Y-73903838D01*
X74602884Y-73930765D01*
X74619477Y-73956584D01*
X74620368Y-73962784D01*
X74621666Y-73965161D01*
X74624500Y-73991519D01*
X74624500Y-74137769D01*
X74604815Y-74204808D01*
X74588182Y-74225450D01*
X74482283Y-74331349D01*
X74480241Y-74334661D01*
X74478247Y-74336453D01*
X74477807Y-74337011D01*
X74477711Y-74336935D01*
X74428291Y-74381383D01*
X74359328Y-74392602D01*
X74295247Y-74364755D01*
X74269168Y-74334656D01*
X74267319Y-74331659D01*
X74267316Y-74331655D01*
X74143345Y-74207684D01*
X73994124Y-74115643D01*
X73994119Y-74115641D01*
X73827697Y-74060494D01*
X73827690Y-74060493D01*
X73724986Y-74050000D01*
X73675000Y-74050000D01*
X73675000Y-75151000D01*
X73655315Y-75218039D01*
X73602511Y-75263794D01*
X73551000Y-75275000D01*
X73425000Y-75275000D01*
X73425000Y-75401000D01*
X73405315Y-75468039D01*
X73352511Y-75513794D01*
X73301000Y-75525000D01*
X72425001Y-75525000D01*
X72425001Y-75799986D01*
X72435494Y-75902697D01*
X72490641Y-76069119D01*
X72490643Y-76069124D01*
X72586475Y-76224491D01*
X72583951Y-76226047D01*
X72605065Y-76278396D01*
X72592018Y-76347037D01*
X72543932Y-76397728D01*
X72481657Y-76414500D01*
X69288002Y-76414500D01*
X69220963Y-76394815D01*
X69175208Y-76342011D01*
X69165743Y-76276187D01*
X69165118Y-76276138D01*
X69165336Y-76273359D01*
X69165264Y-76272853D01*
X69165499Y-76271293D01*
X69165500Y-76271287D01*
X69165500Y-76058713D01*
X69163782Y-76047864D01*
X69132246Y-75848757D01*
X69066557Y-75646588D01*
X68970051Y-75457184D01*
X68970049Y-75457181D01*
X68970048Y-75457179D01*
X68845109Y-75285213D01*
X68694786Y-75134890D01*
X68522820Y-75009951D01*
X68333414Y-74913444D01*
X68333413Y-74913443D01*
X68333412Y-74913443D01*
X68131243Y-74847754D01*
X67921287Y-74814500D01*
X67708713Y-74814500D01*
X67695966Y-74816519D01*
X67498760Y-74847753D01*
X67296585Y-74913444D01*
X67107179Y-75009951D01*
X66935213Y-75134890D01*
X66784890Y-75285213D01*
X66659949Y-75457182D01*
X66655202Y-75466499D01*
X66607227Y-75517293D01*
X66539405Y-75534087D01*
X66473271Y-75511548D01*
X66434234Y-75466495D01*
X66429622Y-75457444D01*
X66304727Y-75285540D01*
X66304723Y-75285535D01*
X66154464Y-75135276D01*
X66154459Y-75135272D01*
X65982557Y-75010379D01*
X65793215Y-74913903D01*
X65591124Y-74848241D01*
X65525000Y-74837768D01*
X65525000Y-75731988D01*
X65467993Y-75699075D01*
X65340826Y-75665000D01*
X65209174Y-75665000D01*
X65082007Y-75699075D01*
X65025000Y-75731988D01*
X65025000Y-74837768D01*
X65024999Y-74837768D01*
X64958875Y-74848241D01*
X64756784Y-74913903D01*
X64567442Y-75010379D01*
X64395540Y-75135272D01*
X64395535Y-75135276D01*
X64245276Y-75285535D01*
X64245272Y-75285540D01*
X64120379Y-75457442D01*
X64023904Y-75646782D01*
X63958242Y-75848870D01*
X63958242Y-75848873D01*
X63947769Y-75915000D01*
X64841988Y-75915000D01*
X64809075Y-75972007D01*
X64775000Y-76099174D01*
X64775000Y-76230826D01*
X64809075Y-76357993D01*
X64841988Y-76415000D01*
X63947769Y-76415000D01*
X63958242Y-76481126D01*
X63958242Y-76481129D01*
X64023904Y-76683217D01*
X64120379Y-76872557D01*
X64245272Y-77044459D01*
X64245276Y-77044464D01*
X64395535Y-77194723D01*
X64395540Y-77194727D01*
X64567444Y-77319622D01*
X64576495Y-77324234D01*
X64627292Y-77372208D01*
X64644087Y-77440029D01*
X64621550Y-77506164D01*
X64576499Y-77545202D01*
X64567182Y-77549949D01*
X64395213Y-77674890D01*
X64244890Y-77825213D01*
X64119951Y-77997179D01*
X64023444Y-78186585D01*
X63957753Y-78388760D01*
X63924500Y-78598713D01*
X63924500Y-78811286D01*
X63956136Y-79011032D01*
X63957754Y-79021243D01*
X63994144Y-79133240D01*
X64023444Y-79223414D01*
X64119951Y-79412820D01*
X64244890Y-79584786D01*
X64395213Y-79735109D01*
X64567182Y-79860050D01*
X64575946Y-79864516D01*
X64626742Y-79912491D01*
X64643536Y-79980312D01*
X64620998Y-80046447D01*
X64575946Y-80085484D01*
X64567182Y-80089949D01*
X64395213Y-80214890D01*
X64244890Y-80365213D01*
X64119951Y-80537179D01*
X64023444Y-80726585D01*
X63957753Y-80928760D01*
X63934554Y-81075233D01*
X63924500Y-81138713D01*
X63924500Y-81351287D01*
X63929471Y-81382671D01*
X63950844Y-81517620D01*
X63957754Y-81561243D01*
X63962915Y-81577128D01*
X64023444Y-81763414D01*
X64119951Y-81952820D01*
X64244890Y-82124786D01*
X64395213Y-82275109D01*
X64567182Y-82400050D01*
X64575946Y-82404516D01*
X64626742Y-82452491D01*
X64643536Y-82520312D01*
X64620998Y-82586447D01*
X64575946Y-82625484D01*
X64567182Y-82629949D01*
X64395213Y-82754890D01*
X64244890Y-82905213D01*
X64119951Y-83077179D01*
X64023444Y-83266585D01*
X64023443Y-83266587D01*
X64023443Y-83266588D01*
X64010526Y-83306342D01*
X63957753Y-83468760D01*
X63924500Y-83678713D01*
X63924500Y-83891287D01*
X63924499Y-83891287D01*
X63949284Y-84047771D01*
X63940329Y-84117064D01*
X63914492Y-84154849D01*
X63062181Y-85007161D01*
X63000858Y-85040646D01*
X62931167Y-85035662D01*
X62875233Y-84993790D01*
X62850816Y-84928326D01*
X62850500Y-84919480D01*
X62850500Y-74816519D01*
X62870028Y-74750013D01*
X72425000Y-74750013D01*
X72425000Y-75025000D01*
X73175000Y-75025000D01*
X73175000Y-74050000D01*
X73174999Y-74049999D01*
X73125029Y-74050000D01*
X73125011Y-74050001D01*
X73022302Y-74060494D01*
X72855880Y-74115641D01*
X72855875Y-74115643D01*
X72706654Y-74207684D01*
X72582684Y-74331654D01*
X72490643Y-74480875D01*
X72490641Y-74480880D01*
X72435494Y-74647302D01*
X72435493Y-74647309D01*
X72425000Y-74750013D01*
X62870028Y-74750013D01*
X62870185Y-74749480D01*
X62886819Y-74728838D01*
X64028838Y-73586819D01*
X64090161Y-73553334D01*
X64116519Y-73550500D01*
X74183481Y-73550500D01*
X74250520Y-73570185D01*
G37*
%TD.AperFunction*%
%TA.AperFunction,Conductor*%
G36*
X111491885Y-75245128D02*
G01*
X111512527Y-75261762D01*
X112714084Y-76463319D01*
X112747569Y-76524642D01*
X112742585Y-76594334D01*
X112700713Y-76650267D01*
X112635249Y-76674684D01*
X112626403Y-76675000D01*
X112495721Y-76675000D01*
X112289727Y-76707626D01*
X112091372Y-76772075D01*
X111905552Y-76866757D01*
X111856180Y-76902627D01*
X112429766Y-77476212D01*
X112387708Y-77487482D01*
X112262292Y-77559890D01*
X112159890Y-77662292D01*
X112087482Y-77787708D01*
X112076212Y-77829765D01*
X111502627Y-77256180D01*
X111466755Y-77305555D01*
X111466754Y-77305556D01*
X111460764Y-77317313D01*
X111412788Y-77368108D01*
X111344967Y-77384901D01*
X111278832Y-77362361D01*
X111239795Y-77317308D01*
X111233670Y-77305286D01*
X111111035Y-77136495D01*
X110963505Y-76988965D01*
X110794714Y-76866330D01*
X110726935Y-76831795D01*
X110608820Y-76771612D01*
X110410389Y-76707137D01*
X110204324Y-76674500D01*
X110204319Y-76674500D01*
X109995681Y-76674500D01*
X109995676Y-76674500D01*
X109789610Y-76707137D01*
X109591179Y-76771612D01*
X109405285Y-76866330D01*
X109236493Y-76988966D01*
X109088966Y-77136493D01*
X108966330Y-77305285D01*
X108952823Y-77331795D01*
X108904848Y-77382591D01*
X108842338Y-77399500D01*
X108557997Y-77399500D01*
X108490958Y-77379815D01*
X108470316Y-77363181D01*
X106544259Y-75437124D01*
X106510774Y-75375801D01*
X106515758Y-75306109D01*
X106557630Y-75250176D01*
X106623094Y-75225759D01*
X106631940Y-75225443D01*
X111424846Y-75225443D01*
X111491885Y-75245128D01*
G37*
%TD.AperFunction*%
%TA.AperFunction,Conductor*%
G36*
X57768940Y-74869185D02*
G01*
X57814695Y-74921989D01*
X57824639Y-74991147D01*
X57795614Y-75054703D01*
X57789582Y-75061181D01*
X55987584Y-76863181D01*
X55926261Y-76896666D01*
X55899903Y-76899500D01*
X55257662Y-76899500D01*
X55190623Y-76879815D01*
X55147177Y-76831795D01*
X55133807Y-76805555D01*
X55133670Y-76805286D01*
X55011035Y-76636495D01*
X54863505Y-76488965D01*
X54694714Y-76366330D01*
X54677474Y-76357546D01*
X54508820Y-76271612D01*
X54310389Y-76207137D01*
X54104324Y-76174500D01*
X54104319Y-76174500D01*
X53895681Y-76174500D01*
X53895676Y-76174500D01*
X53689610Y-76207137D01*
X53491179Y-76271612D01*
X53305285Y-76366330D01*
X53136493Y-76488966D01*
X52988966Y-76636493D01*
X52866328Y-76805288D01*
X52860201Y-76817313D01*
X52812225Y-76868108D01*
X52744404Y-76884901D01*
X52678270Y-76862362D01*
X52639232Y-76817308D01*
X52633244Y-76805555D01*
X52633236Y-76805543D01*
X52597372Y-76756180D01*
X52597371Y-76756179D01*
X52023787Y-77329764D01*
X52012518Y-77287708D01*
X51940110Y-77162292D01*
X51837708Y-77059890D01*
X51712292Y-76987482D01*
X51670233Y-76976212D01*
X52243819Y-76402627D01*
X52194451Y-76366759D01*
X52008627Y-76272075D01*
X51810272Y-76207626D01*
X51604279Y-76175000D01*
X51473596Y-76175000D01*
X51406557Y-76155315D01*
X51360802Y-76102511D01*
X51350858Y-76033353D01*
X51379883Y-75969797D01*
X51385908Y-75963326D01*
X52463416Y-74885819D01*
X52524739Y-74852334D01*
X52551097Y-74849500D01*
X57701901Y-74849500D01*
X57768940Y-74869185D01*
G37*
%TD.AperFunction*%
%TA.AperFunction,Conductor*%
G36*
X85105725Y-73281738D02*
G01*
X85127814Y-73283318D01*
X85138597Y-73291390D01*
X85151519Y-73295185D01*
X85166018Y-73311918D01*
X85183747Y-73325190D01*
X85188454Y-73337810D01*
X85197274Y-73347989D01*
X85200425Y-73369906D01*
X85208164Y-73390654D01*
X85205301Y-73403814D01*
X85207218Y-73417147D01*
X85198018Y-73437290D01*
X85193312Y-73458927D01*
X85180043Y-73476652D01*
X85178193Y-73480703D01*
X85172161Y-73487181D01*
X85105888Y-73553453D01*
X85105887Y-73553454D01*
X85029223Y-73668192D01*
X84976421Y-73795668D01*
X84976418Y-73795680D01*
X84959590Y-73880282D01*
X84959589Y-73880286D01*
X84959589Y-73880290D01*
X84955727Y-73899699D01*
X84923338Y-73961608D01*
X84862620Y-73996178D01*
X84834111Y-73999500D01*
X84502131Y-73999500D01*
X84502119Y-73999501D01*
X84463253Y-74003679D01*
X84436748Y-74003679D01*
X84397874Y-73999500D01*
X83702130Y-73999500D01*
X83702119Y-73999501D01*
X83663253Y-74003679D01*
X83636748Y-74003679D01*
X83597874Y-73999500D01*
X82902130Y-73999500D01*
X82902119Y-73999501D01*
X82863253Y-74003679D01*
X82836748Y-74003679D01*
X82797874Y-73999500D01*
X82102130Y-73999500D01*
X82102119Y-73999501D01*
X82063253Y-74003679D01*
X82036748Y-74003679D01*
X81997874Y-73999500D01*
X81302130Y-73999500D01*
X81302119Y-73999501D01*
X81263253Y-74003679D01*
X81236748Y-74003679D01*
X81197875Y-73999500D01*
X81197873Y-73999500D01*
X80840517Y-73999500D01*
X80773478Y-73979815D01*
X80727723Y-73927011D01*
X80717779Y-73857853D01*
X80746804Y-73794297D01*
X80752836Y-73787819D01*
X80910009Y-73630647D01*
X81228837Y-73311819D01*
X81290160Y-73278334D01*
X81316518Y-73275500D01*
X85084480Y-73275500D01*
X85105725Y-73281738D01*
G37*
%TD.AperFunction*%
%TA.AperFunction,Conductor*%
G36*
X84992539Y-66245185D02*
G01*
X85038294Y-66297989D01*
X85049500Y-66349500D01*
X85049500Y-67138387D01*
X85049499Y-67138405D01*
X85049499Y-67304111D01*
X85049498Y-67304111D01*
X85049499Y-67304114D01*
X85090423Y-67456842D01*
X85093605Y-67462352D01*
X85097281Y-67468720D01*
X85169477Y-67593769D01*
X85169481Y-67593774D01*
X85288349Y-67712642D01*
X85288355Y-67712647D01*
X86376196Y-68800488D01*
X86409681Y-68861811D01*
X86404697Y-68931503D01*
X86391618Y-68957059D01*
X86315608Y-69070816D01*
X86315602Y-69070827D01*
X86255264Y-69216498D01*
X86255261Y-69216510D01*
X86224500Y-69371153D01*
X86224500Y-69528846D01*
X86255261Y-69683489D01*
X86255264Y-69683501D01*
X86315602Y-69829172D01*
X86315609Y-69829185D01*
X86403210Y-69960288D01*
X86403213Y-69960292D01*
X86514707Y-70071786D01*
X86514711Y-70071789D01*
X86645814Y-70159390D01*
X86645827Y-70159397D01*
X86791498Y-70219735D01*
X86791503Y-70219737D01*
X86912455Y-70243796D01*
X86946153Y-70250499D01*
X86946156Y-70250500D01*
X86946158Y-70250500D01*
X87103844Y-70250500D01*
X87103845Y-70250499D01*
X87258497Y-70219737D01*
X87404179Y-70159394D01*
X87461044Y-70121397D01*
X87527721Y-70100520D01*
X87529935Y-70100500D01*
X87787680Y-70100500D01*
X87854719Y-70120185D01*
X87868341Y-70130321D01*
X87878741Y-70139228D01*
X87892454Y-70157546D01*
X87953391Y-70203164D01*
X87956494Y-70205821D01*
X87973419Y-70231826D01*
X87992015Y-70256668D01*
X87992314Y-70260857D01*
X87994607Y-70264380D01*
X87994785Y-70295408D01*
X87996999Y-70326360D01*
X87994984Y-70330048D01*
X87995009Y-70334249D01*
X87978389Y-70360440D01*
X87963513Y-70387683D01*
X87958157Y-70392323D01*
X87957574Y-70393243D01*
X87956546Y-70393719D01*
X87950145Y-70399266D01*
X87892462Y-70442448D01*
X87892454Y-70442454D01*
X87849141Y-70500312D01*
X87793209Y-70542182D01*
X87750027Y-70549972D01*
X87750000Y-70550000D01*
X87750000Y-70647832D01*
X87753931Y-70684399D01*
X87753931Y-70710905D01*
X87749500Y-70752122D01*
X87749500Y-71447869D01*
X87749501Y-71447878D01*
X87753679Y-71486745D01*
X87753679Y-71513250D01*
X87749500Y-71552122D01*
X87749500Y-71830945D01*
X87729815Y-71897984D01*
X87677011Y-71943739D01*
X87607853Y-71953683D01*
X87556609Y-71934047D01*
X87454185Y-71865609D01*
X87454172Y-71865602D01*
X87308501Y-71805264D01*
X87308489Y-71805261D01*
X87153845Y-71774500D01*
X87153842Y-71774500D01*
X86996158Y-71774500D01*
X86996155Y-71774500D01*
X86841510Y-71805261D01*
X86841498Y-71805264D01*
X86697136Y-71865061D01*
X86649684Y-71874500D01*
X81316519Y-71874500D01*
X81249480Y-71854815D01*
X81228838Y-71838181D01*
X80436819Y-71046162D01*
X80403334Y-70984839D01*
X80400500Y-70958481D01*
X80400500Y-66725316D01*
X80409939Y-66677864D01*
X80469735Y-66533501D01*
X80469737Y-66533497D01*
X80500500Y-66378842D01*
X80500638Y-66378150D01*
X80509402Y-66361394D01*
X80513423Y-66342913D01*
X80532166Y-66317875D01*
X80533023Y-66316239D01*
X80534519Y-66314715D01*
X80587417Y-66261818D01*
X80648740Y-66228334D01*
X80675097Y-66225500D01*
X84925500Y-66225500D01*
X84992539Y-66245185D01*
G37*
%TD.AperFunction*%
%TA.AperFunction,Conductor*%
G36*
X121442539Y-54020185D02*
G01*
X121488294Y-54072989D01*
X121499500Y-54124500D01*
X121499500Y-69585355D01*
X121479815Y-69652394D01*
X121427011Y-69698149D01*
X121357853Y-69708093D01*
X121294297Y-69679068D01*
X121258459Y-69626310D01*
X121150960Y-69319100D01*
X121150951Y-69319078D01*
X121000816Y-69007319D01*
X120923083Y-68883607D01*
X120816703Y-68714304D01*
X120600944Y-68443751D01*
X120356249Y-68199056D01*
X120324378Y-68173640D01*
X120217358Y-68088294D01*
X120085696Y-67983297D01*
X119792686Y-67799187D01*
X119792687Y-67799187D01*
X119792680Y-67799183D01*
X119480921Y-67649048D01*
X119480899Y-67649039D01*
X119154285Y-67534751D01*
X119154273Y-67534747D01*
X118816903Y-67457745D01*
X118816885Y-67457742D01*
X118473031Y-67419000D01*
X118473025Y-67419000D01*
X118126975Y-67419000D01*
X118126968Y-67419000D01*
X117783114Y-67457742D01*
X117783096Y-67457745D01*
X117445726Y-67534747D01*
X117445714Y-67534751D01*
X117119100Y-67649039D01*
X117119078Y-67649048D01*
X116807319Y-67799183D01*
X116514305Y-67983296D01*
X116243751Y-68199055D01*
X115999055Y-68443751D01*
X115783296Y-68714305D01*
X115599183Y-69007319D01*
X115449048Y-69319078D01*
X115449039Y-69319100D01*
X115334751Y-69645714D01*
X115334747Y-69645726D01*
X115257745Y-69983096D01*
X115257742Y-69983114D01*
X115219000Y-70326968D01*
X115219000Y-70673031D01*
X115257742Y-71016885D01*
X115257745Y-71016903D01*
X115334747Y-71354273D01*
X115334751Y-71354285D01*
X115449039Y-71680899D01*
X115449048Y-71680921D01*
X115599183Y-71992680D01*
X115686184Y-72131141D01*
X115783297Y-72285696D01*
X115836270Y-72352122D01*
X115992989Y-72548642D01*
X115999056Y-72556249D01*
X116243751Y-72800944D01*
X116514304Y-73016703D01*
X116733531Y-73154452D01*
X116807319Y-73200816D01*
X117119078Y-73350951D01*
X117119087Y-73350954D01*
X117119094Y-73350958D01*
X117119100Y-73350960D01*
X117445714Y-73465248D01*
X117445726Y-73465252D01*
X117783100Y-73542255D01*
X117783106Y-73542255D01*
X117783114Y-73542257D01*
X118012350Y-73568085D01*
X118126969Y-73580999D01*
X118126972Y-73581000D01*
X118126975Y-73581000D01*
X118473028Y-73581000D01*
X118473029Y-73580999D01*
X118651109Y-73560935D01*
X118816885Y-73542257D01*
X118816890Y-73542256D01*
X118816900Y-73542255D01*
X119154274Y-73465252D01*
X119480906Y-73350958D01*
X119484773Y-73349096D01*
X119792680Y-73200816D01*
X119792680Y-73200815D01*
X119792686Y-73200813D01*
X120085696Y-73016703D01*
X120356249Y-72800944D01*
X120600944Y-72556249D01*
X120816703Y-72285696D01*
X121000813Y-71992686D01*
X121062010Y-71865609D01*
X121150951Y-71680921D01*
X121150952Y-71680917D01*
X121150958Y-71680906D01*
X121214260Y-71500000D01*
X121258459Y-71373689D01*
X121299180Y-71316913D01*
X121364133Y-71291166D01*
X121432695Y-71304622D01*
X121483098Y-71353010D01*
X121499500Y-71414644D01*
X121499500Y-89875500D01*
X121479815Y-89942539D01*
X121427011Y-89988294D01*
X121375500Y-89999500D01*
X42624500Y-89999500D01*
X42557461Y-89979815D01*
X42511706Y-89927011D01*
X42500500Y-89875500D01*
X42500500Y-86378711D01*
X44149500Y-86378711D01*
X44149500Y-86621288D01*
X44181161Y-86861785D01*
X44243947Y-87096104D01*
X44336773Y-87320205D01*
X44336776Y-87320212D01*
X44458064Y-87530289D01*
X44458066Y-87530292D01*
X44458067Y-87530293D01*
X44605733Y-87722736D01*
X44605739Y-87722743D01*
X44777256Y-87894260D01*
X44777262Y-87894265D01*
X44969711Y-88041936D01*
X45179788Y-88163224D01*
X45403900Y-88256054D01*
X45638211Y-88318838D01*
X45818586Y-88342584D01*
X45878711Y-88350500D01*
X45878712Y-88350500D01*
X46121289Y-88350500D01*
X46169388Y-88344167D01*
X46361789Y-88318838D01*
X46596100Y-88256054D01*
X46820212Y-88163224D01*
X47030289Y-88041936D01*
X47222738Y-87894265D01*
X47394265Y-87722738D01*
X47541936Y-87530289D01*
X47663224Y-87320212D01*
X47756054Y-87096100D01*
X47818838Y-86861789D01*
X47850500Y-86621288D01*
X47850500Y-86378712D01*
X47849336Y-86369874D01*
X47825848Y-86191459D01*
X47818838Y-86138211D01*
X47756054Y-85903900D01*
X47663224Y-85679788D01*
X47541936Y-85469711D01*
X47394265Y-85277262D01*
X47394260Y-85277256D01*
X47222743Y-85105739D01*
X47222736Y-85105733D01*
X47030293Y-84958067D01*
X47030292Y-84958066D01*
X47030289Y-84958064D01*
X46820212Y-84836776D01*
X46798535Y-84827797D01*
X46596104Y-84743947D01*
X46361785Y-84681161D01*
X46121289Y-84649500D01*
X46121288Y-84649500D01*
X45878712Y-84649500D01*
X45878711Y-84649500D01*
X45638214Y-84681161D01*
X45403895Y-84743947D01*
X45179794Y-84836773D01*
X45179785Y-84836777D01*
X44969706Y-84958067D01*
X44777263Y-85105733D01*
X44777256Y-85105739D01*
X44605739Y-85277256D01*
X44605733Y-85277263D01*
X44458067Y-85469706D01*
X44336777Y-85679785D01*
X44336773Y-85679794D01*
X44243947Y-85903895D01*
X44181161Y-86138214D01*
X44149500Y-86378711D01*
X42500500Y-86378711D01*
X42500500Y-70441812D01*
X42520185Y-70374773D01*
X42572989Y-70329018D01*
X42642147Y-70319074D01*
X42705703Y-70348099D01*
X42743477Y-70406877D01*
X42747720Y-70427929D01*
X42757742Y-70516885D01*
X42757745Y-70516903D01*
X42834747Y-70854273D01*
X42834751Y-70854285D01*
X42949039Y-71180899D01*
X42949048Y-71180921D01*
X43099183Y-71492680D01*
X43112108Y-71513250D01*
X43283297Y-71785696D01*
X43499056Y-72056249D01*
X43743751Y-72300944D01*
X44014304Y-72516703D01*
X44307314Y-72700813D01*
X44307319Y-72700816D01*
X44619078Y-72850951D01*
X44619087Y-72850954D01*
X44619094Y-72850958D01*
X44619100Y-72850960D01*
X44945714Y-72965248D01*
X44945726Y-72965252D01*
X45283100Y-73042255D01*
X45283106Y-73042255D01*
X45283114Y-73042257D01*
X45512350Y-73068085D01*
X45626969Y-73080999D01*
X45626972Y-73081000D01*
X45626975Y-73081000D01*
X45973028Y-73081000D01*
X45973029Y-73080999D01*
X46148767Y-73061198D01*
X46316885Y-73042257D01*
X46316890Y-73042256D01*
X46316900Y-73042255D01*
X46654274Y-72965252D01*
X46980906Y-72850958D01*
X47084762Y-72800944D01*
X47292680Y-72700816D01*
X47292680Y-72700815D01*
X47292686Y-72700813D01*
X47585696Y-72516703D01*
X47856249Y-72300944D01*
X48100944Y-72056249D01*
X48316703Y-71785696D01*
X48500813Y-71492686D01*
X48503674Y-71486745D01*
X48650951Y-71180921D01*
X48650952Y-71180917D01*
X48650958Y-71180906D01*
X48765252Y-70854274D01*
X48842255Y-70516900D01*
X48854652Y-70406877D01*
X48863654Y-70326975D01*
X48881000Y-70173025D01*
X48881000Y-69826975D01*
X48863994Y-69676040D01*
X48842257Y-69483114D01*
X48842254Y-69483096D01*
X48765252Y-69145726D01*
X48765248Y-69145714D01*
X48650960Y-68819100D01*
X48650951Y-68819078D01*
X48500816Y-68507319D01*
X48403303Y-68352128D01*
X48316703Y-68214304D01*
X48100944Y-67943751D01*
X47856249Y-67699056D01*
X47793533Y-67649042D01*
X47787538Y-67644261D01*
X47585696Y-67483297D01*
X47431141Y-67386184D01*
X47292680Y-67299183D01*
X46980921Y-67149048D01*
X46980899Y-67149039D01*
X46654285Y-67034751D01*
X46654273Y-67034747D01*
X46316903Y-66957745D01*
X46316885Y-66957742D01*
X45973031Y-66919000D01*
X45973025Y-66919000D01*
X45626975Y-66919000D01*
X45626968Y-66919000D01*
X45283114Y-66957742D01*
X45283096Y-66957745D01*
X44945726Y-67034747D01*
X44945714Y-67034751D01*
X44619100Y-67149039D01*
X44619078Y-67149048D01*
X44307319Y-67299183D01*
X44014305Y-67483296D01*
X43743751Y-67699055D01*
X43499055Y-67943751D01*
X43283296Y-68214305D01*
X43099183Y-68507319D01*
X42949048Y-68819078D01*
X42949039Y-68819100D01*
X42834751Y-69145714D01*
X42834747Y-69145726D01*
X42757745Y-69483096D01*
X42757742Y-69483114D01*
X42747720Y-69572070D01*
X42720654Y-69636484D01*
X42663059Y-69676040D01*
X42593222Y-69678177D01*
X42533315Y-69642219D01*
X42502360Y-69579581D01*
X42500500Y-69558187D01*
X42500500Y-62895675D01*
X47674500Y-62895675D01*
X47674500Y-63104324D01*
X47707137Y-63310389D01*
X47771612Y-63508820D01*
X47866330Y-63694714D01*
X47988965Y-63863505D01*
X48136495Y-64011035D01*
X48305286Y-64133670D01*
X48393116Y-64178421D01*
X48491179Y-64228387D01*
X48491181Y-64228387D01*
X48491184Y-64228389D01*
X48538673Y-64243819D01*
X48689610Y-64292862D01*
X48895676Y-64325500D01*
X48895681Y-64325500D01*
X49104324Y-64325500D01*
X49204222Y-64309677D01*
X49310389Y-64292862D01*
X49338682Y-64283668D01*
X49353895Y-64283233D01*
X49368156Y-64277915D01*
X49388109Y-64282255D01*
X49408522Y-64281672D01*
X49422609Y-64289760D01*
X49436429Y-64292767D01*
X49464683Y-64313918D01*
X49641139Y-64490374D01*
X49641149Y-64490385D01*
X49645479Y-64494715D01*
X49645480Y-64494716D01*
X49757284Y-64606520D01*
X49757286Y-64606521D01*
X49757290Y-64606524D01*
X49893530Y-64685181D01*
X49894216Y-64685577D01*
X50006019Y-64715534D01*
X50046942Y-64726500D01*
X50046943Y-64726500D01*
X70875903Y-64726500D01*
X70942942Y-64746185D01*
X70963584Y-64762819D01*
X75688583Y-69487819D01*
X75722068Y-69549142D01*
X75717084Y-69618834D01*
X75675212Y-69674767D01*
X75609748Y-69699184D01*
X75600902Y-69699500D01*
X61770940Y-69699500D01*
X61730019Y-69710464D01*
X61730019Y-69710465D01*
X61692751Y-69720451D01*
X61618214Y-69740423D01*
X61618209Y-69740426D01*
X61481290Y-69819475D01*
X61481282Y-69819481D01*
X61369478Y-69931286D01*
X60386424Y-70914339D01*
X60325101Y-70947824D01*
X60255409Y-70942840D01*
X60199476Y-70900968D01*
X60175059Y-70835504D01*
X60177851Y-70799071D01*
X60242255Y-70516900D01*
X60254652Y-70406877D01*
X60263654Y-70326975D01*
X60281000Y-70173025D01*
X60281000Y-69826975D01*
X60263994Y-69676040D01*
X60242257Y-69483114D01*
X60242254Y-69483096D01*
X60165252Y-69145726D01*
X60165248Y-69145714D01*
X60050960Y-68819100D01*
X60050951Y-68819078D01*
X59900816Y-68507319D01*
X59803303Y-68352128D01*
X59716703Y-68214304D01*
X59500944Y-67943751D01*
X59256249Y-67699056D01*
X59193533Y-67649042D01*
X59187538Y-67644261D01*
X58985696Y-67483297D01*
X58831141Y-67386184D01*
X58692680Y-67299183D01*
X58380921Y-67149048D01*
X58380899Y-67149039D01*
X58054285Y-67034751D01*
X58054273Y-67034747D01*
X57716903Y-66957745D01*
X57716885Y-66957742D01*
X57373031Y-66919000D01*
X57373025Y-66919000D01*
X57026975Y-66919000D01*
X57026968Y-66919000D01*
X56683114Y-66957742D01*
X56683096Y-66957745D01*
X56345726Y-67034747D01*
X56345714Y-67034751D01*
X56019100Y-67149039D01*
X56019078Y-67149048D01*
X55707319Y-67299183D01*
X55414305Y-67483296D01*
X55143751Y-67699055D01*
X54899055Y-67943751D01*
X54683296Y-68214305D01*
X54499183Y-68507319D01*
X54349048Y-68819078D01*
X54349039Y-68819100D01*
X54234751Y-69145714D01*
X54234747Y-69145726D01*
X54157745Y-69483096D01*
X54157742Y-69483114D01*
X54119000Y-69826968D01*
X54119000Y-70173031D01*
X54157742Y-70516885D01*
X54157745Y-70516903D01*
X54234747Y-70854273D01*
X54234751Y-70854285D01*
X54349039Y-71180899D01*
X54349048Y-71180921D01*
X54499183Y-71492680D01*
X54512108Y-71513250D01*
X54683297Y-71785696D01*
X54899056Y-72056249D01*
X55143751Y-72300944D01*
X55414304Y-72516703D01*
X55707314Y-72700813D01*
X55707319Y-72700816D01*
X56019078Y-72850951D01*
X56019087Y-72850954D01*
X56019094Y-72850958D01*
X56019100Y-72850960D01*
X56345714Y-72965248D01*
X56345726Y-72965252D01*
X56683100Y-73042255D01*
X56683106Y-73042255D01*
X56683114Y-73042257D01*
X56912350Y-73068085D01*
X57026969Y-73080999D01*
X57026972Y-73081000D01*
X57026975Y-73081000D01*
X57373028Y-73081000D01*
X57373029Y-73080999D01*
X57548767Y-73061198D01*
X57716885Y-73042257D01*
X57716888Y-73042256D01*
X57716900Y-73042255D01*
X57999068Y-72977852D01*
X58068804Y-72982125D01*
X58125162Y-73023424D01*
X58150245Y-73088636D01*
X58136091Y-73157057D01*
X58114339Y-73186424D01*
X57688584Y-73612181D01*
X57627261Y-73645666D01*
X57600903Y-73648500D01*
X52330057Y-73648500D01*
X52171942Y-73648500D01*
X52019215Y-73689423D01*
X52019214Y-73689423D01*
X52019212Y-73689424D01*
X52019209Y-73689425D01*
X51969096Y-73718359D01*
X51969095Y-73718360D01*
X51925689Y-73743420D01*
X51882285Y-73768479D01*
X51882282Y-73768481D01*
X51770478Y-73880286D01*
X49464682Y-76186081D01*
X49403359Y-76219566D01*
X49338683Y-76216331D01*
X49310390Y-76207138D01*
X49104324Y-76174500D01*
X49104319Y-76174500D01*
X48895681Y-76174500D01*
X48895676Y-76174500D01*
X48689610Y-76207137D01*
X48491179Y-76271612D01*
X48305285Y-76366330D01*
X48136493Y-76488966D01*
X47988966Y-76636493D01*
X47866330Y-76805285D01*
X47771612Y-76991179D01*
X47707137Y-77189610D01*
X47674500Y-77395675D01*
X47674500Y-77604324D01*
X47707137Y-77810389D01*
X47771612Y-78008820D01*
X47862188Y-78186585D01*
X47866330Y-78194714D01*
X47988965Y-78363505D01*
X48136495Y-78511035D01*
X48305286Y-78633670D01*
X48392729Y-78678224D01*
X48491179Y-78728387D01*
X48491181Y-78728387D01*
X48491184Y-78728389D01*
X48597545Y-78762948D01*
X48689610Y-78792862D01*
X48895676Y-78825500D01*
X48895681Y-78825500D01*
X49104324Y-78825500D01*
X49310389Y-78792862D01*
X49311894Y-78792373D01*
X49508816Y-78728389D01*
X49694714Y-78633670D01*
X49863505Y-78511035D01*
X50011035Y-78363505D01*
X50133670Y-78194714D01*
X50139794Y-78182692D01*
X50187766Y-78131896D01*
X50255586Y-78115098D01*
X50321722Y-78137632D01*
X50360765Y-78182689D01*
X50366755Y-78194446D01*
X50402627Y-78243818D01*
X50402627Y-78243819D01*
X50976212Y-77670233D01*
X50987482Y-77712292D01*
X51059890Y-77837708D01*
X51162292Y-77940110D01*
X51287708Y-78012518D01*
X51329765Y-78023787D01*
X50756179Y-78597371D01*
X50756180Y-78597372D01*
X50805543Y-78633236D01*
X50805556Y-78633244D01*
X50991372Y-78727924D01*
X51189727Y-78792373D01*
X51395721Y-78825000D01*
X51604279Y-78825000D01*
X51810272Y-78792373D01*
X52008627Y-78727924D01*
X52194451Y-78633240D01*
X52243818Y-78597372D01*
X52243818Y-78597371D01*
X51670234Y-78023787D01*
X51712292Y-78012518D01*
X51837708Y-77940110D01*
X51940110Y-77837708D01*
X52012518Y-77712292D01*
X52023787Y-77670234D01*
X52597371Y-78243818D01*
X52597372Y-78243818D01*
X52633241Y-78194449D01*
X52639231Y-78182694D01*
X52687203Y-78131896D01*
X52755023Y-78115098D01*
X52821159Y-78137632D01*
X52860203Y-78182689D01*
X52866330Y-78194714D01*
X52988965Y-78363505D01*
X53136495Y-78511035D01*
X53305286Y-78633670D01*
X53392729Y-78678224D01*
X53491179Y-78728387D01*
X53491181Y-78728387D01*
X53491184Y-78728389D01*
X53597545Y-78762948D01*
X53689610Y-78792862D01*
X53895676Y-78825500D01*
X53895681Y-78825500D01*
X54104324Y-78825500D01*
X54310389Y-78792862D01*
X54311894Y-78792373D01*
X54508816Y-78728389D01*
X54694714Y-78633670D01*
X54863505Y-78511035D01*
X55011035Y-78363505D01*
X55133670Y-78194714D01*
X55147177Y-78168205D01*
X55195152Y-78117409D01*
X55257662Y-78100500D01*
X56113331Y-78100500D01*
X56113347Y-78100501D01*
X56120943Y-78100501D01*
X56279054Y-78100501D01*
X56279057Y-78100501D01*
X56431785Y-78059577D01*
X56519705Y-78008816D01*
X56568716Y-77980520D01*
X56680520Y-77868716D01*
X56680520Y-77868714D01*
X56690724Y-77858511D01*
X56690727Y-77858506D01*
X62812417Y-71736819D01*
X62873740Y-71703334D01*
X62900098Y-71700500D01*
X76125500Y-71700500D01*
X76192539Y-71720185D01*
X76238294Y-71772989D01*
X76249500Y-71824500D01*
X76249500Y-72247869D01*
X76249501Y-72247878D01*
X76253679Y-72286745D01*
X76253679Y-72313250D01*
X76249500Y-72352122D01*
X76249500Y-73047869D01*
X76249501Y-73047878D01*
X76253679Y-73086745D01*
X76253679Y-73113250D01*
X76249500Y-73152122D01*
X76249500Y-73448141D01*
X76229815Y-73515180D01*
X76177011Y-73560935D01*
X76107853Y-73570879D01*
X76044297Y-73541854D01*
X76006523Y-73483076D01*
X76003885Y-73472342D01*
X75998580Y-73445672D01*
X75967197Y-73369906D01*
X75945777Y-73318192D01*
X75869112Y-73203454D01*
X74971545Y-72305887D01*
X74856807Y-72229222D01*
X74729332Y-72176421D01*
X74729322Y-72176418D01*
X74593996Y-72149500D01*
X74593994Y-72149500D01*
X74593993Y-72149500D01*
X63843994Y-72149500D01*
X63706006Y-72149500D01*
X63706004Y-72149500D01*
X63570677Y-72176418D01*
X63570667Y-72176421D01*
X63443192Y-72229222D01*
X63328454Y-72305887D01*
X61605887Y-74028454D01*
X61529222Y-74143192D01*
X61476421Y-74270667D01*
X61476418Y-74270679D01*
X61452056Y-74393152D01*
X61452057Y-74393153D01*
X61452056Y-74393159D01*
X61449500Y-74406007D01*
X61449500Y-86781006D01*
X61449500Y-86781007D01*
X61449500Y-87731006D01*
X61449500Y-87868994D01*
X61449500Y-87868996D01*
X61449499Y-87868996D01*
X61476418Y-88004322D01*
X61476421Y-88004332D01*
X61529222Y-88131807D01*
X61605887Y-88246545D01*
X62853454Y-89494112D01*
X62968192Y-89570777D01*
X63095667Y-89623578D01*
X63095672Y-89623580D01*
X63095676Y-89623580D01*
X63095677Y-89623581D01*
X63231003Y-89650500D01*
X63231006Y-89650500D01*
X80518996Y-89650500D01*
X80610040Y-89632389D01*
X80654328Y-89623580D01*
X80718069Y-89597177D01*
X80781807Y-89570777D01*
X80781808Y-89570776D01*
X80781811Y-89570775D01*
X80896543Y-89494114D01*
X83178105Y-87212552D01*
X87284500Y-87212552D01*
X87284500Y-87437447D01*
X87313852Y-87660393D01*
X87330557Y-87722736D01*
X87369747Y-87868996D01*
X87372057Y-87877615D01*
X87372059Y-87877622D01*
X87458110Y-88085367D01*
X87458114Y-88085377D01*
X87570552Y-88280125D01*
X87707449Y-88458533D01*
X87707455Y-88458540D01*
X87866459Y-88617544D01*
X87866466Y-88617550D01*
X88044874Y-88754447D01*
X88239622Y-88866885D01*
X88239623Y-88866885D01*
X88239626Y-88866887D01*
X88447387Y-88952944D01*
X88664604Y-89011147D01*
X88887560Y-89040500D01*
X88887567Y-89040500D01*
X89112433Y-89040500D01*
X89112440Y-89040500D01*
X89335396Y-89011147D01*
X89552613Y-88952944D01*
X89760374Y-88866887D01*
X89955126Y-88754447D01*
X90133535Y-88617549D01*
X90292549Y-88458535D01*
X90429447Y-88280126D01*
X90541887Y-88085374D01*
X90627944Y-87877613D01*
X90686147Y-87660396D01*
X90715500Y-87437440D01*
X90715500Y-87212560D01*
X90714433Y-87204459D01*
X90700168Y-87096104D01*
X90686147Y-86989604D01*
X90627944Y-86772387D01*
X90541887Y-86564626D01*
X90514963Y-86517993D01*
X90468002Y-86436653D01*
X90434549Y-86378711D01*
X116649500Y-86378711D01*
X116649500Y-86621288D01*
X116681161Y-86861785D01*
X116743947Y-87096104D01*
X116836773Y-87320205D01*
X116836776Y-87320212D01*
X116958064Y-87530289D01*
X116958066Y-87530292D01*
X116958067Y-87530293D01*
X117105733Y-87722736D01*
X117105739Y-87722743D01*
X117277256Y-87894260D01*
X117277262Y-87894265D01*
X117469711Y-88041936D01*
X117679788Y-88163224D01*
X117903900Y-88256054D01*
X118138211Y-88318838D01*
X118318586Y-88342584D01*
X118378711Y-88350500D01*
X118378712Y-88350500D01*
X118621289Y-88350500D01*
X118669388Y-88344167D01*
X118861789Y-88318838D01*
X119096100Y-88256054D01*
X119320212Y-88163224D01*
X119530289Y-88041936D01*
X119722738Y-87894265D01*
X119894265Y-87722738D01*
X120041936Y-87530289D01*
X120163224Y-87320212D01*
X120256054Y-87096100D01*
X120318838Y-86861789D01*
X120350500Y-86621288D01*
X120350500Y-86378712D01*
X120349336Y-86369874D01*
X120325848Y-86191459D01*
X120318838Y-86138211D01*
X120256054Y-85903900D01*
X120163224Y-85679788D01*
X120041936Y-85469711D01*
X119894265Y-85277262D01*
X119894260Y-85277256D01*
X119722743Y-85105739D01*
X119722736Y-85105733D01*
X119530293Y-84958067D01*
X119530292Y-84958066D01*
X119530289Y-84958064D01*
X119320212Y-84836776D01*
X119298535Y-84827797D01*
X119096104Y-84743947D01*
X118861785Y-84681161D01*
X118621289Y-84649500D01*
X118621288Y-84649500D01*
X118378712Y-84649500D01*
X118378711Y-84649500D01*
X118138214Y-84681161D01*
X117903895Y-84743947D01*
X117679794Y-84836773D01*
X117679785Y-84836777D01*
X117469706Y-84958067D01*
X117277263Y-85105733D01*
X117277256Y-85105739D01*
X117105739Y-85277256D01*
X117105733Y-85277263D01*
X116958067Y-85469706D01*
X116836777Y-85679785D01*
X116836773Y-85679794D01*
X116743947Y-85903895D01*
X116681161Y-86138214D01*
X116649500Y-86378711D01*
X90434549Y-86378711D01*
X90429447Y-86369874D01*
X90292550Y-86191466D01*
X90292544Y-86191459D01*
X90133540Y-86032455D01*
X90133533Y-86032449D01*
X89955125Y-85895552D01*
X89760377Y-85783114D01*
X89760367Y-85783110D01*
X89552622Y-85697059D01*
X89552615Y-85697057D01*
X89552616Y-85697057D01*
X89552613Y-85697056D01*
X89393471Y-85654414D01*
X89335393Y-85638852D01*
X89112447Y-85609500D01*
X89112440Y-85609500D01*
X88887560Y-85609500D01*
X88887552Y-85609500D01*
X88664606Y-85638852D01*
X88511917Y-85679765D01*
X88447387Y-85697056D01*
X88447385Y-85697056D01*
X88447384Y-85697057D01*
X88447377Y-85697059D01*
X88239632Y-85783110D01*
X88239622Y-85783114D01*
X88044874Y-85895552D01*
X87866466Y-86032449D01*
X87866459Y-86032455D01*
X87707455Y-86191459D01*
X87707449Y-86191466D01*
X87570552Y-86369874D01*
X87458114Y-86564622D01*
X87458110Y-86564632D01*
X87372059Y-86772377D01*
X87372057Y-86772384D01*
X87313852Y-86989606D01*
X87284500Y-87212552D01*
X83178105Y-87212552D01*
X83439657Y-86951000D01*
X85273204Y-85117452D01*
X85944586Y-84446069D01*
X85984810Y-84419192D01*
X86087196Y-84376784D01*
X86129173Y-84359397D01*
X86129176Y-84359395D01*
X86129179Y-84359394D01*
X86260289Y-84271789D01*
X86371789Y-84160289D01*
X86459394Y-84029179D01*
X86519737Y-83883497D01*
X86550500Y-83728842D01*
X86550500Y-83571158D01*
X86550500Y-83571155D01*
X86550499Y-83571153D01*
X86519739Y-83416511D01*
X86519736Y-83416501D01*
X86489939Y-83344563D01*
X86488312Y-83336386D01*
X86485523Y-83332046D01*
X86480500Y-83297111D01*
X86480500Y-83225000D01*
X86830000Y-83225000D01*
X86927828Y-83225000D01*
X86927844Y-83224999D01*
X86987372Y-83218598D01*
X86987379Y-83218596D01*
X87005544Y-83211821D01*
X87562000Y-83211821D01*
X87562000Y-83438178D01*
X87597407Y-83661733D01*
X87667354Y-83877005D01*
X87707001Y-83954815D01*
X87770112Y-84078676D01*
X87903155Y-84261794D01*
X88063206Y-84421845D01*
X88246324Y-84554888D01*
X88341605Y-84603436D01*
X88447994Y-84657645D01*
X88447996Y-84657645D01*
X88447999Y-84657647D01*
X88520371Y-84681162D01*
X88663266Y-84727592D01*
X88886822Y-84763000D01*
X88886827Y-84763000D01*
X89113178Y-84763000D01*
X89336733Y-84727592D01*
X89344803Y-84724970D01*
X89552001Y-84657647D01*
X89753676Y-84554888D01*
X89936794Y-84421845D01*
X90096845Y-84261794D01*
X90229888Y-84078676D01*
X90332647Y-83877001D01*
X90402592Y-83661733D01*
X90408853Y-83622200D01*
X90438000Y-83438178D01*
X90438000Y-83211821D01*
X90402592Y-82988266D01*
X90370139Y-82888388D01*
X90332647Y-82772999D01*
X90332645Y-82772996D01*
X90332645Y-82772994D01*
X90257484Y-82625484D01*
X90229888Y-82571324D01*
X90096845Y-82388206D01*
X89936794Y-82228155D01*
X89753676Y-82095112D01*
X89663177Y-82049000D01*
X89552005Y-81992354D01*
X89336733Y-81922407D01*
X89113178Y-81887000D01*
X89113173Y-81887000D01*
X88886827Y-81887000D01*
X88886822Y-81887000D01*
X88663266Y-81922407D01*
X88447994Y-81992354D01*
X88246323Y-82095112D01*
X88063203Y-82228157D01*
X87903157Y-82388203D01*
X87770112Y-82571323D01*
X87667354Y-82772994D01*
X87597407Y-82988266D01*
X87562000Y-83211821D01*
X87005544Y-83211821D01*
X87122086Y-83168354D01*
X87122093Y-83168350D01*
X87203120Y-83107693D01*
X87203126Y-83107688D01*
X87237190Y-83082186D01*
X87323350Y-82967093D01*
X87323354Y-82967086D01*
X87373596Y-82832379D01*
X87373598Y-82832372D01*
X87379999Y-82772844D01*
X87380000Y-82772827D01*
X87380000Y-82425000D01*
X86830000Y-82425000D01*
X86830000Y-83225000D01*
X86480500Y-83225000D01*
X86480500Y-83066438D01*
X86500185Y-82999399D01*
X86505234Y-82992126D01*
X86508123Y-82988267D01*
X86523796Y-82967331D01*
X86523888Y-82967086D01*
X86574091Y-82832482D01*
X86580486Y-82772999D01*
X86580500Y-82772873D01*
X86580499Y-82048998D01*
X86600184Y-81981961D01*
X86652988Y-81936206D01*
X86704499Y-81925000D01*
X87380000Y-81925000D01*
X87380000Y-81577172D01*
X87379999Y-81577155D01*
X87373598Y-81517627D01*
X87373596Y-81517620D01*
X87323354Y-81382913D01*
X87323350Y-81382906D01*
X87237190Y-81267812D01*
X87231559Y-81262181D01*
X87198074Y-81200858D01*
X87203058Y-81131166D01*
X87244930Y-81075233D01*
X87310394Y-81050816D01*
X87319240Y-81050500D01*
X92338331Y-81050500D01*
X92338347Y-81050501D01*
X92345943Y-81050501D01*
X92504054Y-81050501D01*
X92504057Y-81050501D01*
X92656785Y-81009577D01*
X92706904Y-80980639D01*
X92793716Y-80930520D01*
X92905520Y-80818716D01*
X92905520Y-80818714D01*
X92915728Y-80808507D01*
X92915730Y-80808504D01*
X95046006Y-78678228D01*
X95046011Y-78678224D01*
X95056214Y-78668020D01*
X95056216Y-78668020D01*
X95168020Y-78556216D01*
X95241435Y-78429057D01*
X95241436Y-78429054D01*
X95241438Y-78429053D01*
X95247075Y-78419288D01*
X95247077Y-78419285D01*
X95288000Y-78266557D01*
X95288000Y-78108443D01*
X95288000Y-77692507D01*
X95307685Y-77625468D01*
X95346903Y-77586968D01*
X95418656Y-77542712D01*
X95542712Y-77418656D01*
X95634814Y-77269334D01*
X95689999Y-77102797D01*
X95700500Y-77000009D01*
X95700499Y-75999992D01*
X95700316Y-75998204D01*
X95689999Y-75897203D01*
X95689998Y-75897200D01*
X95673983Y-75848870D01*
X95634814Y-75730666D01*
X95542712Y-75581344D01*
X95418656Y-75457288D01*
X95418655Y-75457287D01*
X95333241Y-75404604D01*
X95286516Y-75352656D01*
X95275293Y-75283694D01*
X95303136Y-75219611D01*
X95333241Y-75193526D01*
X95402187Y-75151000D01*
X95456156Y-75117712D01*
X95580212Y-74993656D01*
X95672314Y-74844334D01*
X95727499Y-74677797D01*
X95738000Y-74575009D01*
X95737999Y-73574992D01*
X95727499Y-73472203D01*
X95672314Y-73305666D01*
X95580212Y-73156344D01*
X95456156Y-73032288D01*
X95306834Y-72940186D01*
X95140297Y-72885001D01*
X95140295Y-72885000D01*
X95037510Y-72874500D01*
X94412498Y-72874500D01*
X94412480Y-72874501D01*
X94309703Y-72885000D01*
X94309700Y-72885001D01*
X94143168Y-72940185D01*
X94143163Y-72940187D01*
X93993842Y-73032289D01*
X93900181Y-73125951D01*
X93838858Y-73159436D01*
X93769166Y-73154452D01*
X93724819Y-73125951D01*
X93631157Y-73032289D01*
X93631156Y-73032288D01*
X93481834Y-72940186D01*
X93315297Y-72885001D01*
X93315295Y-72885000D01*
X93212516Y-72874500D01*
X92625097Y-72874500D01*
X92558058Y-72854815D01*
X92537416Y-72838181D01*
X90438919Y-70739684D01*
X90430521Y-70731286D01*
X90430520Y-70731284D01*
X90318716Y-70619480D01*
X90299497Y-70608384D01*
X90288987Y-70598486D01*
X90278332Y-70580292D01*
X90263784Y-70565034D01*
X90263383Y-70563383D01*
X90249948Y-70549948D01*
X90183085Y-70530315D01*
X90150857Y-70500311D01*
X90107546Y-70442454D01*
X90107542Y-70442451D01*
X90107539Y-70442448D01*
X90049855Y-70399265D01*
X90007984Y-70343331D01*
X90003000Y-70273640D01*
X90036470Y-70212332D01*
X90042740Y-70206059D01*
X90107546Y-70157546D01*
X90156169Y-70092593D01*
X90162428Y-70086333D01*
X90185628Y-70073659D01*
X90206791Y-70057818D01*
X90218494Y-70055706D01*
X90223746Y-70052838D01*
X90231376Y-70053382D01*
X90249972Y-70050027D01*
X90250000Y-70050000D01*
X90250000Y-69952182D01*
X90249999Y-69952164D01*
X90246068Y-69915602D01*
X90246068Y-69889094D01*
X90250500Y-69847873D01*
X90250499Y-69152128D01*
X90250498Y-69152111D01*
X90246320Y-69113253D01*
X90246320Y-69086747D01*
X90250500Y-69047873D01*
X90250499Y-68624499D01*
X90270183Y-68557461D01*
X90322987Y-68511706D01*
X90374499Y-68500500D01*
X97857803Y-68500500D01*
X97924842Y-68520185D01*
X97945484Y-68536819D01*
X107773039Y-78364374D01*
X107773049Y-78364385D01*
X107777379Y-78368715D01*
X107777380Y-78368716D01*
X107889184Y-78480520D01*
X107942039Y-78511035D01*
X107975995Y-78530639D01*
X107975997Y-78530641D01*
X108009528Y-78550000D01*
X108026115Y-78559577D01*
X108178843Y-78600501D01*
X108178846Y-78600501D01*
X108344553Y-78600501D01*
X108344569Y-78600500D01*
X108842338Y-78600500D01*
X108909377Y-78620185D01*
X108952823Y-78668205D01*
X108966330Y-78694714D01*
X109088965Y-78863505D01*
X109236495Y-79011035D01*
X109405286Y-79133670D01*
X109493116Y-79178421D01*
X109591179Y-79228387D01*
X109591181Y-79228387D01*
X109591184Y-79228389D01*
X109697545Y-79262948D01*
X109789610Y-79292862D01*
X109995676Y-79325500D01*
X109995681Y-79325500D01*
X110204324Y-79325500D01*
X110410389Y-79292862D01*
X110411894Y-79292373D01*
X110608816Y-79228389D01*
X110794714Y-79133670D01*
X110963505Y-79011035D01*
X111111035Y-78863505D01*
X111233670Y-78694714D01*
X111239794Y-78682692D01*
X111287766Y-78631896D01*
X111355586Y-78615098D01*
X111421722Y-78637632D01*
X111460765Y-78682689D01*
X111466755Y-78694446D01*
X111502627Y-78743818D01*
X111502627Y-78743819D01*
X112076212Y-78170234D01*
X112087482Y-78212292D01*
X112159890Y-78337708D01*
X112262292Y-78440110D01*
X112387708Y-78512518D01*
X112429765Y-78523787D01*
X111856179Y-79097371D01*
X111856180Y-79097372D01*
X111905543Y-79133236D01*
X111905556Y-79133244D01*
X112091372Y-79227924D01*
X112289727Y-79292373D01*
X112495721Y-79325000D01*
X112704279Y-79325000D01*
X112910272Y-79292373D01*
X113108627Y-79227924D01*
X113294451Y-79133240D01*
X113343818Y-79097372D01*
X113343818Y-79097371D01*
X112770234Y-78523787D01*
X112812292Y-78512518D01*
X112937708Y-78440110D01*
X113040110Y-78337708D01*
X113112518Y-78212292D01*
X113123787Y-78170233D01*
X113697371Y-78743818D01*
X113697372Y-78743818D01*
X113733241Y-78694449D01*
X113739231Y-78682694D01*
X113787203Y-78631896D01*
X113855023Y-78615098D01*
X113921159Y-78637632D01*
X113960203Y-78682689D01*
X113966330Y-78694714D01*
X114088965Y-78863505D01*
X114236495Y-79011035D01*
X114405286Y-79133670D01*
X114493116Y-79178421D01*
X114591179Y-79228387D01*
X114591181Y-79228387D01*
X114591184Y-79228389D01*
X114697545Y-79262948D01*
X114789610Y-79292862D01*
X114995676Y-79325500D01*
X114995681Y-79325500D01*
X115204324Y-79325500D01*
X115410389Y-79292862D01*
X115411894Y-79292373D01*
X115608816Y-79228389D01*
X115794714Y-79133670D01*
X115963505Y-79011035D01*
X116111035Y-78863505D01*
X116233670Y-78694714D01*
X116328389Y-78508816D01*
X116392862Y-78310389D01*
X116399804Y-78266557D01*
X116425500Y-78104324D01*
X116425500Y-77895675D01*
X116392862Y-77689610D01*
X116345941Y-77545204D01*
X116328389Y-77491184D01*
X116328387Y-77491181D01*
X116328387Y-77491179D01*
X116275689Y-77387754D01*
X116233670Y-77305286D01*
X116111035Y-77136495D01*
X115963505Y-76988965D01*
X115794714Y-76866330D01*
X115726935Y-76831795D01*
X115608820Y-76771612D01*
X115410389Y-76707137D01*
X115204324Y-76674500D01*
X115204319Y-76674500D01*
X114995681Y-76674500D01*
X114995676Y-76674500D01*
X114789610Y-76707138D01*
X114761313Y-76716332D01*
X114691472Y-76718326D01*
X114635316Y-76686081D01*
X112212533Y-74263298D01*
X112212531Y-74263295D01*
X112093660Y-74144424D01*
X112093659Y-74144423D01*
X112006847Y-74094303D01*
X112006847Y-74094302D01*
X112006843Y-74094301D01*
X111956728Y-74065366D01*
X111804000Y-74024442D01*
X111645886Y-74024442D01*
X111638290Y-74024442D01*
X111638274Y-74024443D01*
X105750040Y-74024443D01*
X105683001Y-74004758D01*
X105662359Y-73988124D01*
X102001203Y-70326968D01*
X103819000Y-70326968D01*
X103819000Y-70673031D01*
X103857742Y-71016885D01*
X103857745Y-71016903D01*
X103934747Y-71354273D01*
X103934751Y-71354285D01*
X104049039Y-71680899D01*
X104049048Y-71680921D01*
X104199183Y-71992680D01*
X104286184Y-72131141D01*
X104383297Y-72285696D01*
X104436270Y-72352122D01*
X104592989Y-72548642D01*
X104599056Y-72556249D01*
X104843751Y-72800944D01*
X105114304Y-73016703D01*
X105333531Y-73154452D01*
X105407319Y-73200816D01*
X105719078Y-73350951D01*
X105719087Y-73350954D01*
X105719094Y-73350958D01*
X105719100Y-73350960D01*
X106045714Y-73465248D01*
X106045726Y-73465252D01*
X106383100Y-73542255D01*
X106383106Y-73542255D01*
X106383114Y-73542257D01*
X106612350Y-73568085D01*
X106726969Y-73580999D01*
X106726972Y-73581000D01*
X106726975Y-73581000D01*
X107073028Y-73581000D01*
X107073029Y-73580999D01*
X107251109Y-73560935D01*
X107416885Y-73542257D01*
X107416890Y-73542256D01*
X107416900Y-73542255D01*
X107754274Y-73465252D01*
X108080906Y-73350958D01*
X108084773Y-73349096D01*
X108392680Y-73200816D01*
X108392680Y-73200815D01*
X108392686Y-73200813D01*
X108685696Y-73016703D01*
X108956249Y-72800944D01*
X109200944Y-72556249D01*
X109416703Y-72285696D01*
X109600813Y-71992686D01*
X109662010Y-71865609D01*
X109750951Y-71680921D01*
X109750952Y-71680917D01*
X109750958Y-71680906D01*
X109865252Y-71354274D01*
X109942255Y-71016900D01*
X109945868Y-70984839D01*
X109973489Y-70739684D01*
X109981000Y-70673025D01*
X109981000Y-70326975D01*
X109955483Y-70100500D01*
X109942257Y-69983114D01*
X109942254Y-69983096D01*
X109937048Y-69960289D01*
X109865252Y-69645726D01*
X109750958Y-69319094D01*
X109750954Y-69319087D01*
X109750951Y-69319078D01*
X109600816Y-69007319D01*
X109523083Y-68883607D01*
X109416703Y-68714304D01*
X109200944Y-68443751D01*
X108956249Y-68199056D01*
X108924378Y-68173640D01*
X108817358Y-68088294D01*
X108685696Y-67983297D01*
X108392686Y-67799187D01*
X108392687Y-67799187D01*
X108392680Y-67799183D01*
X108080921Y-67649048D01*
X108080899Y-67649039D01*
X107754285Y-67534751D01*
X107754273Y-67534747D01*
X107416903Y-67457745D01*
X107416885Y-67457742D01*
X107073031Y-67419000D01*
X107073025Y-67419000D01*
X106726975Y-67419000D01*
X106726968Y-67419000D01*
X106383114Y-67457742D01*
X106383096Y-67457745D01*
X106045726Y-67534747D01*
X106045714Y-67534751D01*
X105719100Y-67649039D01*
X105719078Y-67649048D01*
X105407319Y-67799183D01*
X105114305Y-67983296D01*
X104843751Y-68199055D01*
X104599055Y-68443751D01*
X104383296Y-68714305D01*
X104199183Y-69007319D01*
X104049048Y-69319078D01*
X104049039Y-69319100D01*
X103934751Y-69645714D01*
X103934747Y-69645726D01*
X103857745Y-69983096D01*
X103857742Y-69983114D01*
X103819000Y-70326968D01*
X102001203Y-70326968D01*
X98937416Y-67263181D01*
X98903931Y-67201858D01*
X98908915Y-67132166D01*
X98950787Y-67076233D01*
X99016251Y-67051816D01*
X99025097Y-67051500D01*
X107062331Y-67051500D01*
X107062347Y-67051501D01*
X107069943Y-67051501D01*
X107228054Y-67051501D01*
X107228057Y-67051501D01*
X107380785Y-67010577D01*
X107430904Y-66981639D01*
X107517716Y-66931520D01*
X107629520Y-66819716D01*
X107629520Y-66819714D01*
X107639728Y-66809507D01*
X107639730Y-66809504D01*
X109635317Y-64813916D01*
X109696638Y-64780433D01*
X109761314Y-64783668D01*
X109789610Y-64792862D01*
X109995676Y-64825500D01*
X109995681Y-64825500D01*
X110204324Y-64825500D01*
X110410389Y-64792862D01*
X110444323Y-64781836D01*
X110608816Y-64728389D01*
X110794714Y-64633670D01*
X110963505Y-64511035D01*
X111111035Y-64363505D01*
X111233670Y-64194714D01*
X111328389Y-64008816D01*
X111392862Y-63810389D01*
X111400153Y-63764355D01*
X111425500Y-63604324D01*
X111425500Y-63395720D01*
X113775000Y-63395720D01*
X113775000Y-63604279D01*
X113807626Y-63810272D01*
X113872075Y-64008627D01*
X113966759Y-64194451D01*
X114002627Y-64243818D01*
X114002627Y-64243819D01*
X114576212Y-63670234D01*
X114587482Y-63712292D01*
X114659890Y-63837708D01*
X114762292Y-63940110D01*
X114887708Y-64012518D01*
X114929765Y-64023787D01*
X114356179Y-64597371D01*
X114356180Y-64597372D01*
X114405543Y-64633236D01*
X114405556Y-64633244D01*
X114591372Y-64727924D01*
X114789727Y-64792373D01*
X114995721Y-64825000D01*
X115204279Y-64825000D01*
X115410272Y-64792373D01*
X115608627Y-64727924D01*
X115794451Y-64633240D01*
X115843818Y-64597372D01*
X115843818Y-64597371D01*
X115270234Y-64023787D01*
X115312292Y-64012518D01*
X115437708Y-63940110D01*
X115540110Y-63837708D01*
X115612518Y-63712292D01*
X115623787Y-63670234D01*
X116197371Y-64243818D01*
X116197372Y-64243818D01*
X116233240Y-64194451D01*
X116327924Y-64008627D01*
X116392373Y-63810272D01*
X116425000Y-63604279D01*
X116425000Y-63395720D01*
X116392373Y-63189727D01*
X116327924Y-62991372D01*
X116233244Y-62805556D01*
X116233236Y-62805543D01*
X116197372Y-62756180D01*
X116197371Y-62756179D01*
X115623787Y-63329764D01*
X115612518Y-63287708D01*
X115540110Y-63162292D01*
X115437708Y-63059890D01*
X115312292Y-62987482D01*
X115270233Y-62976212D01*
X115843819Y-62402627D01*
X115794451Y-62366759D01*
X115608627Y-62272075D01*
X115410272Y-62207626D01*
X115204279Y-62175000D01*
X114995721Y-62175000D01*
X114789727Y-62207626D01*
X114591372Y-62272075D01*
X114405552Y-62366757D01*
X114356180Y-62402627D01*
X114929766Y-62976212D01*
X114887708Y-62987482D01*
X114762292Y-63059890D01*
X114659890Y-63162292D01*
X114587482Y-63287708D01*
X114576212Y-63329765D01*
X114002627Y-62756180D01*
X113966757Y-62805552D01*
X113872075Y-62991372D01*
X113807626Y-63189727D01*
X113775000Y-63395720D01*
X111425500Y-63395720D01*
X111425500Y-63395675D01*
X111392862Y-63189610D01*
X111337644Y-63019668D01*
X111328389Y-62991184D01*
X111328387Y-62991181D01*
X111328387Y-62991179D01*
X111259265Y-62855520D01*
X111233670Y-62805286D01*
X111111035Y-62636495D01*
X110963505Y-62488965D01*
X110794714Y-62366330D01*
X110608820Y-62271612D01*
X110410389Y-62207137D01*
X110204324Y-62174500D01*
X110204319Y-62174500D01*
X109995681Y-62174500D01*
X109995676Y-62174500D01*
X109789610Y-62207137D01*
X109591179Y-62271612D01*
X109405285Y-62366330D01*
X109236493Y-62488966D01*
X109088966Y-62636493D01*
X108966330Y-62805285D01*
X108871612Y-62991179D01*
X108807137Y-63189610D01*
X108774500Y-63395675D01*
X108774500Y-63604324D01*
X108807138Y-63810389D01*
X108807138Y-63810392D01*
X108816331Y-63838683D01*
X108818326Y-63908524D01*
X108786081Y-63964682D01*
X106936584Y-65814181D01*
X106875261Y-65847666D01*
X106848903Y-65850500D01*
X90374500Y-65850500D01*
X90307461Y-65830815D01*
X90261706Y-65778011D01*
X90250500Y-65726500D01*
X90250499Y-65152129D01*
X90250498Y-65152123D01*
X90249981Y-65147314D01*
X90244091Y-65092517D01*
X90234355Y-65066414D01*
X90193797Y-64957671D01*
X90193793Y-64957664D01*
X90107547Y-64842455D01*
X90107544Y-64842452D01*
X89992335Y-64756206D01*
X89992328Y-64756202D01*
X89857482Y-64705908D01*
X89857483Y-64705908D01*
X89797883Y-64699501D01*
X89797881Y-64699500D01*
X89797873Y-64699500D01*
X89797864Y-64699500D01*
X88202129Y-64699500D01*
X88202110Y-64699502D01*
X88185220Y-64701317D01*
X88116461Y-64688908D01*
X88065327Y-64641294D01*
X88048051Y-64573594D01*
X88048683Y-64564770D01*
X88050500Y-64547873D01*
X88050499Y-62952128D01*
X88044431Y-62895681D01*
X88044091Y-62892516D01*
X87993797Y-62757671D01*
X87993793Y-62757664D01*
X87907547Y-62642455D01*
X87907544Y-62642452D01*
X87792335Y-62556206D01*
X87792328Y-62556202D01*
X87657482Y-62505908D01*
X87657483Y-62505908D01*
X87597883Y-62499501D01*
X87597881Y-62499500D01*
X87597873Y-62499500D01*
X87597865Y-62499500D01*
X87174500Y-62499500D01*
X87107461Y-62479815D01*
X87061706Y-62427011D01*
X87050500Y-62375500D01*
X87050500Y-62120945D01*
X87050500Y-62120943D01*
X87015137Y-61988965D01*
X87015137Y-61988964D01*
X87015137Y-61988963D01*
X87009577Y-61968215D01*
X86979180Y-61915566D01*
X86967006Y-61894480D01*
X86930520Y-61831284D01*
X86818716Y-61719480D01*
X86818715Y-61719479D01*
X86814385Y-61715149D01*
X86814374Y-61715139D01*
X86534574Y-61435339D01*
X86501089Y-61374016D01*
X86500638Y-61371849D01*
X86469738Y-61216510D01*
X86469737Y-61216503D01*
X86469735Y-61216498D01*
X86409397Y-61070827D01*
X86409390Y-61070814D01*
X86321789Y-60939711D01*
X86321786Y-60939707D01*
X86210292Y-60828213D01*
X86210288Y-60828210D01*
X86079185Y-60740609D01*
X86079172Y-60740602D01*
X85933501Y-60680264D01*
X85933489Y-60680261D01*
X85778845Y-60649500D01*
X85778842Y-60649500D01*
X85621158Y-60649500D01*
X85621155Y-60649500D01*
X85466510Y-60680261D01*
X85466498Y-60680264D01*
X85320827Y-60740602D01*
X85320814Y-60740609D01*
X85189711Y-60828210D01*
X85189707Y-60828213D01*
X85078213Y-60939707D01*
X85078210Y-60939711D01*
X84990609Y-61070814D01*
X84990602Y-61070827D01*
X84930264Y-61216498D01*
X84930261Y-61216510D01*
X84899500Y-61371153D01*
X84899500Y-61528846D01*
X84930261Y-61683489D01*
X84930264Y-61683501D01*
X84990602Y-61829172D01*
X84990609Y-61829185D01*
X85078210Y-61960288D01*
X85078213Y-61960292D01*
X85189707Y-62071786D01*
X85189711Y-62071789D01*
X85320814Y-62159390D01*
X85320827Y-62159397D01*
X85436086Y-62207138D01*
X85466503Y-62219737D01*
X85531147Y-62232595D01*
X85621849Y-62250638D01*
X85638605Y-62259402D01*
X85657085Y-62263423D01*
X85682123Y-62282167D01*
X85683760Y-62283023D01*
X85685339Y-62284574D01*
X85688584Y-62287819D01*
X85722069Y-62349142D01*
X85717085Y-62418834D01*
X85675213Y-62474767D01*
X85609749Y-62499184D01*
X85600903Y-62499500D01*
X85302132Y-62499500D01*
X85302117Y-62499501D01*
X85260904Y-62503931D01*
X85234402Y-62503931D01*
X85197834Y-62500000D01*
X85100000Y-62500000D01*
X85099948Y-62500051D01*
X85080315Y-62566914D01*
X85063667Y-62587571D01*
X85057402Y-62593833D01*
X84992454Y-62642454D01*
X84943946Y-62707251D01*
X84937667Y-62713529D01*
X84914476Y-62726186D01*
X84893332Y-62742015D01*
X84884294Y-62742661D01*
X84876338Y-62747004D01*
X84849985Y-62745114D01*
X84823640Y-62746999D01*
X84815686Y-62742656D01*
X84806647Y-62742008D01*
X84785502Y-62726173D01*
X84762317Y-62713513D01*
X84750734Y-62700145D01*
X84707546Y-62642454D01*
X84707540Y-62642449D01*
X84700187Y-62636944D01*
X84658317Y-62581009D01*
X84650500Y-62537679D01*
X84650500Y-59300097D01*
X84670185Y-59233058D01*
X84686819Y-59212416D01*
X84762417Y-59136818D01*
X84823740Y-59103333D01*
X84850098Y-59100499D01*
X86647871Y-59100499D01*
X86647872Y-59100499D01*
X86707483Y-59094091D01*
X86842331Y-59043796D01*
X86957546Y-58957546D01*
X87043796Y-58842331D01*
X87094091Y-58707483D01*
X87100500Y-58647873D01*
X87100500Y-58149042D01*
X87120185Y-58082003D01*
X87172989Y-58036248D01*
X87242147Y-58026304D01*
X87305703Y-58055329D01*
X87330038Y-58083944D01*
X87337538Y-58096104D01*
X87382095Y-58168344D01*
X87382288Y-58168656D01*
X87506344Y-58292712D01*
X87655666Y-58384814D01*
X87822203Y-58439999D01*
X87924991Y-58450500D01*
X88525008Y-58450499D01*
X88525016Y-58450498D01*
X88525019Y-58450498D01*
X88591997Y-58443656D01*
X88627797Y-58439999D01*
X88794334Y-58384814D01*
X88943656Y-58292712D01*
X89067712Y-58168656D01*
X89069752Y-58165347D01*
X89071745Y-58163555D01*
X89072193Y-58162989D01*
X89072289Y-58163065D01*
X89121694Y-58118623D01*
X89190656Y-58107395D01*
X89254740Y-58135234D01*
X89280829Y-58165339D01*
X89282681Y-58168341D01*
X89282683Y-58168344D01*
X89406654Y-58292315D01*
X89555875Y-58384356D01*
X89555880Y-58384358D01*
X89722302Y-58439505D01*
X89722309Y-58439506D01*
X89825019Y-58449999D01*
X90375000Y-58449999D01*
X90424972Y-58449999D01*
X90424986Y-58449998D01*
X90527697Y-58439505D01*
X90694119Y-58384358D01*
X90694124Y-58384356D01*
X90843345Y-58292315D01*
X90967315Y-58168345D01*
X91059356Y-58019124D01*
X91059358Y-58019119D01*
X91114505Y-57852697D01*
X91114506Y-57852690D01*
X91124999Y-57749986D01*
X91125000Y-57749973D01*
X91125000Y-57475000D01*
X90375000Y-57475000D01*
X90375000Y-58449999D01*
X89825019Y-58449999D01*
X89874999Y-58449998D01*
X89875000Y-58449998D01*
X89875000Y-56975000D01*
X90375000Y-56975000D01*
X91124999Y-56975000D01*
X91124999Y-56878711D01*
X116649500Y-56878711D01*
X116649500Y-57121288D01*
X116681161Y-57361785D01*
X116743947Y-57596104D01*
X116807693Y-57750000D01*
X116836776Y-57820212D01*
X116958064Y-58030289D01*
X116958066Y-58030292D01*
X116958067Y-58030293D01*
X117105733Y-58222736D01*
X117105739Y-58222743D01*
X117277256Y-58394260D01*
X117277263Y-58394266D01*
X117341224Y-58443345D01*
X117469711Y-58541936D01*
X117679788Y-58663224D01*
X117903900Y-58756054D01*
X118138211Y-58818838D01*
X118316638Y-58842328D01*
X118378711Y-58850500D01*
X118378712Y-58850500D01*
X118621289Y-58850500D01*
X118683339Y-58842331D01*
X118861789Y-58818838D01*
X119096100Y-58756054D01*
X119320212Y-58663224D01*
X119530289Y-58541936D01*
X119722738Y-58394265D01*
X119894265Y-58222738D01*
X120041936Y-58030289D01*
X120163224Y-57820212D01*
X120256054Y-57596100D01*
X120318838Y-57361789D01*
X120350500Y-57121288D01*
X120350500Y-56878712D01*
X120318838Y-56638211D01*
X120256054Y-56403900D01*
X120163224Y-56179788D01*
X120041936Y-55969711D01*
X119944289Y-55842455D01*
X119894266Y-55777263D01*
X119894260Y-55777256D01*
X119722743Y-55605739D01*
X119722736Y-55605733D01*
X119530293Y-55458067D01*
X119530292Y-55458066D01*
X119530289Y-55458064D01*
X119320212Y-55336776D01*
X119320205Y-55336773D01*
X119096104Y-55243947D01*
X118861785Y-55181161D01*
X118621289Y-55149500D01*
X118621288Y-55149500D01*
X118378712Y-55149500D01*
X118378711Y-55149500D01*
X118138214Y-55181161D01*
X117903895Y-55243947D01*
X117679794Y-55336773D01*
X117679785Y-55336777D01*
X117469706Y-55458067D01*
X117277263Y-55605733D01*
X117277256Y-55605739D01*
X117105739Y-55777256D01*
X117105733Y-55777263D01*
X116958067Y-55969706D01*
X116836777Y-56179785D01*
X116836773Y-56179794D01*
X116743947Y-56403895D01*
X116681161Y-56638214D01*
X116649500Y-56878711D01*
X91124999Y-56878711D01*
X91124999Y-56700028D01*
X91124998Y-56700013D01*
X91114505Y-56597302D01*
X91059358Y-56430880D01*
X91059356Y-56430875D01*
X90967315Y-56281654D01*
X90843345Y-56157684D01*
X90694124Y-56065643D01*
X90694119Y-56065641D01*
X90527697Y-56010494D01*
X90527690Y-56010493D01*
X90424986Y-56000000D01*
X90375000Y-56000000D01*
X90375000Y-56975000D01*
X89875000Y-56975000D01*
X89875000Y-56000000D01*
X89874999Y-55999999D01*
X89825029Y-56000000D01*
X89825011Y-56000001D01*
X89722302Y-56010494D01*
X89555880Y-56065641D01*
X89555875Y-56065643D01*
X89406654Y-56157684D01*
X89282683Y-56281655D01*
X89282679Y-56281660D01*
X89280826Y-56284665D01*
X89279018Y-56286290D01*
X89278202Y-56287323D01*
X89278025Y-56287183D01*
X89228874Y-56331385D01*
X89159911Y-56342601D01*
X89095831Y-56314752D01*
X89069753Y-56284653D01*
X89069737Y-56284628D01*
X89067712Y-56281344D01*
X88943656Y-56157288D01*
X88794334Y-56065186D01*
X88627797Y-56010001D01*
X88627795Y-56010000D01*
X88525010Y-55999500D01*
X87924998Y-55999500D01*
X87924980Y-55999501D01*
X87822203Y-56010000D01*
X87822200Y-56010001D01*
X87655668Y-56065185D01*
X87655663Y-56065187D01*
X87506342Y-56157289D01*
X87382289Y-56281342D01*
X87380033Y-56285000D01*
X87345713Y-56340643D01*
X87330038Y-56366056D01*
X87278090Y-56412780D01*
X87209128Y-56424003D01*
X87145045Y-56396159D01*
X87106189Y-56338091D01*
X87100499Y-56300959D01*
X87100499Y-56152129D01*
X87100498Y-56152123D01*
X87100497Y-56152116D01*
X87094091Y-56092517D01*
X87083897Y-56065186D01*
X87043797Y-55957671D01*
X87043793Y-55957664D01*
X86957547Y-55842455D01*
X86957544Y-55842452D01*
X86842335Y-55756206D01*
X86842328Y-55756202D01*
X86707482Y-55705908D01*
X86707483Y-55705908D01*
X86647883Y-55699501D01*
X86647881Y-55699500D01*
X86647873Y-55699500D01*
X86647864Y-55699500D01*
X84652129Y-55699500D01*
X84652123Y-55699501D01*
X84592516Y-55705908D01*
X84457671Y-55756202D01*
X84457664Y-55756206D01*
X84342455Y-55842452D01*
X84342452Y-55842455D01*
X84256206Y-55957664D01*
X84256202Y-55957671D01*
X84205908Y-56092517D01*
X84199501Y-56152116D01*
X84199501Y-56152123D01*
X84199500Y-56152135D01*
X84199500Y-57949901D01*
X84179815Y-58016940D01*
X84163181Y-58037582D01*
X83687680Y-58513083D01*
X83626357Y-58546568D01*
X83556665Y-58541584D01*
X83512318Y-58513083D01*
X83036818Y-58037583D01*
X83003333Y-57976260D01*
X83000499Y-57949902D01*
X83000499Y-56152129D01*
X83000498Y-56152123D01*
X83000497Y-56152116D01*
X82994091Y-56092517D01*
X82983897Y-56065186D01*
X82943797Y-55957671D01*
X82943793Y-55957664D01*
X82857547Y-55842455D01*
X82857544Y-55842452D01*
X82742335Y-55756206D01*
X82742328Y-55756202D01*
X82607482Y-55705908D01*
X82607483Y-55705908D01*
X82547883Y-55699501D01*
X82547881Y-55699500D01*
X82547873Y-55699500D01*
X82547864Y-55699500D01*
X80552129Y-55699500D01*
X80552123Y-55699501D01*
X80492516Y-55705908D01*
X80357671Y-55756202D01*
X80357664Y-55756206D01*
X80242455Y-55842452D01*
X80242452Y-55842455D01*
X80156206Y-55957664D01*
X80156202Y-55957671D01*
X80105908Y-56092517D01*
X80099501Y-56152116D01*
X80099501Y-56152123D01*
X80099500Y-56152135D01*
X80099500Y-56363770D01*
X80079815Y-56430809D01*
X80027011Y-56476564D01*
X79957853Y-56486508D01*
X79894297Y-56457483D01*
X79887819Y-56451451D01*
X79868657Y-56432289D01*
X79868656Y-56432288D01*
X79755848Y-56362708D01*
X79719336Y-56340187D01*
X79719331Y-56340185D01*
X79692774Y-56331385D01*
X79552797Y-56285001D01*
X79552795Y-56285000D01*
X79450010Y-56274500D01*
X78849998Y-56274500D01*
X78849980Y-56274501D01*
X78747203Y-56285000D01*
X78747200Y-56285001D01*
X78580668Y-56340185D01*
X78580663Y-56340187D01*
X78431342Y-56432289D01*
X78307288Y-56556343D01*
X78307283Y-56556349D01*
X78305241Y-56559661D01*
X78303247Y-56561453D01*
X78302807Y-56562011D01*
X78302711Y-56561935D01*
X78253291Y-56606383D01*
X78184328Y-56617602D01*
X78120247Y-56589755D01*
X78094168Y-56559656D01*
X78092319Y-56556659D01*
X78092316Y-56556655D01*
X77968345Y-56432684D01*
X77819124Y-56340643D01*
X77819119Y-56340641D01*
X77652697Y-56285494D01*
X77652690Y-56285493D01*
X77549986Y-56275000D01*
X77500000Y-56275000D01*
X77500000Y-58724999D01*
X77549972Y-58724999D01*
X77549986Y-58724998D01*
X77652697Y-58714505D01*
X77819119Y-58659358D01*
X77819124Y-58659356D01*
X77968345Y-58567315D01*
X78092318Y-58443342D01*
X78094165Y-58440348D01*
X78095969Y-58438724D01*
X78096798Y-58437677D01*
X78096976Y-58437818D01*
X78146110Y-58393621D01*
X78215073Y-58382396D01*
X78279156Y-58410236D01*
X78305243Y-58440341D01*
X78307288Y-58443656D01*
X78431344Y-58567712D01*
X78580666Y-58659814D01*
X78747203Y-58714999D01*
X78849991Y-58725500D01*
X79450008Y-58725499D01*
X79450016Y-58725498D01*
X79450019Y-58725498D01*
X79506302Y-58719748D01*
X79552797Y-58714999D01*
X79719334Y-58659814D01*
X79868656Y-58567712D01*
X79887819Y-58548548D01*
X79949139Y-58515063D01*
X80018831Y-58520046D01*
X80074766Y-58561917D01*
X80099184Y-58627380D01*
X80099500Y-58636221D01*
X80099500Y-58647866D01*
X80099501Y-58647876D01*
X80105908Y-58707483D01*
X80156202Y-58842328D01*
X80156206Y-58842335D01*
X80242452Y-58957544D01*
X80242455Y-58957547D01*
X80357664Y-59043793D01*
X80357671Y-59043797D01*
X80492517Y-59094091D01*
X80492516Y-59094091D01*
X80499444Y-59094835D01*
X80552127Y-59100500D01*
X82349902Y-59100499D01*
X82379342Y-59109143D01*
X82409329Y-59115667D01*
X82414344Y-59119421D01*
X82416941Y-59120184D01*
X82437583Y-59136818D01*
X82613181Y-59312416D01*
X82646666Y-59373739D01*
X82649500Y-59400097D01*
X82649500Y-62375500D01*
X82629815Y-62442539D01*
X82577011Y-62488294D01*
X82525500Y-62499500D01*
X82102130Y-62499500D01*
X82102119Y-62499501D01*
X82063253Y-62503679D01*
X82036748Y-62503679D01*
X81997874Y-62499500D01*
X81302130Y-62499500D01*
X81302119Y-62499501D01*
X81263253Y-62503679D01*
X81236748Y-62503679D01*
X81197874Y-62499500D01*
X80502130Y-62499500D01*
X80502119Y-62499501D01*
X80463253Y-62503679D01*
X80436748Y-62503679D01*
X80397874Y-62499500D01*
X79702130Y-62499500D01*
X79702119Y-62499501D01*
X79663253Y-62503679D01*
X79636748Y-62503679D01*
X79597874Y-62499500D01*
X78902129Y-62499500D01*
X78902123Y-62499501D01*
X78842516Y-62505908D01*
X78707671Y-62556202D01*
X78707664Y-62556206D01*
X78592455Y-62642452D01*
X78592452Y-62642455D01*
X78506206Y-62757664D01*
X78506202Y-62757671D01*
X78455908Y-62892517D01*
X78449501Y-62952116D01*
X78449501Y-62952123D01*
X78449500Y-62952135D01*
X78449500Y-64547870D01*
X78449501Y-64547884D01*
X78451372Y-64565287D01*
X78438964Y-64634046D01*
X78391351Y-64685181D01*
X78323651Y-64702458D01*
X78314831Y-64701827D01*
X78297838Y-64700000D01*
X77750000Y-64700000D01*
X77750000Y-65250000D01*
X78750000Y-65250000D01*
X78750000Y-65152172D01*
X78749999Y-65152158D01*
X78748173Y-65135174D01*
X78760577Y-65066414D01*
X78808187Y-65015276D01*
X78875886Y-64997996D01*
X78884710Y-64998627D01*
X78902127Y-65000500D01*
X79597872Y-65000499D01*
X79597873Y-65000498D01*
X79597885Y-65000498D01*
X79636744Y-64996320D01*
X79646233Y-64997251D01*
X79652142Y-64995627D01*
X79663242Y-64996318D01*
X79702127Y-65000500D01*
X79850903Y-65000499D01*
X79917941Y-65020183D01*
X79963696Y-65072987D01*
X79973640Y-65142145D01*
X79944615Y-65205701D01*
X79938584Y-65212179D01*
X79894481Y-65256283D01*
X79894478Y-65256286D01*
X79685338Y-65465425D01*
X79624015Y-65498910D01*
X79621849Y-65499361D01*
X79466508Y-65530261D01*
X79466498Y-65530264D01*
X79320827Y-65590602D01*
X79320814Y-65590609D01*
X79189125Y-65678602D01*
X79122447Y-65699480D01*
X79120234Y-65699500D01*
X78712320Y-65699500D01*
X78645281Y-65679815D01*
X78613052Y-65649809D01*
X78607548Y-65642457D01*
X78607546Y-65642454D01*
X78607542Y-65642451D01*
X78492335Y-65556206D01*
X78492328Y-65556202D01*
X78357482Y-65505908D01*
X78357483Y-65505908D01*
X78297883Y-65499501D01*
X78297881Y-65499500D01*
X78297873Y-65499500D01*
X78297865Y-65499500D01*
X77374000Y-65499500D01*
X77306961Y-65479815D01*
X77261206Y-65427011D01*
X77250000Y-65375500D01*
X77250000Y-64700000D01*
X76702155Y-64700000D01*
X76642627Y-64706401D01*
X76642620Y-64706403D01*
X76507913Y-64756645D01*
X76507906Y-64756649D01*
X76392812Y-64842809D01*
X76392809Y-64842812D01*
X76306649Y-64957906D01*
X76306646Y-64957912D01*
X76255360Y-65095415D01*
X76213488Y-65151348D01*
X76148024Y-65175765D01*
X76079751Y-65160913D01*
X76051497Y-65139762D01*
X75896646Y-64984911D01*
X75863161Y-64923588D01*
X75868145Y-64853896D01*
X75878786Y-64832137D01*
X75909814Y-64781834D01*
X75964999Y-64615297D01*
X75975500Y-64512509D01*
X75975499Y-63887492D01*
X75964999Y-63784703D01*
X75909814Y-63618166D01*
X75817712Y-63468844D01*
X75724049Y-63375181D01*
X75690564Y-63313858D01*
X75695548Y-63244166D01*
X75724049Y-63199819D01*
X75761576Y-63162292D01*
X75817712Y-63106156D01*
X75909814Y-62956834D01*
X75964999Y-62790297D01*
X75975500Y-62687509D01*
X75975499Y-62062492D01*
X75964999Y-61959703D01*
X75909814Y-61793166D01*
X75817712Y-61643844D01*
X75693656Y-61519788D01*
X75544334Y-61427686D01*
X75377797Y-61372501D01*
X75377795Y-61372500D01*
X75275010Y-61362000D01*
X74274998Y-61362000D01*
X74274980Y-61362001D01*
X74172203Y-61372500D01*
X74172200Y-61372501D01*
X74005668Y-61427685D01*
X74005663Y-61427687D01*
X73856336Y-61519793D01*
X73850355Y-61525774D01*
X73789029Y-61559254D01*
X73719338Y-61554263D01*
X73675001Y-61525766D01*
X73277798Y-61128563D01*
X73244313Y-61067240D01*
X73247547Y-61002566D01*
X73288553Y-60876368D01*
X73319613Y-60680263D01*
X73325500Y-60643097D01*
X73325500Y-60406902D01*
X73288553Y-60173631D01*
X73215566Y-59949003D01*
X73108342Y-59738566D01*
X72969517Y-59547490D01*
X72802510Y-59380483D01*
X72611433Y-59241657D01*
X72594557Y-59233058D01*
X72400996Y-59134433D01*
X72176368Y-59061446D01*
X71943097Y-59024500D01*
X71943092Y-59024500D01*
X71706908Y-59024500D01*
X71706903Y-59024500D01*
X71473631Y-59061446D01*
X71249003Y-59134433D01*
X71038566Y-59241657D01*
X70958131Y-59300097D01*
X70847490Y-59380483D01*
X70847488Y-59380485D01*
X70847487Y-59380485D01*
X70680485Y-59547487D01*
X70680485Y-59547488D01*
X70680483Y-59547490D01*
X70620862Y-59629550D01*
X70541657Y-59738566D01*
X70434433Y-59949003D01*
X70361446Y-60173631D01*
X70324500Y-60406902D01*
X70324500Y-60643097D01*
X70361446Y-60876368D01*
X70434433Y-61100996D01*
X70493291Y-61216510D01*
X70541657Y-61311433D01*
X70680483Y-61502510D01*
X70847490Y-61669517D01*
X71038567Y-61808343D01*
X71137991Y-61859002D01*
X71249003Y-61915566D01*
X71249005Y-61915566D01*
X71249008Y-61915568D01*
X71341292Y-61945553D01*
X71473631Y-61988553D01*
X71706903Y-62025500D01*
X71706908Y-62025500D01*
X71943097Y-62025500D01*
X72049126Y-62008705D01*
X72176368Y-61988553D01*
X72302566Y-61947547D01*
X72372404Y-61945553D01*
X72428563Y-61977798D01*
X73190139Y-62739374D01*
X73190149Y-62739385D01*
X73194479Y-62743715D01*
X73194480Y-62743716D01*
X73306284Y-62855520D01*
X73393095Y-62905639D01*
X73393097Y-62905641D01*
X73431115Y-62927591D01*
X73443215Y-62934577D01*
X73595943Y-62975500D01*
X73595949Y-62975500D01*
X73598197Y-62975796D01*
X73599961Y-62976576D01*
X73603793Y-62977603D01*
X73603632Y-62978200D01*
X73624253Y-62987320D01*
X73651397Y-62995960D01*
X73657008Y-63001806D01*
X73662096Y-63004057D01*
X73677542Y-63019668D01*
X73683035Y-63026304D01*
X73732288Y-63106156D01*
X73830076Y-63203944D01*
X73833791Y-63208432D01*
X73845375Y-63235392D01*
X73859436Y-63261142D01*
X73859008Y-63267119D01*
X73861375Y-63272627D01*
X73856545Y-63301566D01*
X73854452Y-63330834D01*
X73850681Y-63336701D01*
X73849873Y-63341543D01*
X73841964Y-63350265D01*
X73825951Y-63375181D01*
X73732289Y-63468842D01*
X73640187Y-63618163D01*
X73640185Y-63618168D01*
X73614820Y-63694714D01*
X73585001Y-63784703D01*
X73585001Y-63784704D01*
X73585000Y-63784704D01*
X73574500Y-63887483D01*
X73574500Y-64512501D01*
X73574501Y-64512519D01*
X73585000Y-64615296D01*
X73585001Y-64615299D01*
X73633013Y-64760187D01*
X73640186Y-64781834D01*
X73732288Y-64931156D01*
X73856344Y-65055212D01*
X74005666Y-65147314D01*
X74172203Y-65202499D01*
X74274991Y-65213000D01*
X74374902Y-65212999D01*
X74441940Y-65232683D01*
X74462583Y-65249318D01*
X75877639Y-66664374D01*
X75877649Y-66664385D01*
X75881979Y-66668715D01*
X75881980Y-66668716D01*
X75993784Y-66780520D01*
X76061674Y-66819716D01*
X76130715Y-66859577D01*
X76168382Y-66869669D01*
X76178472Y-66874437D01*
X76196570Y-66890535D01*
X76217253Y-66903142D01*
X76222207Y-66913339D01*
X76230677Y-66920874D01*
X76237198Y-66944199D01*
X76247783Y-66965988D01*
X76249500Y-66986553D01*
X76249500Y-67447869D01*
X76249501Y-67447878D01*
X76253679Y-67486745D01*
X76253679Y-67513250D01*
X76249500Y-67552122D01*
X76249500Y-68050902D01*
X76229815Y-68117941D01*
X76177011Y-68163696D01*
X76107853Y-68173640D01*
X76044297Y-68144615D01*
X76037819Y-68138583D01*
X71663590Y-63764355D01*
X71663588Y-63764352D01*
X71544717Y-63645481D01*
X71544709Y-63645475D01*
X71429670Y-63579058D01*
X71429669Y-63579057D01*
X71414287Y-63570177D01*
X71407785Y-63566423D01*
X71255057Y-63525499D01*
X71096943Y-63525499D01*
X71089347Y-63525499D01*
X71089331Y-63525500D01*
X55393114Y-63525500D01*
X55326075Y-63505815D01*
X55280320Y-63453011D01*
X55270376Y-63383853D01*
X55275183Y-63363182D01*
X55292373Y-63310276D01*
X55292373Y-63310273D01*
X55325000Y-63104279D01*
X55325000Y-62895720D01*
X55292373Y-62689727D01*
X55227924Y-62491372D01*
X55133244Y-62305556D01*
X55133236Y-62305543D01*
X55097372Y-62256180D01*
X55097371Y-62256179D01*
X54523787Y-62829764D01*
X54512518Y-62787708D01*
X54440110Y-62662292D01*
X54337708Y-62559890D01*
X54212292Y-62487482D01*
X54170233Y-62476212D01*
X54743819Y-61902627D01*
X54694451Y-61866759D01*
X54508627Y-61772075D01*
X54310272Y-61707626D01*
X54104279Y-61675000D01*
X53895721Y-61675000D01*
X53689727Y-61707626D01*
X53491372Y-61772075D01*
X53305552Y-61866757D01*
X53256180Y-61902627D01*
X53829766Y-62476212D01*
X53787708Y-62487482D01*
X53662292Y-62559890D01*
X53559890Y-62662292D01*
X53487482Y-62787708D01*
X53476212Y-62829765D01*
X52902627Y-62256180D01*
X52866757Y-62305552D01*
X52772075Y-62491372D01*
X52707626Y-62689727D01*
X52675000Y-62895720D01*
X52675000Y-63104279D01*
X52707626Y-63310273D01*
X52707626Y-63310276D01*
X52724817Y-63363182D01*
X52726812Y-63433023D01*
X52690732Y-63492856D01*
X52628031Y-63523684D01*
X52606886Y-63525500D01*
X50426097Y-63525500D01*
X50396656Y-63516855D01*
X50366670Y-63510332D01*
X50361654Y-63506577D01*
X50359058Y-63505815D01*
X50338416Y-63489181D01*
X50313918Y-63464683D01*
X50280433Y-63403360D01*
X50283669Y-63338681D01*
X50283985Y-63337708D01*
X50292862Y-63310389D01*
X50322608Y-63122580D01*
X50325500Y-63104324D01*
X50325500Y-62895675D01*
X50292862Y-62689610D01*
X50232912Y-62505104D01*
X50228389Y-62491184D01*
X50228387Y-62491181D01*
X50228387Y-62491179D01*
X50178421Y-62393116D01*
X50133670Y-62305286D01*
X50011035Y-62136495D01*
X49863505Y-61988965D01*
X49694714Y-61866330D01*
X49625936Y-61831286D01*
X49508820Y-61771612D01*
X49310389Y-61707137D01*
X49104324Y-61674500D01*
X49104319Y-61674500D01*
X48895681Y-61674500D01*
X48895676Y-61674500D01*
X48689610Y-61707137D01*
X48491179Y-61771612D01*
X48305285Y-61866330D01*
X48201327Y-61941860D01*
X48136495Y-61988965D01*
X48136492Y-61988967D01*
X47988966Y-62136493D01*
X47866330Y-62305285D01*
X47771612Y-62491179D01*
X47707137Y-62689610D01*
X47674500Y-62895675D01*
X42500500Y-62895675D01*
X42500500Y-60406902D01*
X63824500Y-60406902D01*
X63824500Y-60643097D01*
X63861446Y-60876368D01*
X63934433Y-61100996D01*
X63993291Y-61216510D01*
X64041657Y-61311433D01*
X64180483Y-61502510D01*
X64347490Y-61669517D01*
X64538567Y-61808343D01*
X64637991Y-61859002D01*
X64749003Y-61915566D01*
X64749005Y-61915566D01*
X64749008Y-61915568D01*
X64841292Y-61945553D01*
X64973631Y-61988553D01*
X65206903Y-62025500D01*
X65206908Y-62025500D01*
X65443097Y-62025500D01*
X65676368Y-61988553D01*
X65709468Y-61977798D01*
X65900992Y-61915568D01*
X66111433Y-61808343D01*
X66302510Y-61669517D01*
X66469517Y-61502510D01*
X66608343Y-61311433D01*
X66715568Y-61100992D01*
X66788553Y-60876368D01*
X66796180Y-60828211D01*
X66825500Y-60643097D01*
X66825500Y-60406902D01*
X66788553Y-60173631D01*
X66715566Y-59949003D01*
X66608342Y-59738566D01*
X66469517Y-59547490D01*
X66302510Y-59380483D01*
X66111433Y-59241657D01*
X66094557Y-59233058D01*
X65900996Y-59134433D01*
X65676368Y-59061446D01*
X65443097Y-59024500D01*
X65443092Y-59024500D01*
X65206908Y-59024500D01*
X65206903Y-59024500D01*
X64973631Y-59061446D01*
X64749003Y-59134433D01*
X64538566Y-59241657D01*
X64458131Y-59300097D01*
X64347490Y-59380483D01*
X64347488Y-59380485D01*
X64347487Y-59380485D01*
X64180485Y-59547487D01*
X64180485Y-59547488D01*
X64180483Y-59547490D01*
X64120862Y-59629550D01*
X64041657Y-59738566D01*
X63934433Y-59949003D01*
X63861446Y-60173631D01*
X63824500Y-60406902D01*
X42500500Y-60406902D01*
X42500500Y-57378711D01*
X43649500Y-57378711D01*
X43649500Y-57621288D01*
X43681161Y-57861785D01*
X43743947Y-58096104D01*
X43796400Y-58222736D01*
X43836776Y-58320212D01*
X43958064Y-58530289D01*
X43958066Y-58530292D01*
X43958067Y-58530293D01*
X44105733Y-58722736D01*
X44105739Y-58722743D01*
X44277256Y-58894260D01*
X44277263Y-58894266D01*
X44359733Y-58957547D01*
X44469711Y-59041936D01*
X44679788Y-59163224D01*
X44903900Y-59256054D01*
X45138211Y-59318838D01*
X45318586Y-59342584D01*
X45378711Y-59350500D01*
X45378712Y-59350500D01*
X45621289Y-59350500D01*
X45669388Y-59344167D01*
X45861789Y-59318838D01*
X46096100Y-59256054D01*
X46320212Y-59163224D01*
X46530289Y-59041936D01*
X46722738Y-58894265D01*
X46894265Y-58722738D01*
X47041936Y-58530289D01*
X47163224Y-58320212D01*
X47256054Y-58096100D01*
X47275109Y-58024986D01*
X76250001Y-58024986D01*
X76260494Y-58127697D01*
X76315641Y-58294119D01*
X76315643Y-58294124D01*
X76407684Y-58443345D01*
X76531654Y-58567315D01*
X76680875Y-58659356D01*
X76680880Y-58659358D01*
X76847302Y-58714505D01*
X76847309Y-58714506D01*
X76950019Y-58724999D01*
X76999999Y-58724998D01*
X77000000Y-58724998D01*
X77000000Y-57750000D01*
X76250001Y-57750000D01*
X76250001Y-58024986D01*
X47275109Y-58024986D01*
X47318838Y-57861789D01*
X47350500Y-57621288D01*
X47350500Y-57378712D01*
X47341180Y-57307918D01*
X47329156Y-57216584D01*
X47318838Y-57138214D01*
X47318838Y-57138211D01*
X47256054Y-56903900D01*
X47163224Y-56679788D01*
X47041936Y-56469711D01*
X46942548Y-56340186D01*
X46894266Y-56277263D01*
X46894260Y-56277256D01*
X46722743Y-56105739D01*
X46722736Y-56105733D01*
X46585529Y-56000451D01*
X46530293Y-55958067D01*
X46530292Y-55958066D01*
X46530289Y-55958064D01*
X46441752Y-55906947D01*
X63825000Y-55906947D01*
X63825000Y-56143052D01*
X63861934Y-56376247D01*
X63934897Y-56600802D01*
X64042087Y-56811174D01*
X64102338Y-56894104D01*
X64102340Y-56894105D01*
X64801212Y-56195233D01*
X64812482Y-56237292D01*
X64884890Y-56362708D01*
X64987292Y-56465110D01*
X65112708Y-56537518D01*
X65154765Y-56548787D01*
X64455893Y-57247658D01*
X64538828Y-57307914D01*
X64749197Y-57415102D01*
X64973752Y-57488065D01*
X64973751Y-57488065D01*
X65206948Y-57525000D01*
X65443052Y-57525000D01*
X65676247Y-57488065D01*
X65900802Y-57415102D01*
X66111163Y-57307918D01*
X66111169Y-57307914D01*
X66194104Y-57247658D01*
X66194105Y-57247658D01*
X65495233Y-56548787D01*
X65537292Y-56537518D01*
X65662708Y-56465110D01*
X65765110Y-56362708D01*
X65837518Y-56237292D01*
X65848787Y-56195233D01*
X66547658Y-56894105D01*
X66547658Y-56894104D01*
X66607914Y-56811169D01*
X66607918Y-56811163D01*
X66715102Y-56600802D01*
X66788065Y-56376247D01*
X66825000Y-56143052D01*
X66825000Y-55906947D01*
X70325000Y-55906947D01*
X70325000Y-56143052D01*
X70361934Y-56376247D01*
X70434897Y-56600802D01*
X70542087Y-56811174D01*
X70602338Y-56894104D01*
X70602340Y-56894105D01*
X71301212Y-56195233D01*
X71312482Y-56237292D01*
X71384890Y-56362708D01*
X71487292Y-56465110D01*
X71612708Y-56537518D01*
X71654765Y-56548787D01*
X70955893Y-57247658D01*
X71038828Y-57307914D01*
X71249197Y-57415102D01*
X71473752Y-57488065D01*
X71473751Y-57488065D01*
X71706948Y-57525000D01*
X71943052Y-57525000D01*
X72176247Y-57488065D01*
X72400802Y-57415102D01*
X72611163Y-57307918D01*
X72611169Y-57307914D01*
X72694104Y-57247658D01*
X72694105Y-57247658D01*
X72421460Y-56975013D01*
X76250000Y-56975013D01*
X76250000Y-57250000D01*
X77000000Y-57250000D01*
X77000000Y-56275000D01*
X76999999Y-56274999D01*
X76950029Y-56275000D01*
X76950011Y-56275001D01*
X76847302Y-56285494D01*
X76680880Y-56340641D01*
X76680875Y-56340643D01*
X76531654Y-56432684D01*
X76407684Y-56556654D01*
X76315643Y-56705875D01*
X76315641Y-56705880D01*
X76260494Y-56872302D01*
X76260493Y-56872309D01*
X76250000Y-56975013D01*
X72421460Y-56975013D01*
X71995233Y-56548787D01*
X72037292Y-56537518D01*
X72162708Y-56465110D01*
X72265110Y-56362708D01*
X72337518Y-56237292D01*
X72348787Y-56195234D01*
X73047658Y-56894105D01*
X73107914Y-56811169D01*
X73107918Y-56811163D01*
X73215102Y-56600802D01*
X73288065Y-56376247D01*
X73325000Y-56143052D01*
X73325000Y-55906947D01*
X73288065Y-55673752D01*
X73215102Y-55449197D01*
X73107914Y-55238828D01*
X73047658Y-55155894D01*
X73047658Y-55155893D01*
X72348787Y-55854765D01*
X72337518Y-55812708D01*
X72265110Y-55687292D01*
X72162708Y-55584890D01*
X72037292Y-55512482D01*
X71995234Y-55501212D01*
X72694105Y-54802340D01*
X72694104Y-54802338D01*
X72611174Y-54742087D01*
X72400802Y-54634897D01*
X72176247Y-54561934D01*
X72176248Y-54561934D01*
X71943052Y-54525000D01*
X71706948Y-54525000D01*
X71473752Y-54561934D01*
X71249197Y-54634897D01*
X71038830Y-54742084D01*
X70955894Y-54802340D01*
X71654766Y-55501212D01*
X71612708Y-55512482D01*
X71487292Y-55584890D01*
X71384890Y-55687292D01*
X71312482Y-55812708D01*
X71301212Y-55854766D01*
X70602340Y-55155894D01*
X70542084Y-55238830D01*
X70434897Y-55449197D01*
X70361934Y-55673752D01*
X70325000Y-55906947D01*
X66825000Y-55906947D01*
X66788065Y-55673752D01*
X66715102Y-55449197D01*
X66607914Y-55238828D01*
X66547658Y-55155894D01*
X66547658Y-55155893D01*
X65848787Y-55854765D01*
X65837518Y-55812708D01*
X65765110Y-55687292D01*
X65662708Y-55584890D01*
X65537292Y-55512482D01*
X65495234Y-55501212D01*
X66194105Y-54802340D01*
X66194104Y-54802339D01*
X66111174Y-54742087D01*
X65900802Y-54634897D01*
X65676247Y-54561934D01*
X65676248Y-54561934D01*
X65443052Y-54525000D01*
X65206948Y-54525000D01*
X64973752Y-54561934D01*
X64749197Y-54634897D01*
X64538830Y-54742084D01*
X64455894Y-54802340D01*
X65154766Y-55501212D01*
X65112708Y-55512482D01*
X64987292Y-55584890D01*
X64884890Y-55687292D01*
X64812482Y-55812708D01*
X64801212Y-55854766D01*
X64102340Y-55155894D01*
X64042084Y-55238830D01*
X63934897Y-55449197D01*
X63861934Y-55673752D01*
X63825000Y-55906947D01*
X46441752Y-55906947D01*
X46358661Y-55858974D01*
X46320214Y-55836777D01*
X46320205Y-55836773D01*
X46096104Y-55743947D01*
X45954145Y-55705909D01*
X45861789Y-55681162D01*
X45861788Y-55681161D01*
X45861785Y-55681161D01*
X45621289Y-55649500D01*
X45621288Y-55649500D01*
X45378712Y-55649500D01*
X45378711Y-55649500D01*
X45138214Y-55681161D01*
X44903895Y-55743947D01*
X44679794Y-55836773D01*
X44679785Y-55836777D01*
X44469706Y-55958067D01*
X44277263Y-56105733D01*
X44277256Y-56105739D01*
X44105739Y-56277256D01*
X44105733Y-56277263D01*
X43958067Y-56469706D01*
X43958064Y-56469710D01*
X43958064Y-56469711D01*
X43948366Y-56486508D01*
X43836777Y-56679785D01*
X43836773Y-56679794D01*
X43743947Y-56903895D01*
X43681161Y-57138214D01*
X43649500Y-57378711D01*
X42500500Y-57378711D01*
X42500500Y-54124500D01*
X42520185Y-54057461D01*
X42572989Y-54011706D01*
X42624500Y-54000500D01*
X121375500Y-54000500D01*
X121442539Y-54020185D01*
G37*
%TD.AperFunction*%
%TD*%
D30*
X42000000Y-53500000D02*
X122000000Y-53500000D01*
X122000000Y-90500000D01*
X42000000Y-90500000D01*
X42000000Y-53500000D01*
M02*
