%TF.GenerationSoftware,KiCad,Pcbnew,9.0.0*%
%TF.CreationDate,2025-03-14T14:13:33-06:00*%
%TF.ProjectId,scrollwheel_peripheral,7363726f-6c6c-4776-9865-656c5f706572,rev?*%
%TF.SameCoordinates,Original*%
%TF.FileFunction,Paste,Top*%
%TF.FilePolarity,Positive*%
%FSLAX46Y46*%
G04 Gerber Fmt 4.6, Leading zero omitted, Abs format (unit mm)*
G04 Created by KiCad (PCBNEW 9.0.0) date 2025-03-14 14:13:33*
%MOMM*%
%LPD*%
G01*
G04 APERTURE LIST*
G04 Aperture macros list*
%AMRoundRect*
0 Rectangle with rounded corners*
0 $1 Rounding radius*
0 $2 $3 $4 $5 $6 $7 $8 $9 X,Y pos of 4 corners*
0 Add a 4 corners polygon primitive as box body*
4,1,4,$2,$3,$4,$5,$6,$7,$8,$9,$2,$3,0*
0 Add four circle primitives for the rounded corners*
1,1,$1+$1,$2,$3*
1,1,$1+$1,$4,$5*
1,1,$1+$1,$6,$7*
1,1,$1+$1,$8,$9*
0 Add four rect primitives between the rounded corners*
20,1,$1+$1,$2,$3,$4,$5,0*
20,1,$1+$1,$4,$5,$6,$7,0*
20,1,$1+$1,$6,$7,$8,$9,0*
20,1,$1+$1,$8,$9,$2,$3,0*%
G04 Aperture macros list end*
%ADD10RoundRect,0.250000X0.450000X-0.262500X0.450000X0.262500X-0.450000X0.262500X-0.450000X-0.262500X0*%
%ADD11R,0.600000X1.100000*%
%ADD12R,0.300000X1.100000*%
%ADD13RoundRect,0.250000X0.262500X0.450000X-0.262500X0.450000X-0.262500X-0.450000X0.262500X-0.450000X0*%
%ADD14RoundRect,0.250000X0.250000X0.475000X-0.250000X0.475000X-0.250000X-0.475000X0.250000X-0.475000X0*%
%ADD15RoundRect,0.250000X-0.262500X-0.450000X0.262500X-0.450000X0.262500X0.450000X-0.262500X0.450000X0*%
%ADD16R,1.900000X2.400000*%
%ADD17RoundRect,0.250000X-0.250000X-0.475000X0.250000X-0.475000X0.250000X0.475000X-0.250000X0.475000X0*%
%ADD18R,1.500000X0.600000*%
%ADD19R,0.600000X1.500000*%
%TA.AperFunction,Profile*%
%ADD20C,0.050000*%
%TD*%
G04 APERTURE END LIST*
D10*
%TO.C,R5*%
X74775000Y-64200000D03*
X74775000Y-62375000D03*
%TD*%
D11*
%TO.C,J1*%
X80180000Y-82175000D03*
X80980000Y-82175000D03*
D12*
X82130000Y-82175000D03*
X83130000Y-82175000D03*
X83630000Y-82175000D03*
X84630000Y-82175000D03*
D11*
X86580000Y-82175000D03*
X85780000Y-82175000D03*
D12*
X85130000Y-82175000D03*
X84130000Y-82175000D03*
X82630000Y-82175000D03*
X81630000Y-82175000D03*
%TD*%
D13*
%TO.C,R1*%
X94687500Y-76500000D03*
X92862500Y-76500000D03*
%TD*%
D14*
%TO.C,C7*%
X79150000Y-57500000D03*
X77250000Y-57500000D03*
%TD*%
D15*
%TO.C,R4*%
X71850000Y-84225000D03*
X73675000Y-84225000D03*
%TD*%
D13*
%TO.C,R3*%
X73700000Y-87075000D03*
X71875000Y-87075000D03*
%TD*%
D16*
%TO.C,Y1*%
X85650000Y-57400000D03*
X81550000Y-57400000D03*
%TD*%
D13*
%TO.C,R2*%
X94725000Y-74075000D03*
X92900000Y-74075000D03*
%TD*%
D17*
%TO.C,C6*%
X88225000Y-57225000D03*
X90125000Y-57225000D03*
%TD*%
D18*
%TO.C,IC1*%
X89000000Y-73500000D03*
X89000000Y-72700000D03*
X89000000Y-71900000D03*
X89000000Y-71100000D03*
X89000000Y-70300000D03*
X89000000Y-69500000D03*
X89000000Y-68700000D03*
X89000000Y-67900000D03*
X89000000Y-67100000D03*
X89000000Y-66300000D03*
X89000000Y-65500000D03*
D19*
X87250000Y-63750000D03*
X86450000Y-63750000D03*
X85650000Y-63750000D03*
X84850000Y-63750000D03*
X84050000Y-63750000D03*
X83250000Y-63750000D03*
X82450000Y-63750000D03*
X81650000Y-63750000D03*
X80850000Y-63750000D03*
X80050000Y-63750000D03*
X79250000Y-63750000D03*
D18*
X77500000Y-65500000D03*
X77500000Y-66300000D03*
X77500000Y-67100000D03*
X77500000Y-67900000D03*
X77500000Y-68700000D03*
X77500000Y-69500000D03*
X77500000Y-70300000D03*
X77500000Y-71100000D03*
X77500000Y-71900000D03*
X77500000Y-72700000D03*
X77500000Y-73500000D03*
D19*
X79250000Y-75250000D03*
X80050000Y-75250000D03*
X80850000Y-75250000D03*
X81650000Y-75250000D03*
X82450000Y-75250000D03*
X83250000Y-75250000D03*
X84050000Y-75250000D03*
X84850000Y-75250000D03*
X85650000Y-75250000D03*
X86450000Y-75250000D03*
X87250000Y-75250000D03*
%TD*%
D14*
%TO.C,C10*%
X75325000Y-75275000D03*
X73425000Y-75275000D03*
%TD*%
D20*
X42000000Y-53500000D02*
X122000000Y-53500000D01*
X122000000Y-90500000D01*
X42000000Y-90500000D01*
X42000000Y-53500000D01*
M02*
